<svg width="1070" height="602" viewBox="0 0 1070 602" fill="none" xmlns="http://www.w3.org/2000/svg">
<path fill-rule="evenodd" clip-rule="evenodd" d="M501 0.595703H10C4.47715 0.595703 0 5.07286 0 10.5957V591.596C0 597.119 4.47713 601.596 9.99997 601.596H1060C1065.52 601.596 1070 597.119 1070 591.596V10.5957C1070 5.07286 1065.52 0.595703 1060 0.595703H570V1.5957H1060C1064.97 1.5957 1069 5.62514 1069 10.5957V591.596C1069 596.566 1064.97 600.596 1060 600.596H9.99997C5.02941 600.596 1 596.566 1 591.596V10.5957C1 5.62514 5.02944 1.5957 10 1.5957H501V0.595703Z" fill="white"/>
</svg>
