<svg width="18" height="13" viewBox="0 0 18 13" fill="none" xmlns="http://www.w3.org/2000/svg">
<path d="M7.95293 9.42752L7.95365 9.42897L9.00181 11.5338L10.0585 9.42897L10.0592 9.42753L11.4412 6.65231L8.99968 1.76924C8.84421 2.07957 8.69433 2.37863 8.54756 2.67148C7.89549 3.97258 7.30488 5.15104 6.55893 6.65078L7.95293 9.42752Z" stroke="#0C0B10"/>
<path d="M1.4509 8.42753L1.4509 8.42752L1.45162 8.42897L2.00181 9.53382L2.55647 8.42897L2.5572 8.42753L3.44121 6.65231L1.99963 3.76914C1.94814 3.87189 1.89742 3.97309 1.84725 4.07319C1.42346 4.9188 1.03872 5.68649 0.558941 6.6508L1.4509 8.42753Z" stroke="#0C0B10"/>
<path d="M15.4509 8.42753L15.4509 8.42752L15.4516 8.42897L16.0018 9.53382L16.5565 8.42897L16.5572 8.42753L17.4412 6.65231L15.9996 3.76914C15.9481 3.87189 15.8974 3.97309 15.8473 4.07319C15.4235 4.9188 15.0387 5.68649 14.5589 6.6508L15.4509 8.42753Z" stroke="#0C0B10"/>
</svg>
