<svg width="1070" height="602" viewBox="0 0 1070 602" fill="none" xmlns="http://www.w3.org/2000/svg">
<path fill-rule="evenodd" clip-rule="evenodd" d="M501 0.826172H10C4.47715 0.826172 0 5.30332 0 10.8262V591.826C0 597.349 4.47713 601.826 9.99997 601.826H1060C1065.52 601.826 1070 597.349 1070 591.826V10.8262C1070 5.30332 1065.52 0.826172 1060 0.826172H570V1.82617H1060C1064.97 1.82617 1069 5.85561 1069 10.8262V591.826C1069 596.797 1064.97 600.826 1060 600.826H9.99997C5.02941 600.826 1 596.797 1 591.826V10.8262C1 5.85561 5.02944 1.82617 10 1.82617H501V0.826172Z" fill="white"/>
</svg>
