<svg width="1070" height="622" viewBox="0 0 1070 622" fill="none" xmlns="http://www.w3.org/2000/svg">
<path d="M534.892 0.826172L532.51 5.34017L530.205 9.85418C531.857 13.0236 533.317 15.7704 534.95 18.8822L539.694 9.85418L537.255 5.34017L534.892 0.826172Z" fill="white"/>
<path d="M558.807 16.2122L558.576 16.0777L558.346 15.9241L558.096 15.7896L557.866 15.6359L557.616 15.5015L557.386 15.367L557.155 15.2326L556.905 15.0981L556.656 14.9637L556.425 14.8484L556.175 14.7139L555.926 14.5795L555.695 14.445L555.446 14.3298L555.196 14.1953L554.946 14.0801L554.696 13.9648L554.447 13.8496L554.197 13.7151L554.062 13.6575L551.854 18.4788L551.95 18.5172L552.18 18.6133L552.391 18.7285L552.622 18.8438L552.833 18.9398L553.044 19.0551L553.275 19.1703L553.486 19.2856L553.698 19.3816L553.909 19.4969L554.139 19.6313L554.351 19.7466L554.562 19.8618L554.773 19.9771L554.985 20.0923L555.196 20.2268L555.407 20.342L555.618 20.4573L555.83 20.5917L556.041 20.7262L556.233 20.8415L558.999 16.3275L558.807 16.2122Z" fill="white"/>
<path d="M548.475 11.506L548.206 11.4292L547.937 11.3524L547.668 11.2563L547.399 11.1795L547.13 11.1219L546.842 11.045L546.573 10.9682L546.304 10.8914L546.035 10.8337L545.747 10.7569L545.478 10.6801L545.209 10.6225L544.921 10.5648L544.652 10.5072L544.364 10.4304L544.095 10.3727L543.807 10.3343L543.538 10.2767L543.384 10.2383L542.424 15.4438L542.539 15.463L542.789 15.5206L543.039 15.559L543.269 15.6167L543.519 15.6743L543.768 15.7319L544.018 15.7895L544.249 15.8472L544.498 15.8856L544.748 15.9624L544.979 16.02L545.228 16.0777L545.478 16.1545L545.708 16.2121L545.939 16.2698L546.189 16.3466L546.419 16.4234L546.669 16.481L546.899 16.5579L547.149 16.6347L547.245 16.6731L548.839 11.6213L548.743 11.6021L548.475 11.506Z" fill="white"/>
<path d="M526.537 10.2192L526.249 10.2768L525.961 10.3344L525.692 10.3728L525.404 10.4305L525.135 10.5073L524.847 10.5649L524.578 10.6225L524.29 10.6802L524.021 10.757L523.752 10.8338L523.483 10.8915L523.195 10.9683L522.926 11.0451L522.657 11.122L522.388 11.1796L522.119 11.2564L521.85 11.3525L521.562 11.4293L521.313 11.5061L521.197 11.5445L522.792 16.5964L522.868 16.558L523.118 16.4811L523.349 16.4235L523.579 16.3467L523.829 16.2698L524.079 16.2122L524.309 16.1546L524.559 16.0778L524.789 16.0201L525.039 15.9625L525.269 15.8857L525.519 15.8473L525.769 15.7896L526.019 15.732L526.249 15.6744L526.499 15.6168L526.749 15.5591L526.998 15.5207L527.248 15.4631L527.478 15.4247L527.613 15.4055L526.652 10.2L526.537 10.2192Z" fill="white"/>
<path d="M515.839 13.5997L515.589 13.7149L515.339 13.8494L515.089 13.9647L514.84 14.0799L514.59 14.1952L514.34 14.3296L514.091 14.4449L513.841 14.5793L513.61 14.7138L513.361 14.8483L513.111 14.9635L512.88 15.098L512.631 15.2324L512.4 15.3669L512.151 15.5013L511.92 15.6358L511.67 15.7895L511.44 15.9239L511.209 16.0776L510.998 16.1928L513.783 20.7068L513.956 20.5916L514.167 20.4571L514.36 20.3419L514.571 20.2266L514.782 20.0922L514.993 19.9769L515.224 19.8617L515.435 19.7464L515.647 19.6312L515.858 19.4967L516.069 19.3815L516.28 19.2854L516.511 19.1702L516.722 19.0549L516.933 18.9397L517.164 18.8436L517.375 18.7284L517.606 18.6131L517.817 18.5171L518.048 18.421L518.163 18.3634L515.954 13.5613L515.839 13.5997Z" fill="white"/>
<path d="M534.892 488.842L532.51 484.328L530.205 479.814C531.857 476.644 533.317 473.898 534.95 470.786L539.694 479.814L537.255 484.328L534.892 488.842Z" fill="white"/>
<path d="M558.807 473.456L558.576 473.59L558.346 473.744L558.096 473.878L557.866 474.032L557.616 474.166L557.386 474.301L557.155 474.435L556.905 474.57L556.656 474.704L556.425 474.82L556.175 474.954L555.926 475.088L555.695 475.223L555.446 475.338L555.196 475.473L554.946 475.588L554.696 475.703L554.447 475.818L554.197 475.953L554.062 476.01L551.854 471.189L551.95 471.151L552.18 471.055L552.391 470.939L552.622 470.824L552.833 470.728L553.044 470.613L553.275 470.498L553.486 470.382L553.698 470.286L553.909 470.171L554.139 470.037L554.351 469.921L554.562 469.806L554.773 469.691L554.985 469.576L555.196 469.441L555.407 469.326L555.618 469.211L555.83 469.076L556.041 468.942L556.233 468.827L558.999 473.341L558.807 473.456Z" fill="white"/>
<path d="M548.475 478.162L548.206 478.239L547.937 478.316L547.668 478.412L547.399 478.488L547.13 478.546L546.842 478.623L546.573 478.7L546.304 478.777L546.035 478.834L545.747 478.911L545.478 478.988L545.209 479.046L544.921 479.103L544.652 479.161L544.364 479.238L544.095 479.295L543.807 479.334L543.538 479.391L543.384 479.43L542.424 474.224L542.539 474.205L542.789 474.147L543.039 474.109L543.269 474.051L543.519 473.994L543.768 473.936L544.018 473.878L544.249 473.821L544.498 473.782L544.748 473.706L544.979 473.648L545.228 473.59L545.478 473.513L545.708 473.456L545.939 473.398L546.189 473.321L546.419 473.245L546.669 473.187L546.899 473.11L547.149 473.033L547.245 472.995L548.839 478.047L548.743 478.066L548.475 478.162Z" fill="white"/>
<path d="M526.537 479.449L526.249 479.391L525.961 479.334L525.692 479.295L525.404 479.238L525.135 479.161L524.847 479.103L524.578 479.045L524.29 478.988L524.021 478.911L523.752 478.834L523.483 478.777L523.195 478.7L522.926 478.623L522.657 478.546L522.388 478.488L522.119 478.412L521.85 478.316L521.562 478.239L521.313 478.162L521.197 478.123L522.792 473.072L522.868 473.11L523.118 473.187L523.349 473.244L523.579 473.321L523.829 473.398L524.079 473.456L524.309 473.513L524.559 473.59L524.789 473.648L525.039 473.705L525.269 473.782L525.519 473.821L525.769 473.878L526.019 473.936L526.249 473.994L526.499 474.051L526.749 474.109L526.998 474.147L527.248 474.205L527.478 474.243L527.613 474.263L526.652 479.468L526.537 479.449Z" fill="white"/>
<path d="M515.839 476.068L515.589 475.953L515.339 475.819L515.089 475.703L514.84 475.588L514.59 475.473L514.34 475.338L514.091 475.223L513.841 475.089L513.61 474.954L513.361 474.82L513.111 474.704L512.88 474.57L512.631 474.436L512.4 474.301L512.151 474.167L511.92 474.032L511.67 473.879L511.44 473.744L511.209 473.59L510.998 473.475L513.783 468.961L513.956 469.076L514.167 469.211L514.36 469.326L514.571 469.441L514.782 469.576L514.993 469.691L515.224 469.806L515.435 469.922L515.647 470.037L515.858 470.171L516.069 470.287L516.28 470.383L516.511 470.498L516.722 470.613L516.933 470.728L517.164 470.824L517.375 470.94L517.606 471.055L517.817 471.151L518.048 471.247L518.163 471.305L515.954 476.107L515.839 476.068Z" fill="white"/>
<path fill-rule="evenodd" clip-rule="evenodd" d="M501 20.8262H10C4.47715 20.8262 0 25.3033 0 30.8262V611.826C0 617.349 4.47713 621.826 9.99997 621.826H1060C1065.52 621.826 1070 617.349 1070 611.826V30.8262C1070 25.3033 1065.52 20.8262 1060 20.8262H570V21.8262H1060C1064.97 21.8262 1069 25.8556 1069 30.8262V611.826C1069 616.797 1064.97 620.826 1060 620.826H9.99997C5.02941 620.826 1 616.797 1 611.826V30.8262C1 25.8556 5.02944 21.8262 10 21.8262H501V20.8262Z" fill="white"/>
</svg>
