<svg width="36" height="16" viewBox="0 0 36 16" fill="none" xmlns="http://www.w3.org/2000/svg">
<path d="M17.921 15.583L16.1636 12.2525L14.4629 8.92199C15.6817 6.58354 16.7588 4.55689 17.9635 2.26097L21.464 8.92199L19.6642 12.2525L17.921 15.583Z" fill="white"/>
<path d="M35.5659 4.2308L35.3959 4.33L35.2258 4.44338L35.0416 4.54259L34.8715 4.65597L34.6873 4.75517L34.5172 4.85438L34.3471 4.95359L34.1629 5.05279L33.9786 5.152L33.8086 5.23703L33.6243 5.33624L33.4401 5.43545L33.27 5.53465L33.0858 5.61969L32.9015 5.7189L32.7173 5.80393L32.5331 5.88896L32.3488 5.974L32.1646 6.07321L32.0654 6.11572L30.4355 2.55845L30.5064 2.53011L30.6765 2.45925L30.8324 2.37421L31.0024 2.28918L31.1583 2.21832L31.3142 2.13328L31.4843 2.04825L31.6402 1.96321L31.7961 1.89235L31.952 1.80732L32.1221 1.70811L32.278 1.62308L32.4339 1.53804L32.5897 1.45301L32.7456 1.36797L32.9015 1.26877L33.0574 1.18373L33.2133 1.0987L33.3692 0.999492L33.5251 0.900286L33.6668 0.815251L35.7077 4.14576L35.5659 4.2308Z" fill="white"/>
<path d="M27.9409 7.70329L27.7425 7.75998L27.544 7.81667L27.3456 7.88754L27.1472 7.94423L26.9488 7.98674L26.7362 8.04343L26.5378 8.10012L26.3394 8.15681L26.141 8.19933L25.9284 8.25602L25.73 8.31271L25.5316 8.35522L25.319 8.39774L25.1206 8.44026L24.908 8.49695L24.7096 8.53947L24.497 8.56781L24.2986 8.61033L24.1852 8.63867L23.4766 4.79796L23.5616 4.78378L23.7458 4.74127L23.9301 4.71292L24.1001 4.67041L24.2844 4.62789L24.4686 4.58537L24.6529 4.54285L24.8229 4.50034L25.0072 4.47199L25.1914 4.4153L25.3615 4.37279L25.5457 4.33027L25.73 4.27358L25.9 4.23106L26.0701 4.18854L26.2543 4.13185L26.4244 4.07517L26.6087 4.03265L26.7787 3.97596L26.963 3.91927L27.0338 3.89092L28.2101 7.61826L28.1393 7.63243L27.9409 7.70329Z" fill="white"/>
<path d="M11.7563 8.65282L11.5437 8.6103L11.3312 8.56779L11.1327 8.53944L10.9202 8.49692L10.7217 8.44023L10.5092 8.39772L10.3107 8.3552L10.0982 8.31268L9.89975 8.25599L9.70133 8.1993L9.50292 8.15679L9.29033 8.1001L9.09192 8.04341L8.89351 7.98672L8.69509 7.9442L8.49668 7.88751L8.29827 7.81665L8.08568 7.75996L7.90144 7.70327L7.81641 7.67493L8.99271 3.94759L9.0494 3.97593L9.23364 4.03262L9.40371 4.07514L9.57378 4.13183L9.75802 4.18852L9.94226 4.23104L10.1123 4.27355L10.2966 4.33024L10.4666 4.37276L10.6509 4.41528L10.821 4.47197L11.0052 4.50031L11.1894 4.54283L11.3737 4.58535L11.5437 4.62786L11.728 4.67038L11.9122 4.7129L12.0965 4.74124L12.2807 4.78376L12.4508 4.8121L12.55 4.82628L11.8414 8.66699L11.7563 8.65282Z" fill="white"/>
<path d="M3.86246 6.15842L3.67822 6.07339L3.49397 5.97418L3.30973 5.88915L3.12549 5.80411L2.94125 5.71908L2.75701 5.61987L2.57277 5.53484L2.38853 5.43563L2.21846 5.33642L2.03422 5.23722L1.84998 5.15218L1.67991 5.05298L1.49567 4.95377L1.3256 4.85456L1.14136 4.75536L0.97129 4.65615L0.787049 4.54277L0.61698 4.44356L0.446912 4.33019L0.291016 4.24515L2.34601 0.914641L2.47356 0.999676L2.62946 1.09888L2.77118 1.18392L2.92708 1.26895L3.08297 1.36816L3.23887 1.45319L3.40894 1.53823L3.56484 1.62326L3.72073 1.70829L3.87663 1.8075L4.03252 1.89254L4.18842 1.9634L4.35849 2.04843L4.51439 2.13347L4.67028 2.2185L4.84035 2.28936L4.99625 2.3744L5.16632 2.45943L5.32221 2.53029L5.49228 2.60116L5.57731 2.64367L3.94749 6.18677L3.86246 6.15842Z" fill="white"/>
</svg>
