<svg width="280" height="62" viewBox="0 0 280 62" fill="none" xmlns="http://www.w3.org/2000/svg">
<path fill-rule="evenodd" clip-rule="evenodd" d="M98.0816 0.826172H30.5C13.6553 0.826172 0 14.4815 0 31.3262C0 48.1709 13.6553 61.8262 30.5 61.8262H98.0816V60.8262H30.5C14.2076 60.8262 1 47.6186 1 31.3262C1 15.0338 14.2076 1.82617 30.5 1.82617H98.0816V0.826172ZM183.531 60.8262H249.5C265.792 60.8262 279 47.6186 279 31.3262C279 15.0338 265.792 1.82617 249.5 1.82617H183.531V0.826172H249.5C266.345 0.826172 280 14.4815 280 31.3262C280 48.1709 266.345 61.8262 249.5 61.8262H183.531V60.8262Z" fill="white"/>
</svg>
