<svg width="49" height="21" viewBox="0 0 49 21" fill="none" xmlns="http://www.w3.org/2000/svg">
<path d="M24.267 0.826172L21.8851 5.34017L19.5801 9.85418C21.232 13.0236 22.6919 15.7704 24.3246 18.8822L29.0691 9.85418L26.6296 5.34017L24.267 0.826172Z" fill="#0C0B10"/>
<path d="M48.4379 16.2124L48.2074 16.078L47.9769 15.9243L47.7271 15.7899L47.4966 15.6362L47.2469 15.5017L47.0164 15.3673L46.7859 15.2328L46.5362 15.0984L46.2865 14.9639L46.056 14.8486L45.8063 14.7142L45.5566 14.5797L45.3261 14.4453L45.0764 14.33L44.8267 14.1956L44.5769 14.0803L44.3272 13.9651L44.0775 13.8498L43.8278 13.7153L43.6934 13.6577L41.4844 18.4791L41.5804 18.5175L41.8109 18.6135L42.0222 18.7288L42.2527 18.844L42.464 18.9401L42.6753 19.0553L42.9058 19.1706L43.1171 19.2858L43.3284 19.3819L43.5397 19.4971L43.7702 19.6316L43.9815 19.7468L44.1928 19.8621L44.4041 19.9773L44.6154 20.0926L44.8267 20.227L45.038 20.3423L45.2492 20.4575L45.4605 20.592L45.6718 20.7264L45.8639 20.8417L48.6299 16.3277L48.4379 16.2124Z" fill="#0C0B10"/>
<path d="M38.119 11.506L37.8501 11.4292L37.5812 11.3524L37.3123 11.2563L37.0434 11.1795L36.7744 11.1219L36.4863 11.045L36.2174 10.9682L35.9485 10.8914L35.6796 10.8337L35.3914 10.7569L35.1225 10.6801L34.8536 10.6225L34.5655 10.5648L34.2965 10.5072L34.0084 10.4304L33.7395 10.3727L33.4514 10.3343L33.1825 10.2767L33.0288 10.2383L32.0684 15.4438L32.1836 15.463L32.4333 15.5206L32.683 15.559L32.9135 15.6167L33.1632 15.6743L33.413 15.7319L33.6627 15.7895L33.8932 15.8472L34.1429 15.8856L34.3926 15.9624L34.6231 16.02L34.8728 16.0777L35.1225 16.1545L35.353 16.2121L35.5835 16.2698L35.8332 16.3466L36.0637 16.4234L36.3134 16.481L36.5439 16.5579L36.7937 16.6347L36.8897 16.6731L38.484 11.6213L38.388 11.6021L38.119 11.506Z" fill="#0C0B10"/>
<path d="M15.504 10.2189L15.2159 10.2765L14.9278 10.3342L14.6589 10.3726L14.3707 10.4302L14.1018 10.507L13.8137 10.5647L13.5448 10.6223L13.2566 10.6799L12.9877 10.7568L12.7188 10.8336L12.4499 10.8912L12.1617 10.968L11.8928 11.0449L11.6239 11.1217L11.355 11.1793L11.0861 11.2562L10.8172 11.3522L10.529 11.4291L10.2793 11.5059L10.1641 11.5443L11.7584 16.5961L11.8352 16.5577L12.0849 16.4809L12.3154 16.4233L12.5459 16.3464L12.7956 16.2696L13.0453 16.212L13.2758 16.1543L13.5256 16.0775L13.7561 16.0199L14.0058 15.9623L14.2363 15.8854L14.486 15.847L14.7357 15.7894L14.9854 15.7318L15.2159 15.6741L15.4656 15.6165L15.7153 15.5589L15.965 15.5205L16.2147 15.4628L16.4452 15.4244L16.5797 15.4052L15.6193 10.1997L15.504 10.2189Z" fill="#0C0B10"/>
<path d="M4.84055 13.5999L4.59084 13.7152L4.34113 13.8497L4.09141 13.9649L3.8417 14.0802L3.59199 14.1954L3.34228 14.3299L3.09257 14.4451L2.84286 14.5796L2.61236 14.714L2.36265 14.8485L2.11294 14.9637L1.88243 15.0982L1.63272 15.2327L1.40222 15.3671L1.15251 15.5016L0.922009 15.636L0.672298 15.7897L0.441796 15.9242L0.211294 16.0778L0 16.1931L2.78524 20.7071L2.95811 20.5918L3.16941 20.4574L3.36149 20.3421L3.57278 20.2269L3.78408 20.0924L3.99537 19.9772L4.22587 19.8619L4.43717 19.7467L4.64846 19.6314L4.85976 19.497L5.07105 19.3817L5.28234 19.2857L5.51284 19.1704L5.72414 19.0552L5.93543 18.9399L6.16593 18.8439L6.37723 18.7286L6.60773 18.6134L6.81902 18.5173L7.04953 18.4213L7.16478 18.3637L4.9558 13.5615L4.84055 13.5999Z" fill="#0C0B10"/>
</svg>
