<svg width="49" height="21" viewBox="0 0 49 21" fill="none" xmlns="http://www.w3.org/2000/svg">
<path d="M24.892 0.826172L22.5101 5.34017L20.2051 9.85418C21.857 13.0236 23.3169 15.7704 24.9496 18.8822L29.6941 9.85418L27.2546 5.34017L24.892 0.826172Z" fill="white"/>
<path d="M48.807 16.2122L48.5765 16.0777L48.346 15.9241L48.0963 15.7896L47.8658 15.6359L47.6161 15.5015L47.3856 15.367L47.1551 15.2326L46.9054 15.0981L46.6556 14.9637L46.4251 14.8484L46.1754 14.7139L45.9257 14.5795L45.6952 14.445L45.4455 14.3298L45.1958 14.1953L44.9461 14.0801L44.6964 13.9648L44.4467 13.8496L44.197 13.7151L44.0625 13.6575L41.8535 18.4788L41.9496 18.5172L42.1801 18.6133L42.3914 18.7285L42.6219 18.8438L42.8332 18.9398L43.0444 19.0551L43.2749 19.1703L43.4862 19.2856L43.6975 19.3816L43.9088 19.4969L44.1393 19.6313L44.3506 19.7466L44.5619 19.8618L44.7732 19.9771L44.9845 20.0923L45.1958 20.2268L45.4071 20.342L45.6184 20.4573L45.8297 20.5917L46.041 20.7262L46.2331 20.8415L48.9991 16.3275L48.807 16.2122Z" fill="white"/>
<path d="M38.4745 11.506L38.2056 11.4292L37.9367 11.3524L37.6678 11.2563L37.3988 11.1795L37.1299 11.1219L36.8418 11.045L36.5729 10.9682L36.3039 10.8914L36.035 10.8337L35.7469 10.7569L35.478 10.6801L35.2091 10.6225L34.9209 10.5648L34.652 10.5072L34.3639 10.4304L34.095 10.3727L33.8068 10.3343L33.5379 10.2767L33.3843 10.2383L32.4238 15.4438L32.5391 15.463L32.7888 15.5206L33.0385 15.559L33.269 15.6167L33.5187 15.6743L33.7684 15.7319L34.0181 15.7895L34.2486 15.8472L34.4983 15.8856L34.7481 15.9624L34.9786 16.02L35.2283 16.0777L35.478 16.1545L35.7085 16.2121L35.939 16.2698L36.1887 16.3466L36.4192 16.4234L36.6689 16.481L36.8994 16.5579L37.1491 16.6347L37.2452 16.6731L38.8395 11.6213L38.7434 11.6021L38.4745 11.506Z" fill="white"/>
<path d="M16.5372 10.2192L16.2491 10.2768L15.961 10.3344L15.6921 10.3728L15.4039 10.4305L15.135 10.5073L14.8469 10.5649L14.578 10.6225L14.2898 10.6802L14.0209 10.757L13.752 10.8338L13.4831 10.8915L13.195 10.9683L12.926 11.0451L12.6571 11.122L12.3882 11.1796L12.1193 11.2564L11.8504 11.3525L11.5622 11.4293L11.3125 11.5061L11.1973 11.5445L12.7916 16.5964L12.8684 16.558L13.1181 16.4811L13.3486 16.4235L13.5791 16.3467L13.8288 16.2698L14.0785 16.2122L14.309 16.1546L14.5588 16.0778L14.7893 16.0201L15.039 15.9625L15.2695 15.8857L15.5192 15.8473L15.7689 15.7896L16.0186 15.732L16.2491 15.6744L16.4988 15.6168L16.7485 15.5591L16.9982 15.5207L17.2479 15.4631L17.4785 15.4247L17.6129 15.4055L16.6525 10.2L16.5372 10.2192Z" fill="white"/>
<path d="M5.83859 13.5997L5.58888 13.7149L5.33917 13.8494L5.08946 13.9647L4.83975 14.0799L4.59004 14.1952L4.34033 14.3296L4.09062 14.4449L3.84091 14.5793L3.61041 14.7138L3.36069 14.8483L3.11098 14.9635L2.88048 15.098L2.63077 15.2324L2.40027 15.3669L2.15056 15.5013L1.92006 15.6358L1.67035 15.7895L1.43984 15.9239L1.20934 16.0776L0.998047 16.1928L3.78328 20.7068L3.95616 20.5916L4.16745 20.4571L4.35954 20.3419L4.57083 20.2266L4.78213 20.0922L4.99342 19.9769L5.22392 19.8617L5.43521 19.7464L5.64651 19.6312L5.8578 19.4967L6.0691 19.3815L6.28039 19.2854L6.51089 19.1702L6.72219 19.0549L6.93348 18.9397L7.16398 18.8436L7.37527 18.7284L7.60578 18.6131L7.81707 18.5171L8.04757 18.421L8.16282 18.3634L5.95384 13.5613L5.83859 13.5997Z" fill="white"/>
</svg>
