<svg width="234" height="62" viewBox="0 0 234 62" fill="none" xmlns="http://www.w3.org/2000/svg">
<path fill-rule="evenodd" clip-rule="evenodd" d="M75.0816 0.826172H30.5C13.6553 0.826172 0 14.4815 0 31.3262C0 48.1709 13.6553 61.8262 30.5 61.8262H75.0816V60.8262H30.5C14.2076 60.8262 1 47.6186 1 31.3262C1 15.0338 14.2076 1.82617 30.5 1.82617H75.0816V0.826172ZM160.531 60.8262H203.5C219.792 60.8262 233 47.6186 233 31.3262C233 15.0338 219.792 1.82617 203.5 1.82617H160.531V0.826172H203.5C220.345 0.826172 234 14.4815 234 31.3262C234 48.1709 220.345 61.8262 203.5 61.8262H160.531V60.8262Z" fill="#0C0B10"/>
</svg>
