<svg width="121" height="64" viewBox="0 0 121 64" fill="none" xmlns="http://www.w3.org/2000/svg">
<path d="M71.1814 24.9975V25.0792V25.1609V25.2425V25.3242L71.2638 25.4059V25.4876V25.5693V25.651L71.3463 25.7327V25.8144V25.8961V25.9778V26.0595V26.1411V26.2228H71.4288V26.3045V26.3862L72.9959 26.2228V26.1411V26.0595V25.9778V25.8961V25.8144L72.9135 25.7327V25.651V25.5693V25.4876V25.4059V25.3242L72.831 25.2425V25.1609V25.0792V24.9975L72.7485 24.9158V24.8341V24.7524V24.6707V24.589L72.666 24.5073L71.0989 24.9158V24.9975H71.1814Z" fill="#1D1D1B"/>
<path d="M72.0891 22.7917V22.71V22.6283L72.0067 22.5467V22.465L71.9242 22.3833V22.3016V22.2199L71.8417 22.1382V22.0565H71.7592V21.9748L71.6767 21.8931V21.8114L71.5942 21.7297V21.6481V21.5664L71.5118 21.4847V21.403H71.4293V21.3213L70.0271 22.1382V22.2199L70.1096 22.3016L70.1921 22.3833V22.465V22.5467L70.2745 22.6283L70.357 22.71V22.7917V22.8734L70.4395 22.9551V23.0368L70.522 23.1185V23.2002V23.2819H70.6045V23.3636V23.4453L70.6869 23.5269L72.1716 22.8734L72.0891 22.7917Z" fill="#1D1D1B"/>
<path d="M70.4387 19.8509L70.3562 19.7692V19.6875L70.2737 19.6058L70.1912 19.5241L70.1087 19.4424V19.3607L70.0263 19.279H69.9438V19.1973L69.8613 19.1156L69.7788 19.0339L69.6963 18.9523L69.6139 18.8706V18.7889H69.5314L69.4489 18.7072V18.6255H69.3664L68.2117 19.6875V19.7692H68.2942L68.3766 19.8509V19.9325H68.4591V20.0142L68.5416 20.0959H68.6241V20.1776L68.7066 20.2593L68.789 20.341L68.8715 20.4227V20.5044L68.954 20.5861L69.0365 20.6678L69.119 20.7495L69.2015 20.8311L70.5212 19.9325L70.4387 19.8509Z" fill="#1D1D1B"/>
<path d="M68.1291 17.4002H68.0466L67.9641 17.3185L67.8817 17.2368L67.7992 17.1551H67.7167L67.6342 17.0734L67.5517 16.9918L67.4692 16.9101H67.3868L67.3043 16.8284L67.2218 16.7467H67.1393L67.0568 16.665L66.9744 16.5833L66.8919 16.5016H66.8094L66.7269 16.4199L65.9021 17.8087L65.9846 17.8904H66.0671L66.1495 17.972L66.232 18.0537H66.3145V18.1354H66.397L66.4795 18.2171H66.5619V18.2988H66.6444L66.7269 18.3805L66.8094 18.4622L66.8919 18.5439L66.9744 18.6256H67.0568V18.7073H67.1393L68.1291 17.4819V17.4002Z" fill="#1D1D1B"/>
<path d="M63.3458 16.5834L63.4283 16.6651H63.5108L63.5933 16.7468H63.6758H63.7582L63.8407 16.8285H63.9232L64.0057 16.9101H64.0882H64.1707V16.9918H64.2531H64.3356L64.4181 17.0735H64.5006L65.2429 15.6031H65.1604H65.0779L64.9955 15.5214H64.913L64.8305 15.4397H64.748H64.6655L64.5831 15.358H64.5006H64.4181V15.2763H64.3356L64.2531 15.1946H64.1707H64.0882L64.0057 15.1129H63.9232H63.8407L63.7582 15.0312H63.6758H63.5933L63.0984 16.5834H63.1809H63.2633H63.3458Z" fill="#1D1D1B"/>
<path d="M60.2939 16.0116L60.3763 16.0933H60.4588H60.5413H60.6238H60.7063H60.7888H60.8712H60.9537H61.0362H61.1187L61.2012 16.175H61.2836H61.3661H61.4486H61.5311H61.6136L61.9435 14.6229H61.861H61.7785H61.6961L61.6136 14.5412H61.5311H61.4486H61.3661H61.2836H61.2012H61.1187L61.0362 14.4595H60.9537H60.8712H60.7888H60.7063H60.6238H60.5413H60.4588H60.3763H60.2939H60.2114L60.1289 16.0116H60.2114H60.2939Z" fill="#1D1D1B"/>
<path d="M81.9858 25.0792V25.2426V25.3243V25.406V25.5694V25.6511V25.7328L81.9033 25.8962V25.9778V26.1412V26.2229V26.3863L81.8208 26.468V26.6314H84.4602V26.468V26.3046L84.5427 26.2229V26.0595V25.8962V25.7328V25.6511V25.4877V25.3243L84.6252 25.1609V25.0792L81.9858 24.9976V25.0792Z" fill="#1D1D1B"/>
<path d="M81.5739 20.2593V20.4227V20.5861L81.6564 20.6678V20.8312V20.9946L81.7389 21.0762V21.2396V21.403V21.4847L81.8214 21.6481V21.8115V21.8932V22.0565V22.2199L81.9039 22.3833V22.465V22.6284L84.4608 22.3833V22.2199V22.0565V21.8932L84.3783 21.7298V21.5664V21.4847V21.3213L84.2958 21.1579V20.9946V20.8312V20.6678L84.2133 20.5044V20.341V20.2593L84.1308 20.096V19.9326L84.0484 19.7692V19.6875L81.4915 20.2593H81.5739Z" fill="#1D1D1B"/>
<path d="M80.0066 15.603L80.0891 15.7664V15.8481L80.1716 16.0115L80.254 16.0931V16.2565L80.3365 16.3382L80.419 16.5016V16.5833L80.5015 16.7467L80.584 16.8284V16.9917L80.6664 17.1551V17.2368L80.7489 17.4002V17.4819L80.8314 17.6453V17.727L80.9139 17.8903L83.3883 17.0734L83.3058 16.9917V16.8284L83.2234 16.665L83.1409 16.5016V16.4199L83.0584 16.2565V16.0931L82.9759 15.9298L82.8934 15.8481V15.6847L82.8109 15.5213L82.7285 15.3579V15.2762L82.646 15.1129L82.5635 14.9495L82.481 14.8678V14.7044L82.3985 14.541L80.0066 15.603Z" fill="#1D1D1B"/>
<path d="M77.5322 11.4369L77.6147 11.6003L77.6972 11.682L77.7797 11.7637L77.8622 11.927L77.9446 12.0087L78.0271 12.0904L78.1096 12.2538L78.1921 12.3355L78.2746 12.4172L78.357 12.5806V12.6623L78.4395 12.8256L78.522 12.9073L78.6045 12.989L78.687 13.1524L78.7694 13.2341L78.8519 13.3158V13.4792L81.0789 12.1721V12.0087L80.9964 11.927L80.914 11.7637L80.8315 11.682L80.749 11.5186L80.6665 11.3552L80.584 11.2735L80.5016 11.1101L80.4191 11.0284L80.3366 10.8651L80.2541 10.7834L80.1716 10.62L80.0891 10.5383L80.0067 10.3749L79.9242 10.2932L79.8417 10.1298L79.6767 10.0481L79.5943 9.96646V9.88477L77.5322 11.4369Z" fill="#1D1D1B"/>
<path d="M74.3158 8.00565L74.4808 8.16903L74.5633 8.25073L74.6458 8.33242L74.7282 8.41411L74.8107 8.4958L74.9757 8.57749L75.0582 8.65918L75.1407 8.74087L75.2231 8.82256L75.3056 8.98594L75.3881 9.06764L75.5531 9.14933L75.6355 9.23102L75.718 9.31271L75.8005 9.3944L75.883 9.55778H75.9655L77.8625 7.84227L77.7801 7.76058L77.6976 7.67889L77.6151 7.51551L77.4501 7.43382L77.3677 7.35212L77.2852 7.18874L77.1202 7.10705L77.0377 7.02536L76.9552 6.94367L76.8728 6.78029L76.7078 6.6986L76.6253 6.61691L76.5428 6.53522L76.3779 6.37183L76.2954 6.29014L76.2129 6.20845L76.0479 6.12676L75.9655 6.04507L75.883 5.96338L74.1509 7.92396H74.2334L74.3158 8.00565Z" fill="#1D1D1B"/>
<path d="M70.2743 5.22841L70.3568 5.3101H70.5218L70.6043 5.39179L70.7692 5.47348L70.8517 5.55518L70.9342 5.63687L71.0991 5.71856H71.1816L71.3466 5.80025L71.4291 5.88194L71.5116 5.96363L71.6765 6.04532L71.759 6.12701L71.924 6.2087L72.0064 6.29039L72.0889 6.37209H72.2539L73.6561 4.24812L73.5736 4.16643L73.4086 4.08474L73.3261 4.00305L73.1612 3.92136L73.0787 3.83967L72.9137 3.75798L72.8313 3.67628L72.6663 3.59459H72.5838L72.4189 3.5129L72.2539 3.43121L72.1714 3.34952L72.0064 3.26783L71.924 3.18614L71.759 3.10445L71.594 3.02276L71.5116 2.94107L71.3466 2.85938L70.1094 5.14672L70.2743 5.22841Z" fill="#1D1D1B"/>
<path d="M65.8202 3.43086H65.9852L66.0676 3.51255H66.2326L66.3976 3.59424H66.48L66.645 3.67593H66.7275L66.8925 3.75762H67.0574L67.1399 3.83931L67.3049 3.921H67.3873L67.5523 4.00269H67.6348L67.7997 4.08438H67.8822L68.872 1.71535H68.707L68.6246 1.63366L68.4596 1.55196H68.2946L68.1297 1.47027L68.0472 1.38858H67.8822L67.7173 1.30689H67.5523L67.4698 1.2252L67.3049 1.14351H67.1399L66.9749 1.06182H66.8925L66.7275 0.980128H66.5625L66.3976 0.898438H66.2326L65.5728 3.34917H65.7377L65.8202 3.43086Z" fill="#1D1D1B"/>
<path d="M61.0365 2.61411H61.1189H61.2839H61.4489H61.6138H61.6963H61.8613L62.0262 2.6958H62.1087H62.2737H62.4386H62.5211L62.6861 2.77749H62.8511H63.016H63.0985L63.181 2.85918L63.5934 0.326764L63.5109 0.245073H63.3459H63.181H63.0985L62.9335 0.163382H62.7686H62.6036H62.4386L62.2737 0.0816909H62.1087H61.9438H61.7788H61.6138L61.4489 0H61.3664H61.2014H61.0365H60.8715L60.7065 2.53242L60.8715 2.61411H61.0365Z" fill="#1D1D1B"/>
<path d="M76.7075 25.3241V25.4058L76.79 25.5692V25.6509V25.7326V25.896V25.9777V26.0593V26.2227L76.8725 26.3044V26.3861V26.5495V26.6312H79.0995V26.4678V26.3861V26.2227V26.141V25.9777V25.896V25.7326L79.017 25.6509V25.4875V25.4058V25.2424V25.1607L78.9345 24.9974V24.9157V24.834L76.7075 25.2424V25.3241Z" fill="#1D1D1B"/>
<path d="M75.6347 21.3213V21.4846L75.7172 21.5663V21.648L75.7997 21.7297V21.8114L75.8822 21.9748V22.0565L75.9647 22.1382V22.2199V22.3016L76.0471 22.4649V22.5466L76.1296 22.6283V22.71V22.8734L76.2121 22.9551V23.0368V23.1185L78.4391 22.5466V22.3832L78.3566 22.3016V22.1382L78.2741 22.0565V21.9748L78.1917 21.8114V21.7297L78.1092 21.648V21.4846L78.0267 21.403V21.2396V21.1579L77.9442 21.0762L77.8617 20.9128V20.8311L77.7792 20.7494V20.586L77.6968 20.5044V20.4227L77.6143 20.2593L75.5522 21.1579V21.2396L75.6347 21.3213Z" fill="#1D1D1B"/>
<path d="M73.4909 17.6452L73.5734 17.7269L73.6559 17.8086L73.7384 17.8903V17.972L73.8209 18.0537L73.9033 18.1354V18.2171L73.9858 18.2988L74.0683 18.3805L74.1508 18.4622V18.6255L74.2333 18.7072L74.3157 18.7889V18.8706L74.3982 18.9523L74.4807 19.034V19.1157L74.5632 19.1974V19.2791L76.5427 18.1354V18.0537L76.4603 17.972L76.3778 17.8903V17.8086L76.2953 17.6452L76.2128 17.5636L76.1303 17.4819L76.0478 17.4002V17.2368L75.9654 17.1551L75.8829 17.0734L75.8004 16.9917V16.91L75.7179 16.8283L75.6354 16.665L75.553 16.5833L75.4705 16.5016L75.388 16.4199V16.3382L75.3055 16.2565L75.223 16.1748L73.4084 17.4819L73.4909 17.5636V17.6452Z" fill="#1D1D1B"/>
<path d="M73.5732 14.2958L73.4908 14.2141L73.4083 14.1324L73.3258 14.0507L73.2433 13.969L73.1608 13.8873L73.0784 13.8056L72.9959 13.7239L72.9134 13.6423L72.8309 13.5606L72.7484 13.4789L72.666 13.3972L72.5835 13.3155L72.501 13.2338L72.4185 13.1521L72.336 13.0704L72.2535 12.9887L72.1711 12.907L72.0061 12.8253L71.9236 12.7437L70.439 14.4592L70.5214 14.5409L70.6039 14.6225H70.6864L70.7689 14.7042L70.8514 14.7859L70.9339 14.8676L71.0163 14.9493L71.0988 15.031H71.1813L71.2638 15.1127V15.1944L71.3463 15.2761L71.4287 15.3578L71.5112 15.4395L71.5937 15.5211H71.6762L71.7587 15.6028L71.8411 15.6845L71.9236 15.7662L72.0061 15.8479V15.9296L73.6557 14.2958H73.5732Z" fill="#1D1D1B"/>
<path d="M68.7064 10.6199H68.6239L68.459 10.5382L68.3765 10.4565H68.294L68.2115 10.3748L68.0465 10.2931H67.9641L67.8816 10.2114H67.7991L66.8093 12.2537H66.8918L66.9743 12.3354H67.0568L67.1393 12.4171H67.3042L67.3867 12.4988L67.4692 12.5805H67.5517L67.6341 12.6622H67.7166L67.7991 12.7438L67.8816 12.8255H68.0465L68.129 12.9072H68.2115L68.294 12.9889L68.3765 13.0706H68.459L68.5414 13.1523L68.6239 13.234H68.7064L69.9436 11.3551L69.8611 11.2734L69.6962 11.1917H69.6137L69.5312 11.11L69.4487 11.0283H69.3662L69.2013 10.9466L69.1188 10.865L69.0363 10.7833H68.8714L68.7889 10.7016L68.7064 10.6199Z" fill="#1D1D1B"/>
<path d="M63.4277 8.8229L63.2627 8.74121H63.1802L62.7678 10.9469H62.8503L62.9328 11.0286H63.0977H63.1802H63.2627L63.3452 11.1102H63.5102H63.5926L63.6751 11.1919H63.7576H63.9226L64.005 11.2736H64.0875H64.17L64.335 11.3553H64.4174H64.4999L64.5824 11.437H64.7474H64.8299V11.5187L65.5722 9.31305H65.4897H65.4072L65.2423 9.23136H65.1598L65.0773 9.14967H64.9123H64.8299L64.6649 9.06798H64.5824H64.4999L64.335 8.98628H64.2525L64.0875 8.90459H64.005H63.8401L63.7576 8.8229H63.6751H63.5102H63.4277Z" fill="#1D1D1B"/>
<path d="M63.3457 54.4062L63.1807 54.5696L63.0982 54.733L63.0157 54.8147L62.8508 54.9781L62.7683 55.1415L62.6858 55.2232L62.5209 55.3865L62.4384 55.5499L62.2734 55.6316L62.1909 55.795L62.1085 55.8767L62.026 56.0401L61.861 56.2035L61.7785 56.2851L61.696 56.4485L63.6756 58.0006L63.7581 57.919L63.923 57.7556L64.0055 57.6739L64.088 57.5105L64.253 57.4288L64.3354 57.2654L64.4179 57.1021L64.5829 57.0204L64.6654 56.857L64.7478 56.7753L64.9128 56.6119L64.9953 56.4485L65.0778 56.3668L65.2427 56.2035L65.3252 56.0401L63.3457 54.4062Z" fill="#1D1D1B"/>
<path d="M66.5623 50.5667L66.3973 50.7301L66.3148 50.8118L66.1499 50.9752L66.0674 51.1385L65.9024 51.3019L65.8199 51.4653L65.655 51.547L65.5725 51.7104L65.49 51.8738L65.325 52.0371L65.2426 52.2005L65.0776 52.2822L64.9951 52.4456L66.9747 54.0794L67.0572 53.916L67.2221 53.8343L67.3046 53.671L67.4696 53.5076L67.552 53.3442L67.717 53.2625L67.7995 53.0991L67.9644 52.9357L68.0469 52.7724L68.2119 52.609L68.2944 52.5273L68.4593 52.3639L68.5418 52.2005L68.6243 52.1188L66.6447 50.4033L66.5623 50.5667Z" fill="#1D1D1B"/>
<path d="M59.5518 12.4172C60.2941 11.0285 60.789 10.0482 61.6138 8.57776L60.6241 6.61717L59.6343 4.73828L58.562 6.69886L57.5723 8.65945C58.2321 9.9665 58.892 11.1102 59.5518 12.4172Z" fill="#1D1D1B"/>
<path d="M46.9314 6.37194H47.0139L47.0964 6.29025L47.2613 6.20856L47.3438 6.12686L47.5088 6.04517L47.5912 5.96348L47.6737 5.88179L47.8387 5.8001L47.9212 5.71841H48.0037L48.1686 5.63672L48.2511 5.55503L48.4161 5.47334L48.4985 5.39165L48.6635 5.30996H48.746L48.8285 5.22826H48.9109L47.6737 2.94092H47.5912L47.5088 3.02261L47.3438 3.1043L47.2613 3.18599L47.0964 3.26768L46.9314 3.34937L46.8489 3.43106L46.684 3.51275L46.6015 3.59445H46.4365L46.354 3.67614L46.1891 3.75783L46.1066 3.83952L45.9416 3.92121L45.7767 4.0029L45.6942 4.08459L45.5292 4.16628L45.4467 4.24797L45.3643 4.32966L46.8489 6.45363L46.9314 6.37194Z" fill="#1D1D1B"/>
<path d="M51.7158 18.8707H51.7983L51.8808 18.789L51.9633 18.7073H52.0457V18.6256H52.1282L52.2107 18.5439H52.2932V18.4622L52.3757 18.3805H52.4581V18.2989H52.5406L52.6231 18.2172L52.7056 18.1355H52.7881L52.8705 18.0538L52.953 17.9721L52.0457 16.665L51.9633 16.7467H51.8808V16.8284H51.7983L51.7158 16.9101H51.6333L51.5508 16.9918V17.0735H51.4684L51.3859 17.1552H51.3034L51.2209 17.2369V17.3186H51.1384L51.056 17.4003H50.9735V17.4819L50.891 17.5636H50.8085L50.726 17.6453V17.727H50.6436L51.7158 18.9524V18.8707Z" fill="#1D1D1B"/>
<path d="M50.5605 13.1524L50.6429 13.0708H50.7254L50.8079 12.9891L50.8904 12.9074H51.0554L51.1378 12.8257H51.2203L51.3028 12.744L51.3853 12.6623H51.4678L51.5502 12.5806H51.6327L51.7977 12.4989L51.8802 12.4172H51.9626L52.0451 12.3355H52.1276L52.2101 12.2538H52.2926L52.375 12.1722L51.4678 10.1299L51.3853 10.2116H51.3028L51.1378 10.2933H51.0554L50.9729 10.375L50.8079 10.4566H50.7254L50.6429 10.5383L50.5605 10.62H50.3955L50.313 10.7017L50.2305 10.7834H50.1481L49.9831 10.8651L49.9006 10.9468L49.8181 11.0285H49.7356L49.5707 11.1102L49.4882 11.1919H49.4057L49.3232 11.2736L50.478 13.2341L50.5605 13.1524Z" fill="#1D1D1B"/>
<path d="M40.2509 13.479L40.3334 13.3156V13.2339L40.4158 13.1523L40.4983 12.9889L40.5808 12.9072L40.6633 12.8255L40.7458 12.6621L40.8282 12.5804L40.9107 12.417L40.9932 12.3353V12.2537L41.0757 12.0903L41.1582 12.0086L41.2407 11.9269L41.3231 11.7635L41.4056 11.6818L41.4881 11.6001L41.5706 11.5184L39.4261 9.96631V10.048L39.3436 10.1297L39.2611 10.2931L39.1786 10.3748L39.0961 10.5381L39.0137 10.6198L38.8487 10.7832L38.7662 10.8649L38.6837 11.0283L38.6013 11.11L38.5188 11.2734L38.4363 11.3551L38.3538 11.5184L38.2713 11.6818V11.7635L38.1888 11.9269L38.1064 12.0086L38.0239 12.172L37.9414 12.2537L40.1684 13.5607L40.2509 13.479Z" fill="#1D1D1B"/>
<path d="M43.1375 9.63932L43.22 9.55763L43.3025 9.39425L43.385 9.31256L43.4675 9.23087L43.6324 9.14918L43.7149 9.06749L43.7974 8.9858L43.8799 8.82241L43.9624 8.74072L44.0448 8.65903L44.2098 8.57734L44.2923 8.49565L44.3748 8.41396L44.4572 8.33227L44.5397 8.25058L44.7047 8.16889L44.7872 8.0055L44.8697 7.92381L43.22 6.04492H43.1375L43.0551 6.12661L42.9726 6.2083L42.8076 6.28999L42.7251 6.37169L42.6427 6.53507L42.4777 6.61676L42.3952 6.69845L42.3127 6.78014L42.1478 6.94352L42.0653 7.02521L41.9828 7.1069L41.9003 7.18859L41.7354 7.35198L41.6529 7.43367L41.5704 7.51536L41.4054 7.67874L41.323 7.76043L41.2405 7.84212V7.92381L43.1375 9.63932Z" fill="#1D1D1B"/>
<path d="M47.2624 15.7664V15.6847L47.3449 15.603L47.4273 15.5213H47.5098L47.5923 15.4396L47.6748 15.3579L47.7573 15.2762L47.8397 15.1945L47.9222 15.1128L48.0047 15.0311H48.0872L48.1697 14.9495L48.2522 14.8678L48.3346 14.7861V14.7044L48.4171 14.6227H48.4996L48.5821 14.541L48.6646 14.4593L48.747 14.3776L47.3449 12.6621L47.2624 12.7438H47.1799L47.0974 12.8255L47.0149 12.9072L46.9325 12.9889L46.85 13.0706L46.7675 13.1523L46.6025 13.2339L46.52 13.3156L46.4376 13.3973L46.3551 13.479L46.2726 13.5607L46.1901 13.6424L46.1076 13.7241L46.0252 13.8058L45.9427 13.8875L45.8602 13.9692L45.7777 14.0509L45.6952 14.1325L45.6128 14.2142H45.5303L47.1799 15.8481L47.2624 15.7664Z" fill="#1D1D1B"/>
<path d="M51.2204 4.16607L51.3029 4.08438L51.4679 4.00269H51.5504L51.7153 3.921H51.8803L51.9628 3.83931L52.1277 3.75762H52.2102L52.3752 3.67593H52.4577L52.6226 3.59424H52.7876L52.8701 3.51255H53.035L53.1175 3.43086H53.2825L53.4474 3.34917L52.7876 0.898438H52.7051L52.5402 0.980128H52.3752L52.2927 1.06182H52.1277L51.9628 1.14351H51.7978L51.7153 1.2252L51.5504 1.30689H51.3854L51.2204 1.38858H51.138L50.973 1.47027L50.808 1.55196H50.6431L50.5606 1.63366L50.3956 1.71535H50.2307L50.1482 1.79704L51.138 4.16607H51.2204Z" fill="#1D1D1B"/>
<path d="M55.8397 2.85918L56.0046 2.77749H56.1696H56.2521H56.417L56.582 2.6958H56.6645H56.8294H56.9944H57.1594L57.2418 2.61411H57.4068H57.5718H57.6542H57.8192H57.9842H58.1491H58.2316H58.3141L58.1491 0H57.9842H57.8192H57.6542L57.4893 0.0816909H57.3243H57.1594H56.9944H56.8294L56.6645 0.163382H56.4995H56.3345H56.2521L56.0871 0.245073H55.9221H55.7572H55.5922L55.4272 0.326764L55.8397 2.85918Z" fill="#1D1D1B"/>
<path d="M57.2422 16.2567H57.3247H57.4072L57.4896 16.175H57.5721H57.6546H57.7371H57.8196H57.902L57.9845 16.0933H58.067H58.1495H58.232H58.3145H58.3969H58.4794H58.5619H58.6444L58.4794 14.4595H58.3969H58.3145H58.232H58.1495H58.067L57.9845 14.5412H57.902H57.8196H57.7371H57.6546H57.5721H57.4896L57.4072 14.6229H57.3247H57.2422H57.1597H57.0772H56.9948L56.9123 14.7045H56.8298H56.7473L57.1597 16.2567H57.2422Z" fill="#1D1D1B"/>
<path d="M54.4376 11.437H54.5201L54.6026 11.3553H54.6851H54.8501L54.9325 11.2736H55.015H55.0975L55.2625 11.1919H55.3449H55.4274L55.5099 11.1102H55.6749H55.7573L55.8398 11.0286H55.9223H56.0873H56.1698L56.2522 10.9469H56.4172L56.0048 8.74121H55.8398L55.7573 8.8229H55.5924H55.5099H55.3449L55.2625 8.90459H55.0975H55.015L54.9325 8.98628H54.7676L54.6851 9.06798H54.5201H54.4376L54.2727 9.14967H54.1902H54.1077L53.9428 9.23136H53.8603L53.6953 9.31305L54.3552 11.437H54.4376Z" fill="#1D1D1B"/>
<path d="M34.5601 25.4876V25.6509V25.7326V25.896V26.0594L34.6425 26.2228V26.3045V26.4678V26.6312H37.2819V26.4678V26.3862L37.1995 26.2228V26.1411V25.9777V25.896V25.8143V25.6509V25.5692L37.117 25.4059V25.3242V25.2425V25.0791L34.5601 25.2425V25.3242V25.4876Z" fill="#1D1D1B"/>
<path d="M54.2731 17.2366H54.3556V17.1549H54.4381H54.5205L54.603 17.0732H54.6855L54.768 16.9915H54.8505H54.9329L55.0154 16.9098H55.0979L55.1804 16.8282H55.2629H55.3453L55.4278 16.7465H55.5103L55.5928 16.6648H55.6753L55.0979 15.1943H55.0154H54.9329L54.8505 15.276H54.768L54.6855 15.3577H54.603H54.5205L54.4381 15.4394H54.3556H54.2731L54.1906 15.5211H54.1081L54.0256 15.6028H53.9432L53.8607 15.6845H53.7782L53.6957 15.7662H53.6132L53.5308 15.8479L54.2731 17.2366Z" fill="#1D1D1B"/>
<path d="M48.8287 19.6057V19.6874L48.7462 19.7691L48.6637 19.8507L48.5812 19.9324V20.0141L48.4987 20.0958V20.1775H48.4163V20.2592L49.736 21.1578L49.8184 21.0761V20.9944L49.9009 20.9127L49.9834 20.831V20.7493H50.0659V20.6677L50.1484 20.586L50.2309 20.5043V20.4226L50.3133 20.3409H50.3958V20.2592H50.4783V20.1775L50.5608 20.0958L50.6433 20.0141L49.406 18.9521V19.0338H49.3236L49.2411 19.1155V19.1972L49.1586 19.2789H49.0761V19.3606L48.9936 19.4423L48.9111 19.524L48.8287 19.6057Z" fill="#1D1D1B"/>
<path d="M48.3337 23.7723L48.4162 23.6906V23.6089L48.4987 23.5272V23.4455V23.3638L48.5812 23.2821V23.2004L48.6637 23.1187V23.037V22.9553H48.7462V22.8737V22.792L48.8286 22.7103V22.6286H48.9111V22.5469V22.4652L47.5089 21.73L47.4265 21.8117V21.8934L47.344 21.9751V22.0567L47.2615 22.1384V22.2201L47.179 22.3018V22.3835V22.4652L47.0965 22.5469V22.6286L47.014 22.7103V22.792V22.8737L46.9316 22.9553V23.037L46.8491 23.1187V23.2004L46.7666 23.2821L48.3337 23.8539V23.7723Z" fill="#1D1D1B"/>
<path d="M57.1597 56.612L57.0772 56.4486L56.9948 56.2852L56.8298 56.2035L56.7473 56.0401L56.6648 55.9584L56.4999 55.795L56.4174 55.6317L56.3349 55.55L56.2524 55.3866L56.0875 55.2232L56.005 55.1415L55.9225 54.9781L55.7575 54.8147L55.6751 54.7331L55.5926 54.6514L53.613 56.2852L53.778 56.4486L53.8605 56.612L53.943 56.6936L54.1079 56.857L54.1904 57.0204L54.2729 57.1021L54.4378 57.2655L54.5203 57.4289L54.6028 57.5106L54.7678 57.6739L54.8503 57.7556L54.9327 57.919L55.0152 58.0824L55.1802 58.1641V58.2458L57.2422 56.6936L57.1597 56.612Z" fill="#1D1D1B"/>
<path d="M53.9431 52.609L53.7782 52.4456L53.6957 52.2823L53.6132 52.2006L53.4483 52.0372L53.3658 51.8738L53.2008 51.7104L53.1183 51.6287L52.9534 51.4653L52.8709 51.302L52.7059 51.1386L52.6234 50.9752L52.541 50.8935L52.376 50.7301V50.6484L50.314 52.2823L50.3964 52.3639L50.4789 52.4456L50.6439 52.609L50.7264 52.7724L50.8089 52.9358L50.9738 53.0992L51.0563 53.1809L51.2213 53.3442L51.3037 53.5076L51.4687 53.671L51.5512 53.8344L51.7161 53.9161L51.7986 54.0795L51.8811 54.2428H51.9636L53.9431 52.6907V52.609Z" fill="#1D1D1B"/>
<path d="M37.1992 22.6282L37.2817 22.4648V22.3832V22.2198V22.0564V21.893L37.3642 21.8113V21.6479V21.4846V21.4029V21.2395L37.4467 21.0761V20.9944V20.831L37.5292 20.6676V20.586V20.4226L37.6117 20.3409L35.0547 19.769L34.9723 19.9324V20.0958V20.2592L34.8898 20.3409V20.5043V20.6676L34.8073 20.831V20.9944V21.1578V21.3212L34.7248 21.4846V21.5662V21.7296V21.893L34.6423 22.0564V22.2198V22.3832V22.4648L37.1992 22.7099V22.6282Z" fill="#1D1D1B"/>
<path d="M56.8298 60.2876L56.9123 60.3693L59.5517 63.5553L62.2736 60.2876L59.5517 57.8369L56.8298 60.2876Z" fill="#1D1D1B"/>
<path d="M59.5509 50.4033L58.3962 51.8738L57.2415 53.3442L58.3962 54.8963L59.5509 56.3668L60.7057 54.8963L61.8604 53.3442L60.7057 51.8738L59.6334 50.4033H59.5509Z" fill="#1D1D1B"/>
<path d="M40.1689 24.7524V24.9158V24.9975V25.1609L40.0864 25.2426V25.406V25.4877V25.651V25.7327V25.8961L40.0039 25.9778V26.1412V26.2229V26.3863V26.468V26.6313H42.2309L42.3134 26.5496V26.3863V26.3046V26.2229V26.0595V25.9778V25.8961V25.7327L42.3959 25.651V25.5694V25.406V25.3243V25.2426L42.4783 25.0792L40.1689 24.7524Z" fill="#1D1D1B"/>
<path d="M38.1885 17.8902L38.271 17.7268V17.6451L38.3535 17.4817V17.4L38.436 17.2367L38.5185 17.155V16.9916L38.601 16.8282V16.7465L38.6834 16.5831L38.7659 16.5015V16.3381L38.8484 16.2564V16.093L38.9309 16.0113L39.0134 15.8479V15.7662L39.0958 15.6845L36.7039 14.6226V14.7042L36.6214 14.8676L36.5389 14.9493L36.4564 15.1127V15.2761L36.374 15.3578L36.2915 15.5212V15.6845L36.209 15.8479L36.1265 15.9296V16.093L36.044 16.2564L35.9616 16.4198V16.5015L35.8791 16.6648V16.8282L35.7966 16.9916L35.7141 17.0733V17.155L38.1885 17.9719V17.8902Z" fill="#1D1D1B"/>
<path d="M44.6224 19.1158L44.7049 19.0341V18.9524L44.7873 18.8708L44.8698 18.7891V18.7074L44.9523 18.6257L45.0348 18.4623V18.3806L45.1173 18.2989L45.1997 18.2172L45.2822 18.1355V18.0538L45.3647 17.9722L45.4472 17.8905V17.8088L45.5297 17.7271L45.6121 17.6454L45.6946 17.5637V17.482L45.7771 17.4003L43.9625 16.0933H43.88V16.2566L43.7976 16.3383L43.7151 16.42L43.6326 16.5017L43.5501 16.5834L43.4676 16.6651V16.8285L43.3852 16.9102L43.3027 16.9919L43.2202 17.0736L43.1377 17.1552V17.2369L43.0552 17.4003L42.9727 17.482L42.8903 17.5637V17.6454L42.8078 17.8088L42.7253 17.8905L42.6428 17.9722V18.0538L44.6224 19.1975V19.1158Z" fill="#1D1D1B"/>
<path d="M42.8908 23.0369L42.9733 22.9552V22.8735V22.7102L43.0558 22.6285V22.5468L43.1383 22.4651V22.3017V22.22L43.2208 22.1383V22.0566L43.3032 21.9749V21.8116L43.3857 21.7299V21.6482V21.5665L43.4682 21.4848V21.3214L43.5507 21.2397V21.158L43.6332 21.0763L41.5711 20.1777L41.4887 20.2594L41.4062 20.4228V20.5045L41.3237 20.5862V20.7496L41.2412 20.8313V20.913L41.1587 21.0763V21.158L41.0763 21.2397V21.4031L40.9938 21.4848V21.6482L40.9113 21.7299V21.8116L40.8288 21.9749V22.0566V22.1383L40.7463 22.3017V22.3834V22.4651L42.8908 23.0369Z" fill="#1D1D1B"/>
<path d="M47.6738 26.5493V26.4677L47.7563 26.386V26.3043V26.2226V26.1409V26.0592V25.9775V25.8958L47.8388 25.8141V25.7324V25.6507V25.5691V25.4874L47.9213 25.4057V25.324V25.2423L46.3541 24.9155V24.9972L46.2716 25.0789V25.1606V25.2423V25.324V25.4057L46.1892 25.4874V25.5691V25.6507V25.7324V25.8141V25.8958L46.1067 25.9775V26.0592V26.1409V26.2226V26.3043V26.386V26.4677V26.5493V26.631H47.6738V26.5493Z" fill="#1D1D1B"/>
<path d="M119.681 38.8034L114.154 34.5555C113.412 33.9836 113.082 33.2484 113.082 32.5132C113.082 30.6343 114.814 29.8174 116.464 29.8174C118.031 29.8174 119.516 30.3892 119.516 32.1864H119.846L119.763 29.2456H118.856C118.114 29.0822 117.289 29.0005 116.299 29.0005C114.649 29.0005 113.082 29.5723 112.175 30.9611C111.185 32.5132 111.515 34.7189 112.917 35.9442L118.443 40.1105C119.103 40.6823 119.433 41.4175 119.433 42.3161C119.433 44.4401 117.454 45.3387 115.557 45.3387C113.247 45.3387 111.598 43.8682 111.927 41.4992H111.598C111.35 42.1527 111.268 42.888 111.268 43.5415C111.268 44.195 111.268 44.6852 111.35 44.8485C112.422 45.8288 114.649 46.1556 116.134 46.1556C118.691 46.1556 121 44.3584 121 41.7443C121 40.4372 120.505 39.4569 119.681 38.8034Z" fill="#1D1D1B"/>
<path d="M91.3895 45.0117C91.0596 44.7666 90.8121 44.3581 90.8121 43.9497V31.0425C90.8121 30.6341 91.0596 30.3073 91.3895 30.0622C91.8844 29.6538 92.3793 29.6538 93.0391 29.6538V29.4087H86.853V29.6538C87.5129 29.6538 88.0078 29.6538 88.5027 30.0622C88.8326 30.389 89.08 30.7157 89.08 31.1242V43.9497C89.08 44.8483 88.0902 45.4201 87.2654 45.4201H86.853V45.6652H93.1216V45.4201C92.3793 45.4201 91.8844 45.4201 91.3895 45.0117Z" fill="#1D1D1B"/>
<path d="M82.399 43.4597C81.9866 43.0512 81.4917 42.3977 80.8319 41.5808C80.172 40.7639 79.8421 40.3554 79.8421 40.3554C79.0173 39.2118 78.275 38.4765 77.6976 38.2315C80.2545 37.9864 81.9866 36.1075 81.9866 33.5751C81.9866 30.4708 79.0998 29.3271 76.3779 29.3271H69.4495V29.5722H69.8619C70.6867 29.5722 71.429 30.1441 71.429 30.961V43.8681C71.429 44.2766 71.2641 44.6034 70.9341 44.9301C70.4392 45.3386 70.0268 45.3386 69.4495 45.3386V45.5836H75.0582V45.3386C74.6458 45.3386 74.3159 45.3386 73.9035 45.1752C73.4086 44.8484 73.1611 44.44 73.1611 43.8681V30.2257H74.6458C76.1304 30.2257 77.7801 30.1441 79.0173 31.206C80.337 32.4314 80.2545 34.7187 79.3472 36.1892C79.0998 36.5159 78.6874 36.8427 78.11 37.1695C77.6976 37.4146 76.3779 37.4962 74.2334 37.4962V37.7413C75.9655 37.7413 77.3677 40.1104 78.3574 41.4174C79.3472 42.8062 80.0071 43.9498 81.4917 44.9301C82.7289 45.8287 84.2961 45.747 85.7808 45.747V45.502C84.1311 45.4203 83.3063 44.5217 82.399 43.4597Z" fill="#1D1D1B"/>
<path d="M67.5517 29.5721V26.1411C67.3867 26.2228 67.0568 26.3045 66.4794 26.4679C65.9021 26.6313 65.1597 26.713 64.2524 26.713H54.9321C54.0248 26.713 52.4576 26.5496 51.6328 26.2228V29.6538H51.8803V29.1637C51.8803 28.2651 52.5401 27.5299 53.4474 27.5299H58.6437V43.868C58.6437 44.3582 58.4788 44.685 58.0664 45.0117C57.5715 45.5019 57.1591 45.5019 56.4992 45.5019V45.7469H62.5203V45.5019H62.1904C61.2006 45.5019 60.4583 44.7666 60.4583 43.7864V27.4482H65.6546C66.5619 27.4482 67.2218 28.1834 67.2218 29.082V29.5721H67.5517Z" fill="#1D1D1B"/>
<path d="M102.525 29.3271H96.0913V29.5722H96.5037C97.3285 29.5722 98.0709 30.1441 98.0709 31.0427V43.9498C98.0709 44.3583 97.9059 44.685 97.576 45.0118C97.0811 45.4203 96.6687 45.4203 96.0913 45.4203V45.6653H101.783V45.4203C101.37 45.4203 101.04 45.4203 100.628 45.2569C100.133 45.0118 99.8854 44.5217 99.803 43.9498V30.1441H102.442C104.752 30.1441 106.814 31.206 106.814 33.7385C106.814 34.392 106.731 34.8821 106.649 35.2089C106.319 36.1892 105.742 37.0061 104.917 37.4146C103.845 38.1498 102.112 38.2315 100.875 37.9047V38.1498C101.783 38.5582 102.772 38.8033 103.762 38.8033C106.731 38.8033 108.793 36.8427 108.793 33.9018C108.793 30.5525 105.494 29.3271 102.525 29.3271Z" fill="#1D1D1B"/>
<path d="M60.3758 47.5442C60.3758 46.7273 59.7985 46.4822 58.9737 46.8907C52.6226 50.24 47.3438 44.7667 42.6424 37.0878L47.0964 30.961C47.4263 30.5525 47.8387 30.2257 48.2511 29.9807C48.911 29.5722 49.4058 29.5722 50.0657 29.5722V29.3271H43.9621V29.5722C44.3745 29.5722 44.7869 29.5722 45.1168 29.9807C45.3643 30.3074 45.5292 30.6342 45.1993 31.0427L41.9 36.0258L38.4358 31.0427C38.1884 30.6342 38.2709 30.3891 38.5183 29.9807C38.7658 29.5722 39.2606 29.5722 39.6731 29.5722V29.3271H33.2395V29.5722H33.5694C34.5592 29.5722 35.6315 30.1441 36.2088 30.961L40.8278 37.5779L35.714 44.1132C34.8067 45.1752 34.0643 45.4203 32.7446 45.4203V45.6653H38.7658V45.4203C38.3534 45.4203 37.8585 45.4203 37.611 45.0118C37.3636 44.6033 37.1986 44.2766 37.5285 43.8681L41.5701 38.4765C49.4058 49.7499 60.4583 50.6485 60.3758 47.5442Z" fill="#1D1D1B"/>
<path d="M7.83572 44.8484H3.87662V28.5919C3.87662 28.2652 3.9591 28.0201 4.12406 27.6933C4.61895 26.8764 5.19632 26.8764 6.02113 26.8764V26.6313H0V26.8764H0.329925C1.3197 26.8764 2.06203 27.6116 2.06203 28.5919V43.7048C2.06203 44.685 1.23722 45.4203 0.329925 45.4203H0V45.6653H11.3824L12.9496 41.254H12.7021C11.7948 43.6231 10.4751 44.8484 7.83572 44.8484Z" fill="#1D1D1B"/>
<path d="M27.3839 29.6538H27.7963C28.5386 29.6538 29.116 30.1439 29.116 30.7974V39.9468C29.116 43.2962 26.9715 45.3384 23.5897 45.3384C20.043 45.3384 18.3934 42.9694 18.3934 39.6201V30.7974C18.3934 30.4707 18.5584 30.2256 18.8058 29.9805C19.2182 29.5721 19.6306 29.6538 20.1255 29.6538V29.4087H14.9292V29.6538C15.4241 29.6538 15.8365 29.6538 16.2489 29.9805C16.4963 30.2256 16.6613 30.4707 16.6613 30.7974V39.9468C16.6613 44.0314 19.6306 46.0736 23.5072 46.0736C27.3839 46.0736 30.3532 44.0314 30.3532 39.9468V30.7974C30.3532 30.5524 30.4357 30.389 30.5182 30.2256C30.9306 29.6538 31.4255 29.6538 32.0853 29.6538V29.4087H27.3839V29.6538Z" fill="#1D1D1B"/>
</svg>
