<svg width="52" height="45" viewBox="0 0 52 45" fill="none" xmlns="http://www.w3.org/2000/svg">
<path d="M35.8516 36.5469L39.7711 39.1952L41.8897 43.4325" stroke="#79655E" stroke-width="2" stroke-miterlimit="10" stroke-linecap="round"/>
<path d="M16.1476 36.5469L12.228 39.1952L10.1094 43.4325" stroke="#79655E" stroke-width="2" stroke-miterlimit="10" stroke-linecap="round"/>
<path d="M26 9.53398V0" stroke="#79655E" stroke-width="2" stroke-miterlimit="10"/>
<path d="M26 32.8392V19.0679" stroke="#79655E" stroke-width="2" stroke-miterlimit="10"/>
<path d="M37.2293 27.9663L35.9581 29.2375C34.3691 30.8265 32.2504 31.674 29.9199 31.674H22.0809C19.8563 31.674 17.6317 30.8265 16.0427 29.2375L14.7715 27.9663" stroke="#79655E" stroke-width="2" stroke-miterlimit="10"/>
<path d="M15.0879 22.1397L16.3591 20.021C17.1006 18.7498 18.4777 18.0083 19.9608 18.0083H32.1431C33.6262 18.0083 35.0033 18.7498 35.7448 20.021L37.016 22.1397" stroke="#79655E" stroke-width="2" stroke-miterlimit="10"/>
<path d="M30.4489 12.7119H21.4446C18.0548 12.7119 15.1946 15.3602 15.0887 18.856L14.559 31.4621C14.3471 36.2291 18.2666 40.2545 23.0336 40.2545H28.754C33.521 40.2545 37.4405 36.2291 37.2287 31.4621L36.699 18.856C36.699 15.3602 33.9447 12.7119 30.4489 12.7119Z" stroke="#79655E" stroke-width="2" stroke-miterlimit="10"/>
<path d="M36.5938 23.3052H42.9497" stroke="#79655E" stroke-width="2" stroke-miterlimit="10"/>
<path d="M15.4068 23.3052H9.05078" stroke="#79655E" stroke-width="2" stroke-miterlimit="10"/>
<path d="M51.0007 7.7331C42.9498 4.2373 28.8607 4.2373 28.1191 4.2373" stroke="#79655E" stroke-width="2" stroke-miterlimit="10"/>
<path d="M1 7.7331C9.05092 4.2373 23.14 4.2373 23.8815 4.2373" stroke="#79655E" stroke-width="2" stroke-miterlimit="10"/>
<path d="M30.2364 12.7119C30.2364 10.3814 28.3296 8.47461 25.999 8.47461C23.6685 8.47461 21.7617 10.3814 21.7617 12.7119" stroke="#79655E" stroke-width="2" stroke-miterlimit="10"/>
</svg>
