<svg width="44" height="63" viewBox="0 0 44 63" fill="none" xmlns="http://www.w3.org/2000/svg">
<path d="M26.7988 43.2351L28.6612 44.4837L29.6678 46.4814" stroke="#79655E" stroke-width="2" stroke-miterlimit="10" stroke-linecap="round"/>
<path d="M17.4374 43.2354L15.575 44.4839L14.5684 46.4816" stroke="#79655E" stroke-width="2" stroke-miterlimit="10" stroke-linecap="round"/>
<path d="M22.1191 30.4995V26.0046" stroke="#79655E" stroke-width="2" stroke-miterlimit="10"/>
<path d="M22.1191 41.487V34.9944" stroke="#79655E" stroke-width="2" stroke-miterlimit="10"/>
<path d="M27.4539 39.1897L26.8499 39.789C26.0949 40.5382 25.0882 40.9377 23.9809 40.9377H20.2562C19.1992 40.9377 18.1422 40.5382 17.3872 39.789L16.7832 39.1897" stroke="#79655E" stroke-width="2" stroke-miterlimit="10"/>
<path d="M16.9336 36.4426L17.5376 35.4438C17.8899 34.8445 18.5443 34.4949 19.2489 34.4949H25.0373C25.7419 34.4949 26.3963 34.8445 26.7486 35.4438L27.3526 36.4426" stroke="#79655E" stroke-width="2" stroke-miterlimit="10"/>
<path d="M24.2336 31.9978H19.9552C18.3446 31.9978 16.9856 33.2464 16.9353 34.8945L16.6836 40.8377C16.5829 43.0852 18.4453 44.983 20.7102 44.983H23.4282C25.6932 44.983 27.5556 43.0852 27.4549 40.8377L27.2032 34.8945C27.2032 33.2464 25.8946 31.9978 24.2336 31.9978Z" stroke="#79655E" stroke-width="2" stroke-miterlimit="10"/>
<path d="M27.1523 36.9919H30.1723" stroke="#79655E" stroke-width="2" stroke-miterlimit="10"/>
<path d="M17.0864 36.9919H14.0664" stroke="#79655E" stroke-width="2" stroke-miterlimit="10"/>
<path d="M33.997 29.6506C30.1717 28.0024 23.4773 28.0024 23.125 28.0024" stroke="#79655E" stroke-width="2" stroke-miterlimit="10"/>
<path d="M10.2402 29.6506C14.0656 28.0024 20.7599 28.0024 21.1122 28.0024" stroke="#79655E" stroke-width="2" stroke-miterlimit="10"/>
<path d="M24.1321 31.9977C24.1321 30.899 23.2261 30 22.1188 30C21.0115 30 20.1055 30.899 20.1055 31.9977" stroke="#79655E" stroke-width="2" stroke-miterlimit="10"/>
<path d="M33.596 5.90044V4.53907C33.596 2.55375 32.5575 1.19239 31.1152 1.02222" stroke="#79655E" stroke-width="2" stroke-miterlimit="10" stroke-linecap="round" stroke-linejoin="round"/>
<path d="M31.1154 1.02225C30.8269 0.965529 30.4808 1.02225 30.1346 1.1357L24.25 2.78068" stroke="#79655E" stroke-width="2" stroke-miterlimit="10" stroke-linecap="round" stroke-linejoin="round"/>
<path d="M24.25 2.78076L1 9.13379V62.0001" stroke="#79655E" stroke-width="2" stroke-miterlimit="10" stroke-linecap="round" stroke-linejoin="round"/>
<path d="M1 61.9996H38.5577C40.9808 61.9996 43 60.071 43 57.6319V13.501C43 11.5157 41.6731 9.8707 39.8269 9.30347" stroke="#79655E" stroke-width="2" stroke-miterlimit="10" stroke-linecap="round" stroke-linejoin="round"/>
<path d="M39.826 9.30347C39.4222 9.19002 39.0183 9.1333 38.5568 9.1333H30.9414" stroke="#79655E" stroke-width="2" stroke-miterlimit="10" stroke-linecap="round" stroke-linejoin="round"/>
<path d="M30.9423 9.13354H1V61.9998" stroke="#79655E" stroke-width="2" stroke-miterlimit="10" stroke-linecap="round" stroke-linejoin="round"/>
</svg>
