<svg width="52" height="52" viewBox="0 0 52 52" fill="none" xmlns="http://www.w3.org/2000/svg">
<path d="M26 51C39.8071 51 51 39.8071 51 26C51 12.1929 39.8071 1 26 1C12.1929 1 1 12.1929 1 26C1 39.8071 12.1929 51 26 51Z" stroke="#79655E" stroke-width="2" stroke-miterlimit="10" stroke-linecap="round" stroke-linejoin="round"/>
<path d="M34.6875 6.5625C38.125 11.125 40.3125 18.1875 40.3125 26C40.3125 34 38 41.1875 34.4375 45.75" stroke="#79655E" stroke-width="2" stroke-miterlimit="10" stroke-linecap="round" stroke-linejoin="round"/>
<path d="M17.5 45.75C13.9375 41.1875 11.625 34.0625 11.625 26C11.625 18.125 13.8125 11.125 17.25 6.5625" stroke="#79655E" stroke-width="2" stroke-miterlimit="10" stroke-linecap="round" stroke-linejoin="round"/>
<path d="M26 38.5V47.75" stroke="#79655E" stroke-width="2" stroke-miterlimit="10" stroke-linecap="round" stroke-linejoin="round"/>
<path d="M26 4.25V13.5" stroke="#79655E" stroke-width="2" stroke-miterlimit="10" stroke-linecap="round" stroke-linejoin="round"/>
<path d="M36.625 26H47.75" stroke="#79655E" stroke-width="2" stroke-miterlimit="10" stroke-linecap="round" stroke-linejoin="round"/>
<path d="M4.25 26H15.375" stroke="#79655E" stroke-width="2" stroke-miterlimit="10" stroke-linecap="round" stroke-linejoin="round"/>
<path d="M9.625 11.625H42.375" stroke="#79655E" stroke-width="2" stroke-miterlimit="10" stroke-linecap="round" stroke-linejoin="round"/>
<path d="M9.625 40.375H42.375" stroke="#79655E" stroke-width="2" stroke-miterlimit="10" stroke-linecap="round" stroke-linejoin="round"/>
<path d="M27.7695 30.3614L27.7695 30.3614L27.7679 30.3644L25.9964 33.6078L24.2106 30.3644L24.209 30.3614L21.8275 26.001L26.0007 18.391C26.2459 18.8373 26.4834 19.2695 26.7166 19.6937C27.8521 21.7594 28.8822 23.6334 30.1722 25.9977L27.7695 30.3614Z" stroke="#79655E" stroke-width="2"/>
</svg>
