<svg width="49" height="21" viewBox="0 0 49 21" fill="none" xmlns="http://www.w3.org/2000/svg">
<path d="M24.8927 0L22.5108 4.514L20.2058 9.028C21.8577 12.1974 23.3176 14.9442 24.9503 18.056L29.6948 9.028L27.2553 4.514L24.8927 0Z" fill="white"/>
<path d="M48.808 15.3862L48.5775 15.2517L48.347 15.098L48.0973 14.9636L47.8668 14.8099L47.617 14.6754L47.3865 14.541L47.156 14.4065L46.9063 14.2721L46.6566 14.1376L46.4261 14.0223L46.1764 13.8879L45.9267 13.7534L45.6962 13.619L45.4465 13.5037L45.1968 13.3693L44.9471 13.254L44.6974 13.1388L44.4476 13.0235L44.1979 12.889L44.0635 12.8314L41.8545 17.6528L41.9505 17.6912L42.181 17.7872L42.3923 17.9025L42.6228 18.0177L42.8341 18.1138L43.0454 18.229L43.2759 18.3443L43.4872 18.4595L43.6985 18.5556L43.9098 18.6708L44.1403 18.8053L44.3516 18.9205L44.5629 19.0358L44.7742 19.151L44.9855 19.2663L45.1968 19.4007L45.4081 19.516L45.6194 19.6312L45.8307 19.7657L46.042 19.9002L46.234 20.0154L49.0001 15.5014L48.808 15.3862Z" fill="white"/>
<path d="M38.4745 10.6799L38.2056 10.603L37.9367 10.5262L37.6678 10.4302L37.3988 10.3533L37.1299 10.2957L36.8418 10.2189L36.5729 10.142L36.3039 10.0652L36.035 10.0076L35.7469 9.93074L35.478 9.85391L35.2091 9.79628L34.9209 9.73865L34.652 9.68103L34.3639 9.60419L34.095 9.54657L33.8068 9.50815L33.5379 9.45053L33.3843 9.41211L32.4238 14.6176L32.5391 14.6368L32.7888 14.6945L33.0385 14.7329L33.269 14.7905L33.5187 14.8481L33.7684 14.9057L34.0181 14.9634L34.2486 15.021L34.4983 15.0594L34.7481 15.1362L34.9786 15.1939L35.2283 15.2515L35.478 15.3283L35.7085 15.386L35.939 15.4436L36.1887 15.5204L36.4192 15.5973L36.6689 15.6549L36.8994 15.7317L37.1491 15.8085L37.2452 15.847L38.8395 10.7951L38.7434 10.7759L38.4745 10.6799Z" fill="white"/>
<path d="M16.5375 9.39287L16.2494 9.45049L15.9612 9.50812L15.6923 9.54653L15.4042 9.60416L15.1353 9.68099L14.8471 9.73862L14.5782 9.79624L14.2901 9.85387L14.0212 9.9307L13.7522 10.0075L13.4833 10.0652L13.1952 10.142L12.9263 10.2188L12.6574 10.2957L12.3884 10.3533L12.1195 10.4301L11.8506 10.5262L11.5625 10.603L11.3128 10.6798L11.1975 10.7183L12.7918 15.7701L12.8687 15.7317L13.1184 15.6548L13.3489 15.5972L13.5794 15.5204L13.8291 15.4435L14.0788 15.3859L14.3093 15.3283L14.559 15.2515L14.7895 15.1938L15.0392 15.1362L15.2697 15.0594L15.5194 15.021L15.7691 14.9633L16.0188 14.9057L16.2494 14.8481L16.4991 14.7905L16.7488 14.7328L16.9985 14.6944L17.2482 14.6368L17.4787 14.5984L17.6132 14.5792L16.6527 9.37366L16.5375 9.39287Z" fill="white"/>
<path d="M5.83859 12.7736L5.58888 12.8889L5.33917 13.0234L5.08946 13.1386L4.83975 13.2539L4.59004 13.3691L4.34033 13.5036L4.09062 13.6188L3.84091 13.7533L3.61041 13.8877L3.36069 14.0222L3.11098 14.1375L2.88048 14.2719L2.63077 14.4064L2.40027 14.5408L2.15056 14.6753L1.92006 14.8097L1.67035 14.9634L1.43984 15.0979L1.20934 15.2515L0.998047 15.3668L3.78328 19.8808L3.95616 19.7655L4.16745 19.6311L4.35954 19.5158L4.57083 19.4006L4.78212 19.2661L4.99342 19.1509L5.22392 19.0356L5.43521 18.9204L5.64651 18.8051L5.8578 18.6707L6.0691 18.5554L6.28039 18.4594L6.51089 18.3441L6.72219 18.2289L6.93348 18.1136L7.16398 18.0176L7.37527 17.9023L7.60578 17.7871L7.81707 17.691L8.04757 17.595L8.16282 17.5374L5.95384 12.7352L5.83859 12.7736Z" fill="white"/>
</svg>
