<svg width="18" height="12" viewBox="0 0 18 12" fill="none" xmlns="http://www.w3.org/2000/svg">
<path d="M7.95293 8.77567L7.95365 8.77712L9.00181 10.882L10.0585 8.77712L10.0592 8.77567L11.4412 6.00045L8.99968 1.11738C8.84418 1.42779 8.69426 1.72692 8.54746 2.01983C7.89543 3.32084 7.30484 4.49927 6.55893 5.99893L7.95293 8.77567Z" stroke="#0C0B10"/>
<path d="M1.4509 7.77567L1.4509 7.77567L1.45162 7.77712L2.00181 8.88197L2.55647 7.77712L2.5572 7.77567L3.44121 6.00045L1.99963 3.11729C1.94814 3.22004 1.89742 3.32125 1.84724 3.42136C1.42345 4.26696 1.03871 5.03464 0.558941 5.99894L1.4509 7.77567Z" stroke="#0C0B10"/>
<path d="M15.4509 7.77567L15.4509 7.77567L15.4516 7.77712L16.0018 8.88197L16.5565 7.77712L16.5572 7.77567L17.4412 6.00045L15.9996 3.11729C15.9481 3.22004 15.8974 3.32125 15.8472 3.42136C15.4235 4.26696 15.0387 5.03464 14.5589 5.99894L15.4509 7.77567Z" stroke="#0C0B10"/>
</svg>
