<svg width="16" height="16" viewBox="0 0 16 16" fill="none" xmlns="http://www.w3.org/2000/svg">
<path d="M4.78585 9.1811C5.22637 9.1811 5.58349 8.82862 5.58349 8.39382C5.58349 7.95901 5.22637 7.60653 4.78585 7.60653C4.34532 7.60653 3.98821 7.95901 3.98821 8.39382C3.98821 8.82862 4.34532 9.1811 4.78585 9.1811Z" fill="#79655E"/>
<path d="M8.77405 8.39382C8.77405 8.82862 8.41694 9.1811 7.97641 9.1811C7.53589 9.1811 7.17877 8.82862 7.17877 8.39382C7.17877 7.95901 7.53589 7.60653 7.97641 7.60653C8.41694 7.60653 8.77405 7.95901 8.77405 8.39382Z" fill="#79655E"/>
<path d="M11.167 9.1811C11.6075 9.1811 11.9646 8.82862 11.9646 8.39382C11.9646 7.95901 11.6075 7.60653 11.167 7.60653C10.7264 7.60653 10.3693 7.95901 10.3693 8.39382C10.3693 8.82862 10.7264 9.1811 11.167 9.1811Z" fill="#79655E"/>
<path d="M5.58349 11.5429C5.58349 11.9777 5.22637 12.3302 4.78585 12.3302C4.34532 12.3302 3.98821 11.9777 3.98821 11.5429C3.98821 11.1081 4.34532 10.7557 4.78585 10.7557C5.22637 10.7557 5.58349 11.1081 5.58349 11.5429Z" fill="#79655E"/>
<path d="M7.97641 12.3302C8.41694 12.3302 8.77405 11.9777 8.77405 11.5429C8.77405 11.1081 8.41694 10.7557 7.97641 10.7557C7.53589 10.7557 7.17877 11.1081 7.17877 11.5429C7.17877 11.9777 7.53589 12.3302 7.97641 12.3302Z" fill="#79655E"/>
<path fill-rule="evenodd" clip-rule="evenodd" d="M4.78585 1.30828C4.78585 0.873474 4.42873 0.520996 3.98821 0.520996C3.54768 0.520996 3.19056 0.873474 3.19056 1.30828H1.59528C0.714232 1.30828 0 2.01323 0 2.88284V13.9048C0 14.7744 0.714233 15.4794 1.59528 15.4794H14.3575C15.2386 15.4794 15.9528 14.7744 15.9528 13.9048V2.88284C15.9528 2.01323 15.2386 1.30828 14.3575 1.30828H12.7623C12.7623 0.873474 12.4051 0.520996 11.9646 0.520996C11.5241 0.520996 11.167 0.873474 11.167 1.30828H4.78585ZM1.59528 4.45741V2.88284H14.3575V4.45741H1.59528ZM1.59528 6.03197V13.9048H9.70857L14.3575 9.3162V6.03197H1.59528ZM14.3575 11.543L11.9646 13.9048H14.3575V11.543Z" fill="#79655E"/>
</svg>
