<svg width="15" height="16" viewBox="0 0 15 16" fill="none" xmlns="http://www.w3.org/2000/svg">
<path d="M1.66667 16H0V15.1579C0.00367386 11.9039 2.6132 9.26687 5.83333 9.26316H9.16667C12.3868 9.26687 14.9963 11.9039 15 15.1579V16H13.3333V15.1579C13.3306 12.8336 11.4667 10.9502 9.16667 10.9474H5.83333C3.53329 10.9502 1.66942 12.8336 1.66667 15.1579V16ZM7.5 8.42105C5.19881 8.42105 3.33333 6.53594 3.33333 4.21053C3.33333 1.88512 5.19881 0 7.5 0C9.80119 0 11.6667 1.88512 11.6667 4.21053C11.6639 6.53478 9.80004 8.41827 7.5 8.42105ZM7.5 1.68421C6.11929 1.68421 5 2.81528 5 4.21053C5 5.60577 6.11929 6.73684 7.5 6.73684C8.88071 6.73684 10 5.60577 10 4.21053C10 2.81528 8.88071 1.68421 7.5 1.68421Z" fill="#79655E"/>
</svg>
