<svg width="280" height="78" viewBox="0 0 280 78" fill="none" xmlns="http://www.w3.org/2000/svg">
<path fill-rule="evenodd" clip-rule="evenodd" d="M98.0816 17H30.5C13.6553 17 0 30.6553 0 47.5C0 64.3447 13.6553 78 30.5 78H98.0816V77H30.5C14.2076 77 1 63.7924 1 47.5C1 31.2076 14.2076 18 30.5 18H98.0816V17ZM183.531 77H249.5C265.792 77 279 63.7924 279 47.5C279 31.2076 265.792 18 249.5 18H183.531V17H249.5C266.345 17 280 30.6553 280 47.5C280 64.3447 266.345 78 249.5 78H183.531V77Z" fill="white"/>
<path d="M139.267 0L136.885 4.514L134.58 9.028C136.232 12.1974 137.692 14.9442 139.325 18.056L144.069 9.028L141.63 4.514L139.267 0Z" fill="white"/>
<path d="M163.438 15.386L163.207 15.2516L162.977 15.0979L162.727 14.9634L162.497 14.8098L162.247 14.6753L162.016 14.5409L161.786 14.4064L161.536 14.2719L161.287 14.1375L161.056 14.0222L160.806 13.8878L160.557 13.7533L160.326 13.6188L160.076 13.5036L159.827 13.3691L159.577 13.2539L159.327 13.1386L159.078 13.0234L158.828 12.8889L158.693 12.8313L156.484 17.6526L156.58 17.6911L156.811 17.7871L157.022 17.9023L157.253 18.0176L157.464 18.1136L157.675 18.2289L157.906 18.3441L158.117 18.4594L158.328 18.5554L158.54 18.6707L158.77 18.8051L158.981 18.9204L159.193 19.0357L159.404 19.1509L159.615 19.2662L159.827 19.4006L160.038 19.5159L160.249 19.6311L160.461 19.7656L160.672 19.9L160.864 20.0153L163.63 15.5013L163.438 15.386Z" fill="white"/>
<path d="M153.119 10.6799L152.85 10.603L152.581 10.5262L152.312 10.4302L152.043 10.3533L151.774 10.2957L151.486 10.2189L151.217 10.142L150.948 10.0652L150.68 10.0076L150.391 9.93074L150.123 9.85391L149.854 9.79628L149.565 9.73865L149.297 9.68103L149.008 9.60419L148.739 9.54657L148.451 9.50815L148.182 9.45053L148.029 9.41211L147.068 14.6176L147.184 14.6368L147.433 14.6945L147.683 14.7329L147.914 14.7905L148.163 14.8481L148.413 14.9057L148.663 14.9634L148.893 15.021L149.143 15.0594L149.393 15.1362L149.623 15.1939L149.873 15.2515L150.123 15.3283L150.353 15.386L150.584 15.4436L150.833 15.5204L151.064 15.5973L151.313 15.6549L151.544 15.7317L151.794 15.8085L151.89 15.847L153.484 10.7951L153.388 10.7759L153.119 10.6799Z" fill="white"/>
<path d="M130.504 9.39299L130.216 9.45061L129.928 9.50824L129.659 9.54666L129.371 9.60428L129.102 9.68112L128.814 9.73874L128.545 9.79637L128.257 9.85399L127.988 9.93083L127.719 10.0077L127.45 10.0653L127.162 10.1421L126.893 10.219L126.624 10.2958L126.355 10.3534L126.086 10.4302L125.817 10.5263L125.529 10.6031L125.279 10.68L125.164 10.7184L126.758 15.7702L126.835 15.7318L127.085 15.655L127.315 15.5973L127.546 15.5205L127.796 15.4437L128.045 15.386L128.276 15.3284L128.526 15.2516L128.756 15.194L129.006 15.1363L129.236 15.0595L129.486 15.0211L129.736 14.9635L129.985 14.9058L130.216 14.8482L130.466 14.7906L130.715 14.733L130.965 14.6945L131.215 14.6369L131.445 14.5985L131.58 14.5793L130.619 9.37378L130.504 9.39299Z" fill="white"/>
<path d="M119.841 12.7736L119.591 12.8889L119.341 13.0234L119.091 13.1386L118.842 13.2539L118.592 13.3691L118.342 13.5036L118.093 13.6188L117.843 13.7533L117.612 13.8877L117.363 14.0222L117.113 14.1375L116.882 14.2719L116.633 14.4064L116.402 14.5408L116.153 14.6753L115.922 14.8097L115.672 14.9634L115.442 15.0979L115.211 15.2515L115 15.3668L117.785 19.8808L117.958 19.7655L118.169 19.6311L118.361 19.5158L118.573 19.4006L118.784 19.2661L118.995 19.1509L119.226 19.0356L119.437 18.9204L119.648 18.8051L119.86 18.6707L120.071 18.5554L120.282 18.4594L120.513 18.3441L120.724 18.2289L120.935 18.1136L121.166 18.0176L121.377 17.9023L121.608 17.7871L121.819 17.691L122.05 17.595L122.165 17.5374L119.956 12.7352L119.841 12.7736Z" fill="white"/>
</svg>
