<svg width="234" height="79" viewBox="0 0 234 79" fill="none" xmlns="http://www.w3.org/2000/svg">
<path fill-rule="evenodd" clip-rule="evenodd" d="M75.0816 17.1353H30.5C13.6553 17.1353 0 30.7906 0 47.6353C0 64.4799 13.6553 78.1353 30.5 78.1353H75.0816V77.1353H30.5C14.2076 77.1353 1 63.9277 1 47.6353C1 31.3429 14.2076 18.1353 30.5 18.1353H75.0816V17.1353ZM160.531 77.1353H203.5C219.792 77.1353 233 63.9277 233 47.6353C233 31.3429 219.792 18.1353 203.5 18.1353H160.531V17.1353H203.5C220.345 17.1353 234 30.7906 234 47.6353C234 64.4799 220.345 78.1353 203.5 78.1353H160.531V77.1353Z" fill="#0C0B10"/>
<path d="M116.267 0.135254L113.885 4.64926L111.58 9.16326C113.232 12.3327 114.692 15.0795 116.325 18.1913L121.069 9.16326L118.63 4.64926L116.267 0.135254Z" fill="#0C0B10"/>
<path d="M140.438 15.5213L140.207 15.3868L139.977 15.2332L139.727 15.0987L139.497 14.945L139.247 14.8106L139.016 14.6761L138.786 14.5417L138.536 14.4072L138.287 14.2727L138.056 14.1575L137.806 14.023L137.557 13.8886L137.326 13.7541L137.076 13.6389L136.827 13.5044L136.577 13.3891L136.327 13.2739L136.078 13.1586L135.828 13.0242L135.693 12.9666L133.484 17.7879L133.58 17.8263L133.811 17.9224L134.022 18.0376L134.253 18.1529L134.464 18.2489L134.675 18.3641L134.906 18.4794L135.117 18.5946L135.328 18.6907L135.54 18.8059L135.77 18.9404L135.981 19.0557L136.193 19.1709L136.404 19.2862L136.615 19.4014L136.827 19.5359L137.038 19.6511L137.249 19.7664L137.461 19.9008L137.672 20.0353L137.864 20.1505L140.63 15.6365L140.438 15.5213Z" fill="#0C0B10"/>
<path d="M130.119 10.8151L129.85 10.7383L129.581 10.6615L129.312 10.5654L129.043 10.4886L128.774 10.431L128.486 10.3541L128.217 10.2773L127.948 10.2005L127.68 10.1428L127.391 10.066L127.123 9.98916L126.854 9.93153L126.565 9.87391L126.297 9.81628L126.008 9.73945L125.739 9.68182L125.451 9.64341L125.182 9.58578L125.029 9.54736L124.068 14.7529L124.184 14.7721L124.433 14.8297L124.683 14.8681L124.914 14.9257L125.163 14.9834L125.413 15.041L125.663 15.0986L125.893 15.1563L126.143 15.1947L126.393 15.2715L126.623 15.3291L126.873 15.3868L127.123 15.4636L127.353 15.5212L127.584 15.5788L127.833 15.6557L128.064 15.7325L128.313 15.7901L128.544 15.867L128.794 15.9438L128.89 15.9822L130.484 10.9304L130.388 10.9112L130.119 10.8151Z" fill="#0C0B10"/>
<path d="M107.504 9.52824L107.216 9.58587L106.928 9.64349L106.659 9.68191L106.371 9.73954L106.102 9.81637L105.814 9.874L105.545 9.93162L105.257 9.98925L104.988 10.0661L104.719 10.1429L104.45 10.2005L104.162 10.2774L103.893 10.3542L103.624 10.431L103.355 10.4887L103.086 10.5655L102.817 10.6615L102.529 10.7384L102.279 10.8152L102.164 10.8536L103.758 15.9055L103.835 15.8671L104.085 15.7902L104.315 15.7326L104.546 15.6558L104.796 15.5789L105.045 15.5213L105.276 15.4637L105.526 15.3868L105.756 15.3292L106.006 15.2716L106.236 15.1948L106.486 15.1563L106.736 15.0987L106.985 15.0411L107.216 14.9835L107.466 14.9258L107.715 14.8682L107.965 14.8298L108.215 14.7722L108.445 14.7337L108.58 14.7145L107.619 9.50903L107.504 9.52824Z" fill="#0C0B10"/>
<path d="M96.8405 12.9088L96.5908 13.024L96.3411 13.1585L96.0914 13.2737L95.8417 13.389L95.592 13.5042L95.3423 13.6387L95.0926 13.754L94.8429 13.8884L94.6124 14.0229L94.3626 14.1573L94.1129 14.2726L93.8824 14.407L93.6327 14.5415L93.4022 14.676L93.1525 14.8104L92.922 14.9449L92.6723 15.0985L92.4418 15.233L92.2113 15.3867L92 15.5019L94.7852 20.0159L94.9581 19.9007L95.1694 19.7662L95.3615 19.651L95.5728 19.5357L95.7841 19.4013L95.9954 19.286L96.2259 19.1708L96.4372 19.0555L96.6485 18.9403L96.8598 18.8058L97.071 18.6905L97.2823 18.5945L97.5128 18.4792L97.7241 18.364L97.9354 18.2487L98.1659 18.1527L98.3772 18.0375L98.6077 17.9222L98.819 17.8262L99.0495 17.7301L99.1648 17.6725L96.9558 12.8704L96.8405 12.9088Z" fill="#0C0B10"/>
</svg>
