<svg width="36" height="15" viewBox="0 0 36 15" fill="none" xmlns="http://www.w3.org/2000/svg">
<path d="M17.921 14.8921L16.1636 11.5616L14.4629 8.23107C15.6817 5.89263 16.7588 3.86598 17.9635 1.57005L21.464 8.23107L19.6642 11.5616L17.921 14.8921Z" fill="#0C0B10"/>
<path d="M35.5659 3.53988L35.3959 3.63908L35.2258 3.75246L35.0416 3.85167L34.8715 3.96505L34.6873 4.06426L34.5172 4.16346L34.3471 4.26267L34.1629 4.36188L33.9786 4.46108L33.8086 4.54612L33.6243 4.64532L33.4401 4.74453L33.27 4.84374L33.0858 4.92877L32.9015 5.02798L32.7173 5.11301L32.5331 5.19805L32.3488 5.28308L32.1646 5.38229L32.0654 5.4248L30.4355 1.86754L30.5064 1.83919L30.6765 1.76833L30.8324 1.6833L31.0024 1.59826L31.1583 1.5274L31.3142 1.44236L31.4843 1.35733L31.6402 1.2723L31.7961 1.20143L31.952 1.1164L32.1221 1.01719L32.278 0.932158L32.4339 0.847125L32.5897 0.76209L32.7456 0.677056L32.9015 0.577849L33.0574 0.492815L33.2133 0.40778L33.3692 0.308574L33.5251 0.209368L33.6668 0.124333L35.7077 3.45484L35.5659 3.53988Z" fill="#0C0B10"/>
<path d="M27.9409 7.01238L27.7425 7.06907L27.544 7.12576L27.3456 7.19662L27.1472 7.25331L26.9488 7.29582L26.7362 7.35251L26.5378 7.4092L26.3394 7.46589L26.141 7.50841L25.9284 7.5651L25.73 7.62179L25.5316 7.66431L25.319 7.70682L25.1206 7.74934L24.908 7.80603L24.7096 7.84855L24.497 7.87689L24.2986 7.91941L24.1852 7.94775L23.4766 4.10704L23.5616 4.09287L23.7458 4.05035L23.9301 4.022L24.1001 3.97949L24.2844 3.93697L24.4686 3.89445L24.6529 3.85194L24.8229 3.80942L25.0072 3.78107L25.1914 3.72438L25.3615 3.68187L25.5457 3.63935L25.73 3.58266L25.9 3.54014L26.0701 3.49763L26.2543 3.44094L26.4244 3.38425L26.6087 3.34173L26.7787 3.28504L26.963 3.22835L27.0338 3.20001L28.2101 6.92734L28.1393 6.94151L27.9409 7.01238Z" fill="#0C0B10"/>
<path d="M11.7563 7.9619L11.5437 7.91938L11.3312 7.87687L11.1327 7.84852L10.9202 7.80601L10.7217 7.74932L10.5092 7.7068L10.3107 7.66428L10.0982 7.62176L9.89975 7.56508L9.70133 7.50839L9.50292 7.46587L9.29033 7.40918L9.09192 7.35249L8.89351 7.2958L8.69509 7.25328L8.49668 7.19659L8.29827 7.12573L8.08568 7.06904L7.90144 7.01235L7.81641 6.98401L8.99271 3.25667L9.0494 3.28502L9.23364 3.34171L9.40371 3.38422L9.57378 3.44091L9.75802 3.4976L9.94226 3.54012L10.1123 3.58264L10.2966 3.63933L10.4666 3.68184L10.6509 3.72436L10.821 3.78105L11.0052 3.80939L11.1894 3.85191L11.3737 3.89443L11.5437 3.93695L11.728 3.97946L11.9122 4.02198L12.0965 4.05032L12.2807 4.09284L12.4508 4.12119L12.55 4.13536L11.8414 7.97607L11.7563 7.9619Z" fill="#0C0B10"/>
<path d="M3.86246 5.4675L3.67822 5.38247L3.49397 5.28326L3.30973 5.19823L3.12549 5.1132L2.94125 5.02816L2.75701 4.92895L2.57277 4.84392L2.38853 4.74471L2.21846 4.64551L2.03422 4.5463L1.84998 4.46127L1.67991 4.36206L1.49567 4.26285L1.3256 4.16365L1.14136 4.06444L0.97129 3.96523L0.787049 3.85185L0.61698 3.75265L0.446912 3.63927L0.291016 3.55423L2.34601 0.223723L2.47356 0.308758L2.62946 0.407964L2.77118 0.492999L2.92708 0.578032L3.08297 0.67724L3.23887 0.762274L3.40894 0.847309L3.56484 0.932342L3.72073 1.01738L3.87663 1.11658L4.03252 1.20162L4.18842 1.27248L4.35849 1.35751L4.51439 1.44255L4.67028 1.52758L4.84035 1.59844L4.99625 1.68348L5.16632 1.76851L5.32221 1.83938L5.49228 1.91024L5.57731 1.95275L3.94749 5.49585L3.86246 5.4675Z" fill="#0C0B10"/>
</svg>
