<svg width="36" height="16" viewBox="0 0 36 16" fill="none" xmlns="http://www.w3.org/2000/svg">
<path d="M17.921 15.5518L16.1636 12.2212L14.4629 8.89073C15.6817 6.55229 16.7588 4.52564 17.9635 2.22971L21.464 8.89073L19.6642 12.2212L17.921 15.5518Z" fill="white"/>
<path d="M35.5659 4.19958L35.3959 4.29878L35.2258 4.41216L35.0416 4.51137L34.8715 4.62475L34.6873 4.72395L34.5172 4.82316L34.3471 4.92237L34.1629 5.02157L33.9786 5.12078L33.8086 5.20581L33.6243 5.30502L33.4401 5.40423L33.27 5.50343L33.0858 5.58847L32.9015 5.68768L32.7173 5.77271L32.5331 5.85774L32.3488 5.94278L32.1646 6.04199L32.0654 6.0845L30.4355 2.52724L30.5064 2.49889L30.6765 2.42803L30.8324 2.34299L31.0024 2.25796L31.1583 2.1871L31.3142 2.10206L31.4843 2.01703L31.6402 1.932L31.7961 1.86113L31.952 1.7761L32.1221 1.67689L32.278 1.59186L32.4339 1.50682L32.5897 1.42179L32.7456 1.33675L32.9015 1.23755L33.0574 1.15251L33.2133 1.06748L33.3692 0.968273L33.5251 0.869066L33.6668 0.784031L35.7077 4.11454L35.5659 4.19958Z" fill="white"/>
<path d="M27.9409 7.67199L27.7425 7.72868L27.544 7.78537L27.3456 7.85623L27.1472 7.91292L26.9488 7.95544L26.7362 8.01213L26.5378 8.06882L26.3394 8.12551L26.141 8.16802L25.9284 8.22471L25.73 8.2814L25.5316 8.32392L25.319 8.36644L25.1206 8.40896L24.908 8.46564L24.7096 8.50816L24.497 8.53651L24.2986 8.57902L24.1852 8.60737L23.4766 4.76665L23.5616 4.75248L23.7458 4.70996L23.9301 4.68162L24.1001 4.6391L24.2844 4.59658L24.4686 4.55407L24.6529 4.51155L24.8229 4.46903L25.0072 4.44069L25.1914 4.384L25.3615 4.34148L25.5457 4.29896L25.73 4.24227L25.9 4.19976L26.0701 4.15724L26.2543 4.10055L26.4244 4.04386L26.6087 4.00134L26.7787 3.94466L26.963 3.88797L27.0338 3.85962L28.2101 7.58696L28.1393 7.60113L27.9409 7.67199Z" fill="white"/>
<path d="M11.7563 8.62149L11.5437 8.57898L11.3312 8.53646L11.1327 8.50811L10.9202 8.4656L10.7217 8.40891L10.5092 8.36639L10.3107 8.32387L10.0982 8.28136L9.89975 8.22467L9.70133 8.16798L9.50292 8.12546L9.29033 8.06877L9.09192 8.01208L8.89351 7.95539L8.69509 7.91287L8.49668 7.85619L8.29827 7.78532L8.08568 7.72863L7.90144 7.67194L7.81641 7.6436L8.99271 3.91626L9.0494 3.94461L9.23364 4.0013L9.40371 4.04381L9.57378 4.1005L9.75802 4.15719L9.94226 4.19971L10.1123 4.24223L10.2966 4.29892L10.4666 4.34143L10.6509 4.38395L10.821 4.44064L11.0052 4.46899L11.1894 4.5115L11.3737 4.55402L11.5437 4.59654L11.728 4.63905L11.9122 4.68157L12.0965 4.70992L12.2807 4.75243L12.4508 4.78078L12.55 4.79495L11.8414 8.63567L11.7563 8.62149Z" fill="white"/>
<path d="M3.86246 6.1272L3.67822 6.04216L3.49397 5.94295L3.30973 5.85792L3.12549 5.77289L2.94125 5.68785L2.75701 5.58865L2.57277 5.50361L2.38853 5.4044L2.21846 5.3052L2.03422 5.20599L1.84998 5.12096L1.67991 5.02175L1.49567 4.92254L1.3256 4.82334L1.14136 4.72413L0.97129 4.62492L0.787049 4.51154L0.61698 4.41234L0.446912 4.29896L0.291016 4.21392L2.34601 0.883414L2.47356 0.968449L2.62946 1.06765L2.77118 1.15269L2.92708 1.23772L3.08297 1.33693L3.23887 1.42196L3.40894 1.507L3.56484 1.59203L3.72073 1.67707L3.87663 1.77627L4.03252 1.86131L4.18842 1.93217L4.35849 2.0172L4.51439 2.10224L4.67028 2.18727L4.84035 2.25814L4.99625 2.34317L5.16632 2.4282L5.32221 2.49907L5.49228 2.56993L5.57731 2.61244L3.94749 6.15554L3.86246 6.1272Z" fill="white"/>
</svg>
