<svg width="1070" height="621" viewBox="0 0 1070 621" fill="none" xmlns="http://www.w3.org/2000/svg">
<path d="M534.892 0L532.51 4.514L530.205 9.028C531.857 12.1974 533.317 14.9442 534.95 18.056L539.694 9.028L537.255 4.514L534.892 0Z" fill="white"/>
<path d="M558.807 15.3861L558.576 15.2516L558.346 15.098L558.096 14.9635L557.866 14.8098L557.616 14.6754L557.386 14.5409L557.155 14.4065L556.905 14.272L556.656 14.1375L556.425 14.0223L556.175 13.8878L555.926 13.7534L555.695 13.6189L555.446 13.5037L555.196 13.3692L554.946 13.2539L554.696 13.1387L554.447 13.0234L554.197 12.889L554.062 12.8314L551.854 17.6527L551.95 17.6911L552.18 17.7872L552.391 17.9024L552.622 18.0177L552.833 18.1137L553.044 18.229L553.275 18.3442L553.486 18.4595L553.698 18.5555L553.909 18.6708L554.139 18.8052L554.351 18.9205L554.562 19.0357L554.773 19.151L554.985 19.2662L555.196 19.4007L555.407 19.5159L555.618 19.6312L555.83 19.7656L556.041 19.9001L556.233 20.0153L558.999 15.5013L558.807 15.3861Z" fill="white"/>
<path d="M548.475 10.6799L548.206 10.603L547.937 10.5262L547.668 10.4302L547.399 10.3533L547.13 10.2957L546.842 10.2189L546.573 10.142L546.304 10.0652L546.035 10.0076L545.747 9.93074L545.478 9.85391L545.209 9.79628L544.921 9.73865L544.652 9.68103L544.364 9.60419L544.095 9.54657L543.807 9.50815L543.538 9.45053L543.384 9.41211L542.424 14.6176L542.539 14.6368L542.789 14.6945L543.039 14.7329L543.269 14.7905L543.519 14.8481L543.768 14.9057L544.018 14.9634L544.249 15.021L544.498 15.0594L544.748 15.1362L544.979 15.1939L545.228 15.2515L545.478 15.3283L545.708 15.386L545.939 15.4436L546.189 15.5204L546.419 15.5973L546.669 15.6549L546.899 15.7317L547.149 15.8085L547.245 15.847L548.839 10.7951L548.743 10.7759L548.475 10.6799Z" fill="white"/>
<path d="M526.537 9.39293L526.249 9.45055L525.961 9.50818L525.692 9.54659L525.404 9.60422L525.135 9.68105L524.847 9.73868L524.578 9.79631L524.29 9.85393L524.021 9.93077L523.752 10.0076L523.483 10.0652L523.195 10.1421L522.926 10.2189L522.657 10.2957L522.388 10.3534L522.119 10.4302L521.85 10.5262L521.562 10.6031L521.313 10.6799L521.197 10.7183L522.792 15.7702L522.868 15.7317L523.118 15.6549L523.349 15.5973L523.579 15.5204L523.829 15.4436L524.079 15.386L524.309 15.3284L524.559 15.2515L524.789 15.1939L525.039 15.1363L525.269 15.0594L525.519 15.021L525.769 14.9634L526.019 14.9058L526.249 14.8481L526.499 14.7905L526.749 14.7329L526.998 14.6945L527.248 14.6369L527.478 14.5984L527.613 14.5792L526.652 9.37372L526.537 9.39293Z" fill="white"/>
<path d="M515.839 12.7736L515.589 12.8888L515.339 13.0233L515.089 13.1385L514.84 13.2538L514.59 13.369L514.34 13.5035L514.091 13.6188L513.841 13.7532L513.61 13.8877L513.361 14.0221L513.111 14.1374L512.88 14.2718L512.631 14.4063L512.4 14.5408L512.151 14.6752L511.92 14.8097L511.67 14.9634L511.44 15.0978L511.209 15.2515L510.998 15.3667L513.783 19.8807L513.956 19.7655L514.167 19.631L514.36 19.5158L514.571 19.4005L514.782 19.2661L514.993 19.1508L515.224 19.0356L515.435 18.9203L515.647 18.8051L515.858 18.6706L516.069 18.5553L516.28 18.4593L516.511 18.3441L516.722 18.2288L516.933 18.1136L517.164 18.0175L517.375 17.9023L517.606 17.787L517.817 17.691L518.048 17.5949L518.163 17.5373L515.954 12.7352L515.839 12.7736Z" fill="white"/>
<path fill-rule="evenodd" clip-rule="evenodd" d="M501 20H10C4.47715 20 0 24.4772 0 30V611C0 616.523 4.47713 621 9.99997 621H1060C1065.52 621 1070 616.523 1070 611V30C1070 24.4772 1065.52 20 1060 20H570V21H1060C1064.97 21 1069 25.0294 1069 30V611C1069 615.971 1064.97 620 1060 620H9.99997C5.02941 620 1 615.971 1 611V30C1 25.0294 5.02944 21 10 21H501V20Z" fill="white"/>
</svg>
