<svg width="1070" height="622" viewBox="0 0 1070 622" fill="none" xmlns="http://www.w3.org/2000/svg">
<path d="M534.894 0.0673828L532.512 4.58138L530.207 9.09539C531.859 12.2648 533.319 15.0116 534.952 18.1234L539.696 9.09539L537.257 4.58138L534.894 0.0673828Z" fill="white"/>
<path d="M558.809 15.4537L558.578 15.3192L558.348 15.1655L558.098 15.0311L557.868 14.8774L557.618 14.7429L557.388 14.6085L557.157 14.474L556.907 14.3396L556.658 14.2051L556.427 14.0899L556.177 13.9554L555.928 13.8209L555.697 13.6865L555.447 13.5712L555.198 13.4368L554.948 13.3215L554.698 13.2063L554.449 13.091L554.199 12.9566L554.064 12.8989L551.855 17.7203L551.952 17.7587L552.182 17.8547L552.393 17.97L552.624 18.0852L552.835 18.1813L553.046 18.2965L553.277 18.4118L553.488 18.527L553.699 18.6231L553.911 18.7383L554.141 18.8728L554.353 18.988L554.564 19.1033L554.775 19.2185L554.986 19.3338L555.198 19.4682L555.409 19.5835L555.62 19.6987L555.832 19.8332L556.043 19.9677L556.235 20.0829L559.001 15.5689L558.809 15.4537Z" fill="white"/>
<path d="M548.476 10.7473L548.208 10.6704L547.939 10.5936L547.67 10.4975L547.401 10.4207L547.132 10.3631L546.844 10.2863L546.575 10.2094L546.306 10.1326L546.037 10.075L545.749 9.99812L545.48 9.92129L545.211 9.86366L544.923 9.80604L544.654 9.74841L544.366 9.67158L544.097 9.61395L543.809 9.57553L543.54 9.51791L543.386 9.47949L542.426 14.685L542.541 14.7042L542.791 14.7618L543.04 14.8003L543.271 14.8579L543.521 14.9155L543.77 14.9731L544.02 15.0308L544.251 15.0884L544.5 15.1268L544.75 15.2036L544.981 15.2613L545.23 15.3189L545.48 15.3957L545.71 15.4533L545.941 15.511L546.191 15.5878L546.421 15.6646L546.671 15.7223L546.901 15.7991L547.151 15.8759L547.247 15.9143L548.841 10.8625L548.745 10.8433L548.476 10.7473Z" fill="white"/>
<path d="M526.539 9.46013L526.251 9.51775L525.963 9.57538L525.694 9.61379L525.406 9.67142L525.137 9.74825L524.849 9.80588L524.58 9.8635L524.292 9.92113L524.023 9.99796L523.754 10.0748L523.485 10.1324L523.197 10.2093L522.928 10.2861L522.659 10.3629L522.39 10.4206L522.121 10.4974L521.852 10.5934L521.564 10.6703L521.314 10.7471L521.199 10.7855L522.794 15.8374L522.87 15.7989L523.12 15.7221L523.351 15.6645L523.581 15.5876L523.831 15.5108L524.08 15.4532L524.311 15.3956L524.561 15.3187L524.791 15.2611L525.041 15.2035L525.271 15.1266L525.521 15.0882L525.771 15.0306L526.021 14.973L526.251 14.9153L526.501 14.8577L526.75 14.8001L527 14.7617L527.25 14.7041L527.48 14.6656L527.615 14.6464L526.654 9.44092L526.539 9.46013Z" fill="white"/>
<path d="M515.841 12.8412L515.591 12.9564L515.341 13.0909L515.091 13.2061L514.842 13.3214L514.592 13.4366L514.342 13.5711L514.093 13.6863L513.843 13.8208L513.612 13.9552L513.363 14.0897L513.113 14.205L512.882 14.3394L512.633 14.4739L512.402 14.6083L512.153 14.7428L511.922 14.8773L511.672 15.0309L511.442 15.1654L511.211 15.3191L511 15.4343L513.785 19.9483L513.958 19.8331L514.169 19.6986L514.361 19.5833L514.573 19.4681L514.784 19.3336L514.995 19.2184L515.226 19.1031L515.437 18.9879L515.648 18.8726L515.86 18.7382L516.071 18.6229L516.282 18.5269L516.513 18.4116L516.724 18.2964L516.935 18.1811L517.166 18.0851L517.377 17.9698L517.608 17.8546L517.819 17.7585L518.05 17.6625L518.165 17.6049L515.956 12.8027L515.841 12.8412Z" fill="white"/>
<path d="M534.894 488.083L532.512 483.569L530.207 479.055C531.859 475.886 533.319 473.139 534.952 470.027L539.696 479.055L537.257 483.569L534.894 488.083Z" fill="white"/>
<path d="M558.809 472.697L558.578 472.831L558.348 472.985L558.098 473.12L557.868 473.273L557.618 473.408L557.388 473.542L557.157 473.677L556.907 473.811L556.658 473.946L556.427 474.061L556.177 474.195L555.928 474.33L555.697 474.464L555.447 474.579L555.198 474.714L554.948 474.829L554.698 474.944L554.449 475.06L554.199 475.194L554.064 475.252L551.855 470.43L551.952 470.392L552.182 470.296L552.393 470.181L552.624 470.065L552.835 469.969L553.046 469.854L553.277 469.739L553.488 469.624L553.699 469.528L553.911 469.412L554.141 469.278L554.353 469.163L554.564 469.047L554.775 468.932L554.986 468.817L555.198 468.682L555.409 468.567L555.62 468.452L555.832 468.317L556.043 468.183L556.235 468.068L559.001 472.582L558.809 472.697Z" fill="white"/>
<path d="M548.476 477.403L548.208 477.48L547.939 477.557L547.67 477.653L547.401 477.73L547.132 477.787L546.844 477.864L546.575 477.941L546.306 478.018L546.037 478.075L545.749 478.152L545.48 478.229L545.211 478.287L544.923 478.344L544.654 478.402L544.366 478.479L544.097 478.536L543.809 478.575L543.54 478.632L543.386 478.671L542.426 473.465L542.541 473.446L542.791 473.389L543.04 473.35L543.271 473.293L543.521 473.235L543.77 473.177L544.02 473.12L544.251 473.062L544.5 473.024L544.75 472.947L544.981 472.889L545.23 472.832L545.48 472.755L545.71 472.697L545.941 472.639L546.191 472.563L546.421 472.486L546.671 472.428L546.901 472.351L547.151 472.274L547.247 472.236L548.841 477.288L548.745 477.307L548.476 477.403Z" fill="white"/>
<path d="M526.539 478.69L526.251 478.632L525.963 478.575L525.694 478.536L525.406 478.479L525.137 478.402L524.849 478.344L524.58 478.287L524.292 478.229L524.023 478.152L523.754 478.075L523.485 478.018L523.197 477.941L522.928 477.864L522.659 477.787L522.39 477.73L522.121 477.653L521.852 477.557L521.564 477.48L521.314 477.403L521.199 477.365L522.794 472.313L522.87 472.351L523.12 472.428L523.351 472.486L523.581 472.563L523.831 472.639L524.08 472.697L524.311 472.755L524.561 472.831L524.791 472.889L525.041 472.947L525.271 473.024L525.521 473.062L525.771 473.12L526.021 473.177L526.251 473.235L526.501 473.292L526.75 473.35L527 473.388L527.25 473.446L527.48 473.485L527.615 473.504L526.654 478.709L526.539 478.69Z" fill="white"/>
<path d="M515.841 475.309L515.591 475.194L515.341 475.06L515.091 474.945L514.842 474.829L514.592 474.714L514.342 474.58L514.093 474.464L513.843 474.33L513.612 474.195L513.363 474.061L513.113 473.946L512.882 473.811L512.633 473.677L512.402 473.542L512.153 473.408L511.922 473.273L511.672 473.12L511.442 472.985L511.211 472.832L511 472.716L513.785 468.202L513.958 468.318L514.169 468.452L514.361 468.567L514.573 468.683L514.784 468.817L514.995 468.932L515.226 469.048L515.437 469.163L515.648 469.278L515.86 469.412L516.071 469.528L516.282 469.624L516.513 469.739L516.724 469.854L516.935 469.97L517.166 470.066L517.377 470.181L517.608 470.296L517.819 470.392L518.05 470.488L518.165 470.546L515.956 475.348L515.841 475.309Z" fill="white"/>
<path fill-rule="evenodd" clip-rule="evenodd" d="M501 20.0674H10C4.47715 20.0674 0 24.5445 0 30.0674V611.067C0 616.59 4.47713 621.067 9.99997 621.067H1060C1065.52 621.067 1070 616.59 1070 611.067V30.0674C1070 24.5445 1065.52 20.0674 1060 20.0674H570V21.0674H1060C1064.97 21.0674 1069 25.0968 1069 30.0674V611.067C1069 616.038 1064.97 620.067 1060 620.067H9.99997C5.02941 620.067 1 616.038 1 611.067V30.0674C1 25.0968 5.02944 21.0674 10 21.0674H501V20.0674Z" fill="white"/>
</svg>
