<svg width="17" height="18" viewBox="0 0 17 18" fill="none" xmlns="http://www.w3.org/2000/svg">
<path d="M2.14761 17.3069C2.14761 17.687 1.82761 18 1.43904 18C1.05047 18 0.730469 17.687 0.730469 17.3069C0.730469 16.0549 1.25618 15.1158 1.98761 14.4227C2.99333 13.4613 4.41047 13.0589 5.25618 12.9695C5.43904 12.9471 5.57618 12.88 5.69047 12.7906C5.75904 12.7235 5.80475 12.6564 5.80475 12.567C5.1419 12.0304 4.84475 11.2926 4.57047 10.6666C4.45618 10.3759 4.3419 10.1076 4.27333 10.0406C3.97618 9.77226 3.56475 9.28039 3.33618 8.69908C3.10761 8.14013 3.0619 7.51411 3.40475 6.9328C3.2219 6.41857 3.13047 5.83726 3.13047 5.25595C3.13047 4.51814 3.24475 3.73561 3.49618 3.04251L3.51904 2.99779C3.8619 2.01404 4.43333 1.29859 5.18761 0.806712C5.96475 0.270121 6.94761 0.0241831 8.04475 0.00182514C8.45618 0.00182514 9.02761 -0.0205328 9.57618 0.0912571C10.1933 0.203047 10.7876 0.426627 11.1533 0.94086C11.8848 0.873786 12.5476 1.27623 13.0505 1.85754C13.6676 2.57299 14.1248 3.60146 14.2162 4.20513C14.2848 4.65229 14.2848 5.1218 14.2162 5.63604C14.1705 6.03848 14.079 6.44092 13.9648 6.86573C14.3533 7.44703 14.2848 8.11777 14.079 8.69908C13.8505 9.25803 13.439 9.77226 13.1419 10.0406H13.119C13.0505 10.1076 12.9362 10.3759 12.8219 10.6666C12.5705 11.2702 12.2733 12.0081 11.6333 12.5447C11.6562 12.6341 11.7019 12.7235 11.7705 12.7906C11.8848 12.9024 12.0219 12.9471 12.2048 12.9695C13.0505 13.0365 14.4676 13.4613 15.4733 14.4227C16.2048 15.1158 16.7305 16.0549 16.7305 17.3069C16.7305 17.687 16.4105 18 16.0219 18C15.6333 18 15.3133 17.687 15.3133 17.3069C15.3133 16.4797 14.9705 15.8536 14.4905 15.4065C13.7362 14.7134 12.7076 14.4004 12.0905 14.3333C11.5876 14.2886 11.1305 14.0874 10.7876 13.752C10.399 13.3943 9.85047 12.0304 10.5819 11.5833C11.0848 11.2926 11.3362 10.6666 11.5419 10.13C11.7248 9.66047 11.9076 9.25803 12.2048 8.98973C12.3876 8.83323 12.639 8.52022 12.7762 8.18485C12.8676 7.93891 12.8905 7.67061 12.7305 7.49175C12.5476 7.29053 12.479 6.9328 12.5705 6.68686C12.7076 6.26206 12.8219 5.83726 12.8676 5.45717C12.9133 5.09944 12.9133 4.74172 12.8676 4.40635C12.799 3.98155 12.479 3.26609 12.0219 2.75186C11.7705 2.4612 11.519 2.25998 11.2905 2.3047C11.039 2.34941 10.7876 2.3047 10.5819 2.21527C10.399 2.12583 10.2162 1.99169 10.079 1.81282L10.0333 1.76811C9.91904 1.6116 9.64475 1.52217 9.34761 1.45509C8.93618 1.38802 8.45618 1.38802 8.11333 1.38802C7.26761 1.41038 6.53618 1.56688 5.98761 1.94697C5.48475 2.25998 5.11904 2.75186 4.86761 3.44495L4.84475 3.48967C4.6619 4.04862 4.54761 4.65229 4.57047 5.23359C4.57047 5.74783 4.6619 6.26206 4.84475 6.68686C4.91333 6.82101 4.93618 6.99987 4.91333 7.13402C4.84475 7.58118 4.45618 7.60354 4.68475 8.18485C4.8219 8.52022 5.07333 8.83323 5.23333 8.98973L5.25618 9.01209C5.57618 9.28039 5.73618 9.68283 5.91904 10.1523C6.12475 10.6666 6.39904 11.315 6.87904 11.6056C7.10761 11.7174 7.24475 11.941 7.24475 12.2093C7.24475 12.7906 7.15333 13.3048 6.69618 13.752C6.35333 14.0874 5.89618 14.2886 5.39333 14.3333C4.77618 14.378 3.72475 14.691 2.99333 15.4065C2.49047 15.8536 2.14761 16.4797 2.14761 17.3069Z" fill="#79655E"/>
</svg>
