<svg width="17" height="15" viewBox="0 0 17 15" fill="none" xmlns="http://www.w3.org/2000/svg">
<path d="M5.51632 8.6601C5.95684 8.6601 6.31396 8.30763 6.31396 7.87282C6.31396 7.43802 5.95684 7.08554 5.51632 7.08554C5.07579 7.08554 4.71867 7.43802 4.71867 7.87282C4.71867 8.30763 5.07579 8.6601 5.51632 8.6601Z" fill="#79655E"/>
<path d="M9.50452 7.87282C9.50452 8.30763 9.1474 8.6601 8.70688 8.6601C8.26635 8.6601 7.90924 8.30763 7.90924 7.87282C7.90924 7.43802 8.26635 7.08554 8.70688 7.08554C9.1474 7.08554 9.50452 7.43802 9.50452 7.87282Z" fill="#79655E"/>
<path d="M11.8974 8.6601C12.338 8.6601 12.6951 8.30763 12.6951 7.87282C12.6951 7.43802 12.338 7.08554 11.8974 7.08554C11.4569 7.08554 11.0998 7.43802 11.0998 7.87282C11.0998 8.30763 11.4569 8.6601 11.8974 8.6601Z" fill="#79655E"/>
<path d="M6.31396 11.0219C6.31396 11.4568 5.95684 11.8092 5.51632 11.8092C5.07579 11.8092 4.71867 11.4568 4.71867 11.0219C4.71867 10.5871 5.07579 10.2347 5.51632 10.2347C5.95684 10.2347 6.31396 10.5871 6.31396 11.0219Z" fill="#79655E"/>
<path d="M8.70688 11.8092C9.1474 11.8092 9.50452 11.4568 9.50452 11.0219C9.50452 10.5871 9.1474 10.2347 8.70688 10.2347C8.26635 10.2347 7.90924 10.5871 7.90924 11.0219C7.90924 11.4568 8.26635 11.8092 8.70688 11.8092Z" fill="#79655E"/>
<path fill-rule="evenodd" clip-rule="evenodd" d="M5.51632 0.787282C5.51632 0.352478 5.1592 0 4.71867 0C4.27815 0 3.92103 0.352478 3.92103 0.787282H2.32575C1.4447 0.787282 0.730469 1.49224 0.730469 2.36185V13.3838C0.730469 14.2534 1.4447 14.9584 2.32575 14.9584H15.088C15.9691 14.9584 16.6833 14.2534 16.6833 13.3838V2.36185C16.6833 1.49224 15.9691 0.787282 15.088 0.787282H13.4927C13.4927 0.352478 13.1356 0 12.6951 0C12.2546 0 11.8974 0.352478 11.8974 0.787282H5.51632ZM2.32575 3.93641V2.36185H15.088V3.93641H2.32575ZM2.32575 5.51097V13.3838H10.439L15.088 8.7952V5.51097H2.32575ZM15.088 11.022L12.6951 13.3838H15.088V11.022Z" fill="#79655E"/>
</svg>
