<svg width="36" height="16" viewBox="0 0 36 16" fill="none" xmlns="http://www.w3.org/2000/svg">
<path d="M17.6514 15.7568L15.894 12.4263L14.1934 9.09582C15.4122 6.75737 16.4893 4.73072 17.6939 2.4348L21.1945 9.09582L19.3946 12.4263L17.6514 15.7568Z" fill="#0C0B10"/>
<path d="M35.2964 4.40462L35.1263 4.50383L34.9563 4.61721L34.772 4.71642L34.602 4.82979L34.4177 4.929L34.2477 5.02821L34.0776 5.12742L33.8934 5.22662L33.7091 5.32583L33.539 5.41086L33.3548 5.51007L33.1706 5.60928L33.0005 5.70848L32.8162 5.79352L32.632 5.89272L32.4478 5.97776L32.2635 6.06279L32.0793 6.14783L31.895 6.24703L31.7958 6.28955L30.166 2.73228L30.2369 2.70394L30.4069 2.63308L30.5628 2.54804L30.7329 2.46301L30.8888 2.39214L31.0447 2.30711L31.2148 2.22208L31.3707 2.13704L31.5266 2.06618L31.6825 1.98115L31.8525 1.88194L32.0084 1.7969L32.1643 1.71187L32.3202 1.62684L32.4761 1.5418L32.632 1.44259L32.7879 1.35756L32.9438 1.27253L33.0997 1.17332L33.2556 1.07411L33.3973 0.989079L35.4381 4.31959L35.2964 4.40462Z" fill="#0C0B10"/>
<path d="M27.6713 7.87712L27.4729 7.93381L27.2745 7.9905L27.0761 8.06136L26.8777 8.11805L26.6793 8.16057L26.4667 8.21726L26.2683 8.27395L26.0699 8.33064L25.8714 8.37316L25.6589 8.42985L25.4604 8.48654L25.262 8.52905L25.0494 8.57157L24.851 8.61409L24.6384 8.67078L24.44 8.71329L24.2274 8.74164L24.029 8.78416L23.9157 8.8125L23.207 4.97178L23.2921 4.95761L23.4763 4.91509L23.6605 4.88675L23.8306 4.84423L24.0149 4.80172L24.1991 4.7592L24.3833 4.71668L24.5534 4.67416L24.7376 4.64582L24.9219 4.58913L25.092 4.54661L25.2762 4.5041L25.4604 4.44741L25.6305 4.40489L25.8006 4.36237L25.9848 4.30568L26.1549 4.24899L26.3391 4.20648L26.5092 4.14979L26.6934 4.0931L26.7643 4.06475L27.9406 7.79209L27.8697 7.80626L27.6713 7.87712Z" fill="#0C0B10"/>
<path d="M11.4868 8.82665L11.2742 8.78413L11.0616 8.74161L10.8632 8.71327L10.6506 8.67075L10.4522 8.61406L10.2396 8.57154L10.0412 8.52903L9.82863 8.48651L9.63022 8.42982L9.4318 8.37313L9.23339 8.33062L9.0208 8.27392L8.82239 8.21724L8.62398 8.16055L8.42556 8.11803L8.22715 8.06134L8.02874 7.99048L7.81615 7.93379L7.63191 7.8771L7.54688 7.84875L8.72318 4.12142L8.77987 4.14976L8.96411 4.20645L9.13418 4.24897L9.30425 4.30566L9.48849 4.36235L9.67273 4.40486L9.8428 4.44738L10.027 4.50407L10.1971 4.54659L10.3814 4.58911L10.5514 4.6458L10.7357 4.67414L10.9199 4.71666L11.1041 4.75917L11.2742 4.80169L11.4585 4.84421L11.6427 4.88673L11.8269 4.91507L12.0112 4.95759L12.1812 4.98593L12.2805 5.0001L11.5718 8.84082L11.4868 8.82665Z" fill="#0C0B10"/>
<path d="M3.59292 6.33225L3.40868 6.24722L3.22444 6.14801L3.0402 6.06298L2.85596 5.97794L2.67172 5.89291L2.48748 5.7937L2.30324 5.70867L2.119 5.60946L1.94893 5.51025L1.76469 5.41105L1.58045 5.32601L1.41038 5.22681L1.22614 5.1276L1.05607 5.02839L0.871827 4.92919L0.701759 4.82998L0.517518 4.7166L0.347449 4.61739L0.177381 4.50401L0.0214844 4.41898L2.07648 1.08847L2.20403 1.1735L2.35993 1.27271L2.50165 1.35775L2.65755 1.44278L2.81344 1.54199L2.96934 1.62702L3.13941 1.71205L3.2953 1.79709L3.4512 1.88212L3.6071 1.98133L3.76299 2.06636L3.91889 2.13723L4.08896 2.22226L4.24485 2.30729L4.40075 2.39233L4.57082 2.46319L4.72672 2.54823L4.89678 2.63326L5.05268 2.70412L5.22275 2.77498L5.30778 2.8175L3.67796 6.3606L3.59292 6.33225Z" fill="#0C0B10"/>
</svg>
