<svg width="50" height="21" viewBox="0 0 50 21" fill="none" xmlns="http://www.w3.org/2000/svg">
<path d="M24.9974 0L22.6156 4.514L20.3105 9.028C21.9625 12.1974 23.4223 14.9442 25.0551 18.056L29.7996 9.028L27.3601 4.514L24.9974 0Z" fill="#0C0B10"/>
<path d="M49.1683 15.386L48.9378 15.2516L48.7073 15.0979L48.4576 14.9634L48.2271 14.8098L47.9774 14.6753L47.7469 14.5409L47.5164 14.4064L47.2667 14.2719L47.017 14.1375L46.7865 14.0222L46.5368 13.8878L46.287 13.7533L46.0565 13.6188L45.8068 13.5036L45.5571 13.3691L45.3074 13.2539L45.0577 13.1386L44.808 13.0234L44.5583 12.8889L44.4238 12.8313L42.2148 17.6526L42.3109 17.6911L42.5414 17.7871L42.7527 17.9023L42.9832 18.0176L43.1945 18.1136L43.4058 18.2289L43.6363 18.3441L43.8476 18.4594L44.0589 18.5554L44.2702 18.6707L44.5007 18.8051L44.7119 18.9204L44.9232 19.0357L45.1345 19.1509L45.3458 19.2662L45.5571 19.4006L45.7684 19.5159L45.9797 19.6311L46.191 19.7656L46.4023 19.9L46.5944 20.0153L49.3604 15.5013L49.1683 15.386Z" fill="#0C0B10"/>
<path d="M38.8495 10.6799L38.5806 10.603L38.3117 10.5262L38.0428 10.4302L37.7738 10.3533L37.5049 10.2957L37.2168 10.2189L36.9479 10.142L36.6789 10.0652L36.41 10.0076L36.1219 9.93074L35.853 9.85391L35.5841 9.79628L35.2959 9.73865L35.027 9.68103L34.7389 9.60419L34.47 9.54657L34.1818 9.50815L33.9129 9.45053L33.7593 9.41211L32.7988 14.6176L32.9141 14.6368L33.1638 14.6945L33.4135 14.7329L33.644 14.7905L33.8937 14.8481L34.1434 14.9057L34.3931 14.9634L34.6236 15.021L34.8733 15.0594L35.1231 15.1362L35.3536 15.1939L35.6033 15.2515L35.853 15.3283L36.0835 15.386L36.314 15.4436L36.5637 15.5204L36.7942 15.5973L37.0439 15.6549L37.2744 15.7317L37.5241 15.8085L37.6202 15.847L39.2145 10.7951L39.1184 10.7759L38.8495 10.6799Z" fill="#0C0B10"/>
<path d="M16.2345 9.39299L15.9464 9.45061L15.6582 9.50824L15.3893 9.54666L15.1012 9.60428L14.8323 9.68112L14.5441 9.73874L14.2752 9.79637L13.9871 9.85399L13.7182 9.93083L13.4493 10.0077L13.1803 10.0653L12.8922 10.1421L12.6233 10.219L12.3544 10.2958L12.0855 10.3534L11.8165 10.4302L11.5476 10.5263L11.2595 10.6031L11.0098 10.68L10.8945 10.7184L12.4888 15.7702L12.5657 15.7318L12.8154 15.655L13.0459 15.5973L13.2764 15.5205L13.5261 15.4437L13.7758 15.386L14.0063 15.3284L14.256 15.2516L14.4865 15.194L14.7362 15.1363L14.9667 15.0595L15.2164 15.0211L15.4662 14.9635L15.7159 14.9058L15.9464 14.8482L16.1961 14.7906L16.4458 14.733L16.6955 14.6945L16.9452 14.6369L17.1757 14.5985L17.3102 14.5793L16.3497 9.37378L16.2345 9.39299Z" fill="#0C0B10"/>
<path d="M5.57102 12.7735L5.3213 12.8888L5.07159 13.0232L4.82188 13.1385L4.57217 13.2537L4.32246 13.369L4.07275 13.5034L3.82304 13.6187L3.57333 13.7532L3.34283 13.8876L3.09312 14.0221L2.84341 14.1373L2.6129 14.2718L2.36319 14.4062L2.13269 14.5407L1.88298 14.6752L1.65248 14.8096L1.40277 14.9633L1.17226 15.0978L0.941762 15.2514L0.730469 15.3667L3.5157 19.8807L3.68858 19.7654L3.89987 19.631L4.09196 19.5157L4.30325 19.4005L4.51455 19.266L4.72584 19.1508L4.95634 19.0355L5.16764 18.9203L5.37893 18.805L5.59022 18.6705L5.80152 18.5553L6.01281 18.4592L6.24331 18.344L6.45461 18.2287L6.6659 18.1135L6.8964 18.0174L7.1077 17.9022L7.3382 17.7869L7.54949 17.6909L7.78 17.5949L7.89525 17.5372L5.68627 12.7351L5.57102 12.7735Z" fill="#0C0B10"/>
</svg>
