<svg width="235" height="61" viewBox="0 0 235 61" fill="none" xmlns="http://www.w3.org/2000/svg">
<path fill-rule="evenodd" clip-rule="evenodd" d="M75.8121 0H31.2305C14.3858 0 0.730469 13.6553 0.730469 30.5C0.730469 47.3447 14.3858 61 31.2305 61H75.8121V60H31.2305C14.9381 60 1.73047 46.7924 1.73047 30.5C1.73047 14.2076 14.9381 1 31.2305 1H75.8121V0ZM161.261 60H204.23C220.523 60 233.73 46.7924 233.73 30.5C233.73 14.2076 220.523 1 204.23 1H161.261V0H204.23C221.075 0 234.73 13.6553 234.73 30.5C234.73 47.3447 221.075 61 204.23 61H161.261V60Z" fill="#0C0B10"/>
</svg>
