<svg width="20" height="18" viewBox="0 0 20 18" fill="none" xmlns="http://www.w3.org/2000/svg">
<path d="M10.3245 2.69131C11.9549 2.69131 13.4598 3.2246 14.714 4.10297C15.874 4.9186 16.8146 6.0793 17.3476 7.42822C17.9433 7.5537 18.4763 7.83603 18.8839 8.27521C19.4169 8.80851 19.7305 9.5614 19.7305 10.3457C19.7305 11.1613 19.4169 11.8828 18.8839 12.4161C18.4763 12.8553 17.9433 13.1376 17.3476 13.2631C16.7833 14.612 15.874 15.7413 14.714 16.5883C13.4598 17.4667 11.9235 18 10.2932 18C8.63146 18 7.09516 17.4667 5.87238 16.5883C4.71232 15.7727 3.80308 14.612 3.23872 13.2945C2.61166 13.2003 2.0473 12.8866 1.60836 12.4475C1.07535 11.9142 0.730469 11.1613 0.730469 10.3457C0.730469 9.53003 1.07535 8.77714 1.60836 8.24384C2.0473 7.80466 2.61166 7.52233 3.23872 7.39685C3.30143 7.27137 3.33278 7.17726 3.39549 7.05177L2.11001 5.38915C1.95324 5.20093 2.01595 4.9186 2.20407 4.76174C2.26677 4.73037 2.32948 4.699 2.42354 4.66763L4.5869 4.29119C4.5869 4.0716 4.64961 3.88338 4.71232 3.66378C4.74367 3.5383 4.83773 3.41282 4.90044 3.28734C4.64961 3.25597 4.39879 3.2246 4.14796 3.25597C3.77172 3.28734 3.39549 3.41282 3.0506 3.56967C2.83113 3.66378 2.5803 3.60104 2.45489 3.38145C2.32948 3.2246 2.42354 2.94227 2.64301 2.81679C3.08195 2.5972 3.55225 2.44034 4.0539 2.40897C4.11661 2.40897 4.17931 2.40897 4.27337 2.40897C3.99119 2.22075 3.67766 2.0639 3.33278 2.03253C3.08195 1.96979 2.92519 1.7502 2.95654 1.53061C2.98789 1.27964 3.20737 1.12279 3.45819 1.15416C3.92849 1.2169 4.36743 1.40512 4.77502 1.68746C4.96314 1.84431 5.18261 2.00116 5.33938 2.18938C5.33938 2.00116 5.33938 1.84431 5.33938 1.65609C5.37073 1.15416 5.5275 0.652238 5.77832 0.244425C5.90374 0.0248328 6.15456 -0.069278 6.37403 0.0562031C6.59351 0.181684 6.65621 0.432646 6.56215 0.652238C6.37403 0.965941 6.27997 1.34238 6.24862 1.7502C6.21727 2.00116 6.24862 2.25212 6.27997 2.47171H6.34268C6.56215 2.44034 6.75027 2.47171 6.96974 2.50308L7.91034 0.495387C8.0044 0.275795 8.28657 0.181684 8.50605 0.275795C8.56875 0.307165 8.63146 0.338536 8.66281 0.401276L10.3245 2.69131ZM4.39879 8.36933C4.30473 8.58892 4.0539 8.77714 3.80308 8.77714H3.70902C3.30143 8.77714 2.92519 8.93399 2.64301 9.21632C2.36083 9.49866 2.20407 9.8751 2.20407 10.2829C2.20407 10.6907 2.36083 11.0985 2.64301 11.3495C2.92519 11.6318 3.27007 11.7887 3.70902 11.7887C4.02255 11.7887 4.33608 11.9769 4.43014 12.2906C4.86908 13.5141 5.65291 14.5806 6.68756 15.3335C7.69087 16.055 8.94499 16.4629 10.2618 16.4629C11.61 16.4629 12.8328 16.0237 13.8361 15.3335C14.8707 14.5806 15.6859 13.5454 16.0935 12.2906C16.1876 12.0083 16.4384 11.7887 16.7519 11.7887C17.1595 11.7887 17.5358 11.6005 17.7866 11.3181C18.0374 11.0358 18.2255 10.6594 18.2255 10.2515C18.2255 9.84373 18.0688 9.46729 17.7866 9.18495C17.5358 8.93399 17.1595 8.74577 16.7833 8.7144C16.4697 8.7144 16.1562 8.52618 16.0622 8.21247C15.6232 6.98903 14.8394 5.92244 13.8047 5.16956C12.8955 4.51078 11.7981 4.10297 10.6067 4.04023H10.544L8.38063 4.41667C8.38063 4.63626 8.31793 4.82448 8.25522 5.04408C8.12981 5.35778 7.91034 5.67148 7.62816 5.89107C7.31463 6.11067 6.96974 6.23615 6.65621 6.26752C6.43674 6.29889 6.24862 6.26752 6.02915 6.23615L5.08855 8.24384C4.9945 8.46344 4.71232 8.55755 4.49285 8.46344C4.5242 8.49481 4.46149 8.46344 4.39879 8.36933ZM5.5275 4.00886C5.43344 4.19708 5.43344 4.3853 5.46479 4.57352C5.49615 4.82448 5.33938 5.04408 5.08855 5.07545L3.23872 5.38915L4.64961 7.27137L5.43344 5.57737C5.5275 5.35778 5.80968 5.26367 5.9978 5.35778C6.78162 5.73422 7.65951 5.04408 7.5341 4.19708C7.50275 3.94612 7.65951 3.72653 7.87898 3.69515L9.72882 3.38145L8.28657 1.49924L7.50275 3.19323C7.40869 3.41282 7.12651 3.50693 6.90704 3.41282C6.43674 3.16186 5.74697 3.41282 5.5275 4.00886ZM12.049 13.1376C12.2684 13.0435 12.5192 13.1376 12.6133 13.3886C12.7074 13.6082 12.6133 13.8591 12.3625 13.9532C11.6727 14.2356 10.9516 14.3924 10.2305 14.3924C9.50935 14.3924 8.78823 14.2356 8.09846 13.9532C7.87898 13.8591 7.78492 13.6082 7.84763 13.3886C7.94169 13.169 8.19252 13.0749 8.41199 13.1376C8.97634 13.3886 9.60341 13.514 10.2305 13.514C10.8575 13.4827 11.4532 13.3572 12.049 13.1376ZM7.81628 9.59277C8.22387 9.59277 8.5374 9.93784 8.5374 10.3143C8.5374 10.7221 8.22387 11.0358 7.81628 11.0358C7.40869 11.0358 7.09516 10.6907 7.09516 10.3143C7.09516 9.93784 7.40869 9.59277 7.81628 9.59277ZM12.6447 9.59277C13.0523 9.59277 13.3658 9.93784 13.3658 10.3143C13.3658 10.7221 13.0523 11.0358 12.6447 11.0358C12.2371 11.0358 11.9235 10.6907 11.9235 10.3143C11.9235 9.93784 12.2371 9.59277 12.6447 9.59277Z" fill="#79655E"/>
</svg>
