<svg width="43" height="62" viewBox="0 0 43 62" fill="none" xmlns="http://www.w3.org/2000/svg">
<path d="M32.8201 5.81998V4.48093C32.8201 2.52816 31.8064 1.18911 30.3984 1.02173" stroke="#79655E" stroke-width="2" stroke-miterlimit="10" stroke-linecap="round" stroke-linejoin="round"/>
<path d="M30.3992 1.02189C30.1176 0.966094 29.7797 1.02189 29.4418 1.13348L23.6973 2.75149" stroke="#79655E" stroke-width="2" stroke-miterlimit="10" stroke-linecap="round" stroke-linejoin="round"/>
<path d="M23.6964 2.75146L1 9.00035V61" stroke="#79655E" stroke-width="2" stroke-miterlimit="10" stroke-linecap="round" stroke-linejoin="round"/>
<path d="M1 61H37.6635C40.0288 61 42 59.103 42 56.7039V13.2964C42 11.3437 40.7047 9.72566 38.9025 9.16772" stroke="#79655E" stroke-width="2" stroke-miterlimit="10" stroke-linecap="round" stroke-linejoin="round"/>
<path d="M38.9016 9.16762C38.5074 9.05604 38.1131 9.00024 37.6626 9.00024H30.2285" stroke="#79655E" stroke-width="2" stroke-miterlimit="10" stroke-linecap="round" stroke-linejoin="round"/>
<path d="M30.2294 9.00049H1V61.0001" stroke="#79655E" stroke-width="2" stroke-miterlimit="10" stroke-linecap="round" stroke-linejoin="round"/>
<path d="M17.7844 26.1466L16.9883 33.8616L28.0814 34.9851L28.8775 27.2701L17.7844 26.1466Z" stroke="#79655E" stroke-width="2" stroke-miterlimit="10" stroke-linecap="round" stroke-linejoin="round"/>
<path d="M19.1917 47.777C21.9911 47.777 24.2604 45.5288 24.2604 42.7556C24.2604 39.9823 21.9911 37.7341 19.1917 37.7341C16.3924 37.7341 14.123 39.9823 14.123 42.7556C14.123 45.5288 16.3924 47.777 19.1917 47.777Z" stroke="#79655E" stroke-width="2" stroke-miterlimit="10" stroke-linecap="round" stroke-linejoin="round"/>
</svg>
