<svg width="52" height="64" viewBox="0 0 52 64" fill="none" xmlns="http://www.w3.org/2000/svg">
<path d="M30.0581 51.6871L3.66406 36.7394C3.66406 36.7394 12.2762 20.0077 25.1015 10.5347" stroke="#79655E" stroke-width="2" stroke-miterlimit="10" stroke-linecap="round" stroke-linejoin="round"/>
<path d="M28.1367 8.19722C28.2606 8.07419 28.3846 8.01268 28.5085 7.88965" stroke="#79655E" stroke-width="2" stroke-miterlimit="10" stroke-linecap="round" stroke-linejoin="round"/>
<path d="M51 55.3163C51 57.2233 34.5192 58.6996 20.7646 58.6996C7.00991 58.6996 1 57.1617 1 55.3163C1 53.4094 6.886 51.9331 20.7026 51.9331C34.5192 51.9331 51 53.4094 51 55.3163Z" stroke="#79655E" stroke-width="2" stroke-miterlimit="10" stroke-linecap="round" stroke-linejoin="round"/>
<path d="M4.15952 58.2688L2.30078 62.0211L10.7271 58.6994" stroke="#79655E" stroke-width="2" stroke-miterlimit="10" stroke-linecap="round" stroke-linejoin="round"/>
<path d="M28.8184 54.4551C28.8184 54.4551 45.547 19.3925 47.4057 1.55362L40.3425 1C40.3425 1 35.3239 3.276 31.6065 5.67502" stroke="#79655E" stroke-width="2" stroke-miterlimit="10" stroke-linecap="round" stroke-linejoin="round"/>
<path d="M4.6543 35.0172C4.6543 35.0172 27.3309 37.1701 41.5192 34.7096C50.5031 33.1718 39.3507 31.0188 39.3507 31.0188" stroke="#79655E" stroke-width="2" stroke-miterlimit="10" stroke-linecap="round" stroke-linejoin="round"/>
</svg>
