<svg width="52" height="42" viewBox="0 0 52 42" fill="none" xmlns="http://www.w3.org/2000/svg">
<path d="M7.61988 6.67326C9.7262 5.41812 12.1836 4.66504 14.7914 4.66504C22.4143 4.66504 28.5327 10.8403 28.5327 18.4213C28.5327 24.5464 24.4203 30.4205 20.9098 35.0394C20.2077 35.9933 19.5557 36.9472 18.8536 37.7505C16.9479 40.0599 15.8446 40.8632 14.7413 40.8632C13.6379 40.8632 12.5346 40.0599 10.6289 37.7505C9.97696 36.9472 9.325 35.9933 8.57274 35.0394C5.11235 30.4205 1 24.5464 1 18.4715C1 14.6559 2.55467 11.242 5.01205 8.73168" stroke="#79655E" stroke-width="2" stroke-miterlimit="10" stroke-linecap="round" stroke-linejoin="round"/>
<path d="M20.7093 18.4717C20.7093 21.7853 18.0513 24.4462 14.7414 24.4462C11.4314 24.4462 8.77344 21.7853 8.77344 18.4717C8.77344 15.1582 11.4314 12.4973 14.7414 12.4973C18.0513 12.4471 20.7093 15.1582 20.7093 18.4717Z" stroke="#79655E" stroke-width="2" stroke-miterlimit="10" stroke-linecap="round" stroke-linejoin="round"/>
<path d="M43.7783 1C47.7904 1 51 4.26336 51 8.22959C51 11.4427 48.8435 14.5053 46.988 16.9653C46.5868 17.4674 46.2859 17.9695 45.9348 18.3711C44.9318 19.576 44.33 19.9777 43.7783 19.9777C43.2267 19.9777 42.6249 19.576 41.6218 18.3711C41.2708 17.9695 40.9197 17.4674 40.5687 16.9653C38.7131 14.5053 36.5566 11.4427 36.5566 8.22959C36.5566 4.26336 39.8164 1 43.7783 1Z" stroke="#79655E" stroke-width="2" stroke-miterlimit="10" stroke-linecap="round" stroke-linejoin="round"/>
<path d="M46.9381 8.22984C46.9381 9.98703 45.5339 11.3928 43.7786 11.3928C42.0234 11.3928 40.6191 9.98703 40.6191 8.22984C40.6191 6.47265 42.0234 5.06689 43.7786 5.06689C45.5339 5.1171 46.9381 6.52285 46.9381 8.22984Z" stroke="#79655E" stroke-width="2" stroke-miterlimit="10" stroke-linecap="round" stroke-linejoin="round"/>
<path d="M39.1659 20.3789C39.1659 20.3789 38.6644 20.3789 37.9121 20.3789" stroke="#79655E" stroke-width="2" stroke-linecap="round" stroke-linejoin="round"/>
<path d="M35.4043 20.6802C33.5487 21.0316 31.6931 21.8851 31.6931 23.6423C31.6931 27.9098 48.8446 26.6044 48.9951 32.2776C49.0452 35.6414 45.8857 39.1558 17.8516 40.662" stroke="#79655E" stroke-width="2" stroke-linecap="round" stroke-linejoin="round" stroke-dasharray="5.05 5.05"/>
<path d="M16.5975 40.7622C16.1963 40.7622 15.745 40.8124 15.3438 40.8124" stroke="#79655E" stroke-width="2" stroke-linecap="round" stroke-linejoin="round"/>
</svg>
