<svg width="52" height="53" viewBox="0 0 52 53" fill="none" xmlns="http://www.w3.org/2000/svg">
<path d="M42.007 39.4057C38.7137 38.4913 34.9772 37.4508 32.349 34.9914C32.6973 34.7707 33.0139 34.5184 33.3306 34.2347C33.8056 33.8563 34.2489 33.4149 34.6289 32.9734L34.7555 32.8473C35.1039 32.5005 35.4839 32.0906 35.7688 31.6176C35.8005 31.5861 35.8005 31.5546 35.8322 31.523C39.2521 26.8565 40.5187 20.172 39.3154 13.1722C38.8404 10.4921 38.0804 8.28497 36.9088 6.48772C35.7055 4.59589 34.0589 3.11395 32.1273 2.23109C30.1007 1.28517 27.6308 0.875276 24.9075 1.03293C22.5643 1.09599 20.4743 1.69507 18.7327 2.76711C14.7745 5.19497 13.2229 9.70385 12.6529 13.0461C11.988 16.9559 11.703 22.789 14.2362 28.3069C15.5345 31.1447 17.4345 33.4464 19.6194 34.9599V35.0229C16.9911 37.4823 13.2863 38.4913 9.99303 39.4057C5.36985 40.6669 1 41.8651 1 46.7208V51.4188C1 51.7657 1.28499 52.0495 1.63331 52.0495C1.98163 52.0495 2.26662 51.7657 2.26662 51.4188V46.7208C2.26662 43.0002 5.33819 41.9597 10.3414 40.6038C13.5712 39.721 17.1811 38.712 19.9677 36.3787L25.4775 44.2614C25.6042 44.419 25.7942 44.5452 25.9842 44.5452C26.2058 44.5452 26.3958 44.4506 26.4908 44.2614L32.0006 36.3787C34.7872 38.712 38.3971 39.721 41.6586 40.6038C46.6618 41.9912 49.7334 43.0002 49.7334 46.7208V51.4188C49.7334 51.7657 50.0184 52.0495 50.3667 52.0495C50.715 52.0495 51 51.7657 51 51.4188V46.7208C51 41.8651 46.6301 40.6669 42.007 39.4057ZM15.3762 27.7709C12.9696 22.5368 13.2229 16.9874 13.8879 13.2668C14.4262 10.1768 15.8195 6.01477 19.3661 3.83915C20.9493 2.89323 22.8493 2.35721 25.0025 2.23109C25.3509 2.19956 25.6992 2.19956 26.0158 2.19956C28.1374 2.19956 30.0057 2.57793 31.589 3.33466C33.2989 4.12293 34.7872 5.44721 35.8322 7.11834C36.8771 8.78946 37.6054 10.8389 38.0488 13.3614C39.1887 20.0459 38.0171 26.3835 34.7872 30.7663L34.7555 30.7978L34.7239 30.8294C34.7239 30.8609 34.6922 30.8609 34.6922 30.8924C34.4706 31.2708 34.1222 31.6176 33.8056 31.9645L33.6789 32.0906C33.2989 32.5005 32.8873 32.8788 32.4756 33.2257C32.4123 33.2887 32.349 33.3203 32.3173 33.3518V29.6943C34.0589 27.897 35.6738 25.7845 35.8005 24.3025C35.8005 24.271 35.8005 24.2395 35.8005 24.2079C35.7372 22.3161 35.3572 20.8342 34.7239 19.6045C34.2806 18.7847 33.7422 18.091 32.9506 17.4288C32.4756 16.9874 31.9373 16.609 31.2723 16.1676L30.7973 15.8523C28.4858 14.3073 25.8575 12.5101 23.5776 7.65436C23.5142 7.4967 23.3876 7.37058 23.2293 7.33905C23.0709 7.27599 22.8809 7.30752 22.7543 7.37058C19.0494 9.16783 16.9278 13.2353 16.3895 17.0505C16.2945 16.9874 16.1362 16.9874 16.0095 16.9874C15.8195 16.9874 15.6295 17.0505 15.4712 17.082C14.4262 17.4288 14.6162 18.6585 14.8379 19.9513C14.9012 20.2666 14.9645 20.6134 14.9962 20.9918C15.2179 22.5999 15.8195 23.5458 16.6428 23.5458C16.6745 23.7665 16.7061 23.9872 16.7378 24.3025C16.8645 25.6268 18.0994 27.3925 19.5877 29.0006V33.3518C17.9094 31.996 16.4528 30.0726 15.3762 27.7709ZM26.4275 32.2167H26.3325C26.3325 32.2167 26.3325 32.2167 26.3008 32.2167C26.3008 32.2167 26.3008 32.2167 26.2692 32.2167H26.1425C25.6675 32.2167 25.1925 32.1221 24.7492 31.9014C23.5142 31.3338 18.1944 26.3835 18.0044 24.1764C17.9411 23.5143 17.9094 23.2935 17.7828 22.4737C17.7511 22.2215 17.5611 22.0008 17.3078 21.9377C17.0545 21.8747 16.8011 21.9693 16.6428 22.1584C16.5162 21.9693 16.3578 21.5594 16.2312 20.8026C16.1678 20.4243 16.1362 20.0459 16.0728 19.7306C16.0095 19.3522 15.9145 18.8477 15.9145 18.5324C15.9462 18.5955 15.9462 18.6585 15.9778 18.7216C16.0728 18.9423 16.1678 19.2576 16.2945 19.6045C16.4212 19.8882 16.7061 20.0459 17.0228 19.9828C17.3395 19.9198 17.5294 19.636 17.5294 19.3522C17.4345 15.7262 19.2077 10.9335 22.7859 8.82099C25.1609 13.5506 27.9158 15.4109 30.1324 16.9244L30.6073 17.2397C31.209 17.6496 31.7156 18.0279 32.159 18.4063C32.8239 18.9738 33.2673 19.5414 33.6472 20.2351C34.1856 21.2756 34.5022 22.5683 34.5655 24.2395C34.3122 26.4466 29.0557 31.3654 27.8208 31.9329C27.3775 32.1221 26.9341 32.2167 26.4275 32.2167V32.8473V32.2167ZM31.0823 35.4959L25.9842 42.811L20.8543 35.5274V30.3249C22.2793 31.7122 23.6726 32.8158 24.2426 33.068C24.8442 33.3518 25.4775 33.4779 26.1742 33.4779C26.2058 33.4779 26.2692 33.4779 26.3008 33.4779C26.3325 33.4779 26.3958 33.4779 26.4275 33.4779C27.0925 33.4779 27.7258 33.3518 28.3274 33.068C28.8024 32.8473 29.8474 32.0275 31.0507 30.9555V35.4959H31.0823Z" fill="#79655E"/>
<path d="M26.4275 32.2167H26.3325C26.3325 32.2167 26.3325 32.2167 26.3008 32.2167C26.3008 32.2167 26.3008 32.2167 26.2692 32.2167H26.1425C25.6675 32.2167 25.1925 32.1221 24.7492 31.9014C23.5142 31.3338 18.1944 26.3835 18.0044 24.1764C17.9411 23.5143 17.9094 23.2935 17.7828 22.4737C17.7511 22.2215 17.5611 22.0008 17.3078 21.9377C17.0545 21.8747 16.8011 21.9693 16.6428 22.1584C16.5162 21.9693 16.3578 21.5594 16.2312 20.8026C16.1678 20.4243 16.1362 20.0459 16.0728 19.7306C16.0095 19.3522 15.9145 18.8477 15.9145 18.5324C15.9462 18.5955 15.9462 18.6585 15.9778 18.7216C16.0728 18.9423 16.1678 19.2576 16.2945 19.6045C16.4212 19.8882 16.7061 20.0459 17.0228 19.9828C17.3395 19.9198 17.5294 19.636 17.5294 19.3522C17.4345 15.7262 19.2077 10.9335 22.7859 8.82099C25.1609 13.5506 27.9158 15.4109 30.1324 16.9244L30.6073 17.2397C31.209 17.6496 31.7156 18.0279 32.159 18.4063C32.8239 18.9738 33.2673 19.5414 33.6472 20.2351C34.1856 21.2756 34.5022 22.5683 34.5655 24.2395C34.3122 26.4466 29.0557 31.3654 27.8208 31.9329C27.3775 32.1221 26.9341 32.2167 26.4275 32.2167ZM26.4275 32.2167V32.8473V32.2167ZM42.007 39.4057C38.7137 38.4913 34.9772 37.4508 32.349 34.9914C32.6973 34.7707 33.0139 34.5184 33.3306 34.2347C33.8056 33.8563 34.2489 33.4149 34.6289 32.9734L34.7555 32.8473C35.1039 32.5005 35.4839 32.0906 35.7688 31.6176C35.8005 31.5861 35.8005 31.5546 35.8322 31.523C39.2521 26.8565 40.5187 20.172 39.3154 13.1722C38.8404 10.4921 38.0804 8.28497 36.9088 6.48772C35.7055 4.59589 34.0589 3.11395 32.1273 2.23109C30.1007 1.28517 27.6308 0.875276 24.9075 1.03293C22.5643 1.09599 20.4744 1.69507 18.7327 2.76711C14.7745 5.19497 13.2229 9.70385 12.6529 13.0461C11.988 16.9559 11.703 22.789 14.2362 28.3069C15.5345 31.1447 17.4345 33.4464 19.6194 34.9599V35.0229C16.9911 37.4823 13.2863 38.4913 9.99303 39.4057C5.36985 40.6669 1 41.8651 1 46.7208V51.4188C1 51.7657 1.28499 52.0495 1.63331 52.0495C1.98163 52.0495 2.26662 51.7657 2.26662 51.4188V46.7208C2.26662 43.0002 5.33819 41.9597 10.3414 40.6038C13.5712 39.721 17.1811 38.712 19.9677 36.3787L25.4775 44.2614C25.6042 44.419 25.7942 44.5452 25.9842 44.5452C26.2058 44.5452 26.3958 44.4506 26.4908 44.2614L32.0006 36.3787C34.7872 38.712 38.3971 39.721 41.6586 40.6038C46.6618 41.9912 49.7334 43.0002 49.7334 46.7208V51.4188C49.7334 51.7657 50.0184 52.0495 50.3667 52.0495C50.715 52.0495 51 51.7657 51 51.4188V46.7208C51 41.8651 46.6301 40.6669 42.007 39.4057ZM15.3762 27.7709C12.9696 22.5368 13.2229 16.9874 13.8879 13.2668C14.4262 10.1768 15.8195 6.01477 19.3661 3.83915C20.9493 2.89323 22.8493 2.35721 25.0025 2.23109C25.3509 2.19956 25.6992 2.19956 26.0158 2.19956C28.1374 2.19956 30.0057 2.57793 31.589 3.33466C33.2989 4.12293 34.7872 5.44721 35.8322 7.11834C36.8771 8.78946 37.6054 10.8389 38.0488 13.3614C39.1887 20.0459 38.0171 26.3835 34.7872 30.7663L34.7555 30.7978L34.7239 30.8294C34.7239 30.8609 34.6922 30.8609 34.6922 30.8924C34.4706 31.2708 34.1222 31.6176 33.8056 31.9645L33.6789 32.0906C33.2989 32.5005 32.8873 32.8788 32.4756 33.2257C32.4123 33.2887 32.349 33.3203 32.3173 33.3518V29.6942C34.0589 27.897 35.6738 25.7845 35.8005 24.3025C35.8005 24.271 35.8005 24.2395 35.8005 24.2079C35.7372 22.3161 35.3572 20.8342 34.7239 19.6045C34.2806 18.7847 33.7422 18.091 32.9506 17.4288C32.4756 16.9874 31.9373 16.609 31.2723 16.1676L30.7973 15.8523C28.4858 14.3073 25.8575 12.5101 23.5776 7.65436C23.5143 7.4967 23.3876 7.37058 23.2293 7.33905C23.0709 7.27599 22.8809 7.30752 22.7543 7.37058C19.0494 9.16783 16.9278 13.2353 16.3895 17.0505C16.2945 16.9874 16.1362 16.9874 16.0095 16.9874C15.8195 16.9874 15.6295 17.0505 15.4712 17.082C14.4262 17.4288 14.6162 18.6585 14.8379 19.9513C14.9012 20.2666 14.9645 20.6134 14.9962 20.9918C15.2179 22.5999 15.8195 23.5458 16.6428 23.5458C16.6745 23.7665 16.7061 23.9872 16.7378 24.3025C16.8645 25.6268 18.0994 27.3925 19.5877 29.0006V33.3518C17.9094 31.996 16.4528 30.0726 15.3762 27.7709ZM31.0823 35.4959L25.9842 42.811L20.8543 35.5274V30.3249C22.2793 31.7122 23.6726 32.8158 24.2426 33.068C24.8442 33.3518 25.4775 33.4779 26.1742 33.4779C26.2058 33.4779 26.2692 33.4779 26.3008 33.4779C26.3325 33.4779 26.3958 33.4779 26.4275 33.4779C27.0925 33.4779 27.7258 33.3518 28.3274 33.068C28.8024 32.8473 29.8474 32.0275 31.0507 30.9555V35.4959H31.0823Z" stroke="#79655E"/>
<path d="M19.5564 48.3603C19.6197 48.3918 19.6831 48.3918 19.7464 48.3918C19.8731 48.3918 19.9681 48.3603 20.063 48.2972L24.1796 45.8063C24.4646 45.6171 24.5596 45.2388 24.4012 44.955C24.2112 44.6712 23.8313 44.5766 23.5463 44.7343L23.2929 44.8919L19.9997 46.8784L17.1498 40.793L16.7065 39.847C16.5482 39.5317 16.1682 39.4056 15.8515 39.5317C15.5349 39.6894 15.4082 40.0677 15.5349 40.3831L19.1447 48.045C19.2397 48.2026 19.3664 48.3288 19.5564 48.3603Z" fill="#79655E" stroke="#79655E"/>
<path d="M31.7794 48.2974C31.8744 48.3604 32.0011 48.392 32.0961 48.392C32.1594 48.392 32.2227 48.392 32.2861 48.3604C32.4444 48.2974 32.6027 48.1712 32.6661 48.0136L36.2759 40.3517C36.4343 40.0363 36.2759 39.658 35.9593 39.5003C35.6426 39.3427 35.2626 39.5003 35.1043 39.8156L34.661 40.7615L31.8111 46.847L28.5495 44.8921L28.2962 44.7344C28.0112 44.5452 27.5996 44.6398 27.4412 44.9551C27.2512 45.2389 27.3462 45.6488 27.6629 45.8064L31.7794 48.2974Z" fill="#79655E" stroke="#79655E"/>
<path d="M28.8345 19.4785H31.3361C31.6844 19.4785 31.9694 19.1947 31.9694 18.8479C31.9694 18.5011 31.6844 18.2173 31.3361 18.2173H28.8345C28.4862 18.2173 28.2012 18.5011 28.2012 18.8479C28.2012 19.1947 28.4862 19.4785 28.8345 19.4785Z" fill="#79655E" stroke="#79655E"/>
<path d="M20.6333 19.4785H23.1666C23.5149 19.4785 23.7999 19.1947 23.7999 18.8479C23.7999 18.5011 23.5149 18.2173 23.1666 18.2173H20.6333C20.285 18.2173 20 18.5011 20 18.8479C20 19.1947 20.285 19.4785 20.6333 19.4785Z" fill="#79655E" stroke="#79655E"/>
</svg>
