<svg width="52" height="67" viewBox="0 0 52 67" fill="none" xmlns="http://www.w3.org/2000/svg">
<path d="M7.06836 40.3206C7.06836 45.4176 7.06836 49.8675 7.06836 49.8675V62.8125V65.7251" stroke="#79655E" stroke-width="2" stroke-miterlimit="10" stroke-linecap="round" stroke-linejoin="round"/>
<path d="M7.06796 49.5434C7.06796 51.3234 5.69256 52.7797 3.91262 52.7797C2.13269 52.7797 1 51.3234 1 49.5434V40.9674C1 35.7894 5.20712 31.5823 10.3851 31.5823H16.6149" stroke="#79655E" stroke-width="2" stroke-miterlimit="10" stroke-linecap="round" stroke-linejoin="round"/>
<path d="M13.9453 65.7249V52.699" stroke="#79655E" stroke-width="2" stroke-miterlimit="10" stroke-linecap="round" stroke-linejoin="round"/>
<path d="M39.9167 13.7024C42.8293 14.5115 45.0138 17.1814 45.0138 20.4176C45.0138 24.2202 41.9393 27.3755 38.0558 27.3755C36.195 27.3755 34.5769 26.6474 33.3633 25.5147" stroke="#79655E" stroke-width="2" stroke-miterlimit="10" stroke-linecap="round" stroke-linejoin="round"/>
<path d="M44.9317 49.5434C44.9317 51.3234 46.3071 52.7797 48.087 52.7797C49.867 52.7797 50.9997 51.3234 50.9997 49.5434V40.9674C50.9997 35.7894 46.7925 31.5823 41.6145 31.5823H35.3848" stroke="#79655E" stroke-width="2" stroke-miterlimit="10" stroke-linecap="round" stroke-linejoin="round"/>
<path d="M44.9322 40.3206C44.9322 45.4176 44.9322 48.0066 44.9322 48.0066V50.1102C44.9322 55.5309 50.1102 65.6442 50.1102 65.6442H35.1426" stroke="#79655E" stroke-width="2" stroke-miterlimit="10" stroke-linecap="round" stroke-linejoin="round"/>
<path d="M26.4855 40.0776C23.5728 40.0776 21.2266 37.7313 21.2266 34.8187C21.2266 31.9061 23.5728 29.5598 26.4855 29.5598C29.3981 29.5598 31.7444 31.9061 31.7444 34.8187C31.6635 37.7313 29.3172 40.0776 26.4855 40.0776Z" stroke="#79655E" stroke-width="2" stroke-miterlimit="10" stroke-linecap="round" stroke-linejoin="round"/>
<path d="M30.8555 65.7249V63.8641V55.6117V49.5437" stroke="#79655E" stroke-width="2" stroke-miterlimit="10" stroke-linecap="round" stroke-linejoin="round"/>
<path d="M22.0352 49.5437C22.0352 52.8609 22.0352 55.6117 22.0352 55.6117V63.8641V65.7249" stroke="#79655E" stroke-width="2" stroke-miterlimit="10" stroke-linecap="round" stroke-linejoin="round"/>
<path d="M22.0358 55.3689C22.0358 56.5016 21.1459 57.3916 20.0132 57.3916C18.8805 57.3916 18.1523 56.5016 18.1523 55.3689V49.9482C18.1523 46.6311 20.8222 43.9612 24.1394 43.9612H28.6701C31.9873 43.9612 34.6572 46.6311 34.6572 49.9482V55.3689C34.6572 56.5016 33.929 57.3916 32.7964 57.3916C31.6637 57.3916 30.7737 56.5016 30.7737 55.3689" stroke="#79655E" stroke-width="2" stroke-miterlimit="10" stroke-linecap="round" stroke-linejoin="round"/>
<path d="M26.4863 65.7252V57.3918" stroke="#79655E" stroke-width="2" stroke-miterlimit="10" stroke-linecap="round" stroke-linejoin="round"/>
<path d="M21.873 12.4888L25.1902 15.8869L30.6918 10.3853" stroke="#79655E" stroke-width="2" stroke-miterlimit="10" stroke-linecap="round" stroke-linejoin="round"/>
<path d="M26.0001 1C26.0001 1 20.8221 5.04531 16.4531 5.04531V15.2395C16.4531 17.343 17.3431 19.2848 18.7994 20.3366C20.3366 21.4693 24.8674 24.4628 25.0292 24.5437L26.0001 25.1909L26.9709 24.5437C27.1327 24.3819 31.6635 21.4693 33.2007 20.3366C34.657 19.2848 35.547 17.343 35.547 15.2395V5.04531C31.178 5.04531 26.0001 1 26.0001 1Z" stroke="#79655E" stroke-width="2" stroke-miterlimit="10" stroke-linecap="round" stroke-linejoin="round"/>
<path d="M12.0854 13.7024C9.17275 14.5115 6.98828 17.1814 6.98828 20.4176C6.98828 24.2202 10.0627 27.3755 13.9462 27.3755C15.8071 27.3755 17.4252 26.6474 18.7197 25.5147" stroke="#79655E" stroke-width="2" stroke-miterlimit="10" stroke-linecap="round" stroke-linejoin="round"/>
</svg>
