<svg width="67" height="56" viewBox="0 0 67 56" fill="none" xmlns="http://www.w3.org/2000/svg">
<path d="M30.0801 29.3773C28.7851 30.4652 27.3605 31.6618 26.8425 32.0969C26.1152 32.73 24.6814 33.7578 23.5997 33.4956C23.0144 33.3247 23.8463 33.9733 14.7322 30.2757C14.7322 30.2757 17.143 28.2285 17.7388 28.2803C18.3345 28.3321 22.2974 28.3165 22.2974 28.3165L32.0299 20.2072C35.0085 17.7052 39.2314 17.184 40.2105 18.3495C41.1004 19.4353 39.2149 21.7923 36.544 24.3452L34.2907 32.3124L31.7006 34.4881L30.0801 29.3773Z" stroke="#79655E" stroke-width="2" stroke-miterlimit="10" stroke-linecap="round" stroke-linejoin="round"/>
<path d="M26.1833 24.765L23.8522 23.9621L26.0538 22.1127L29.6002 21.9169" stroke="#79655E" stroke-width="2" stroke-miterlimit="10" stroke-linecap="round" stroke-linejoin="round"/>
<path d="M65.6709 22.6514C66.3796 24.4417 65.5083 26.4547 63.718 27.1634L18.1157 45.2149C16.3254 45.9236 14.3124 45.0523 13.6037 43.262L7.12721 26.9009C6.41853 25.1106 7.28982 23.0976 9.0801 22.3889L54.7322 4.31771C56.5224 3.60903 58.5355 4.48032 59.2442 6.2706L65.7207 22.6317L65.6709 22.6514Z" stroke="#79655E" stroke-width="2" stroke-miterlimit="10" stroke-linecap="round" stroke-linejoin="round"/>
<path d="M53.3484 16.082L54.6901 13.0774L57.7413 20.7856" stroke="#79655E" stroke-width="2" stroke-miterlimit="10" stroke-linecap="round" stroke-linejoin="round"/>
<path d="M44.4375 8.68042L44.969 10.0231" stroke="#79655E" stroke-width="2" stroke-miterlimit="10" stroke-linecap="round" stroke-linejoin="round"/>
<path d="M46.5234 13.9526L47.0353 15.2456" stroke="#79655E" stroke-width="2" stroke-miterlimit="10" stroke-linecap="round" stroke-linejoin="round"/>
<path d="M48.5898 19.1741L49.1214 20.5168" stroke="#79655E" stroke-width="2" stroke-miterlimit="10" stroke-linecap="round" stroke-linejoin="round"/>
<path d="M50.6562 24.3953L51.1878 25.738" stroke="#79655E" stroke-width="2" stroke-miterlimit="10" stroke-linecap="round" stroke-linejoin="round"/>
<path d="M52.7422 29.667L53.2737 31.0097" stroke="#79655E" stroke-width="2" stroke-miterlimit="10" stroke-linecap="round" stroke-linejoin="round"/>
<path d="M22.3575 17.1332L41.7386 2.15591C43.2325 0.989308 45.4165 1.27523 46.5831 2.7692L49.3214 6.34456" stroke="#79655E" stroke-width="2" stroke-miterlimit="10" stroke-linecap="round" stroke-linejoin="round"/>
<path d="M34.5261 38.7192L17.9236 51.5612C16.4296 52.7278 14.2457 52.4418 13.0791 50.9479L2.31336 36.9749C1.14676 35.4809 1.43268 33.2969 2.92664 32.1303L7.6375 28.4823" stroke="#79655E" stroke-width="2" stroke-miterlimit="10" stroke-linecap="round" stroke-linejoin="round"/>
</svg>
