<svg width="1070" height="621" viewBox="0 0 1070 621" fill="none" xmlns="http://www.w3.org/2000/svg">
<path d="M534.893 0L532.511 4.514L530.206 9.028C531.858 12.1974 533.318 14.9442 534.951 18.056L539.695 9.028L537.256 4.514L534.893 0Z" fill="white"/>
<path d="M558.808 15.386L558.577 15.2516L558.347 15.0979L558.097 14.9634L557.867 14.8098L557.617 14.6753L557.387 14.5409L557.156 14.4064L556.906 14.2719L556.657 14.1375L556.426 14.0222L556.176 13.8878L555.927 13.7533L555.696 13.6188L555.446 13.5036L555.197 13.3691L554.947 13.2539L554.697 13.1386L554.448 13.0234L554.198 12.8889L554.063 12.8313L551.854 17.6526L551.951 17.6911L552.181 17.7871L552.392 17.9023L552.623 18.0176L552.834 18.1136L553.045 18.2289L553.276 18.3441L553.487 18.4594L553.699 18.5554L553.91 18.6707L554.14 18.8051L554.352 18.9204L554.563 19.0357L554.774 19.1509L554.985 19.2662L555.197 19.4006L555.408 19.5159L555.619 19.6311L555.831 19.7656L556.042 19.9L556.234 20.0153L559 15.5013L558.808 15.386Z" fill="white"/>
<path d="M548.475 10.6799L548.206 10.603L547.937 10.5262L547.668 10.4302L547.399 10.3533L547.13 10.2957L546.842 10.2189L546.573 10.142L546.304 10.0652L546.035 10.0076L545.747 9.93074L545.478 9.85391L545.209 9.79628L544.921 9.73865L544.652 9.68103L544.364 9.60419L544.095 9.54657L543.807 9.50815L543.538 9.45053L543.384 9.41211L542.424 14.6176L542.539 14.6368L542.789 14.6945L543.039 14.7329L543.269 14.7905L543.519 14.8481L543.768 14.9057L544.018 14.9634L544.249 15.021L544.498 15.0594L544.748 15.1362L544.979 15.1939L545.228 15.2515L545.478 15.3283L545.708 15.386L545.939 15.4436L546.189 15.5204L546.419 15.5973L546.669 15.6549L546.899 15.7317L547.149 15.8085L547.245 15.847L548.839 10.7951L548.743 10.7759L548.475 10.6799Z" fill="white"/>
<path d="M526.538 9.39299L526.25 9.45061L525.961 9.50824L525.693 9.54666L525.404 9.60428L525.136 9.68112L524.847 9.73874L524.578 9.79637L524.29 9.85399L524.021 9.93083L523.752 10.0077L523.484 10.0653L523.195 10.1421L522.927 10.219L522.658 10.2958L522.389 10.3534L522.12 10.4302L521.851 10.5263L521.563 10.6031L521.313 10.68L521.198 10.7184L522.792 15.7702L522.869 15.7318L523.119 15.655L523.349 15.5973L523.58 15.5205L523.829 15.4437L524.079 15.386L524.31 15.3284L524.559 15.2516L524.79 15.194L525.039 15.1363L525.27 15.0595L525.52 15.0211L525.769 14.9635L526.019 14.9058L526.25 14.8482L526.499 14.7906L526.749 14.733L526.999 14.6945L527.248 14.6369L527.479 14.5985L527.613 14.5793L526.653 9.37378L526.538 9.39299Z" fill="white"/>
<path d="M515.839 12.7735L515.589 12.8888L515.339 13.0232L515.089 13.1385L514.84 13.2537L514.59 13.369L514.34 13.5034L514.091 13.6187L513.841 13.7532L513.61 13.8876L513.361 14.0221L513.111 14.1373L512.88 14.2718L512.631 14.4062L512.4 14.5407L512.151 14.6752L511.92 14.8096L511.67 14.9633L511.44 15.0978L511.209 15.2514L510.998 15.3667L513.783 19.8807L513.956 19.7654L514.167 19.631L514.36 19.5157L514.571 19.4005L514.782 19.266L514.993 19.1508L515.224 19.0355L515.435 18.9203L515.647 18.805L515.858 18.6705L516.069 18.5553L516.28 18.4592L516.511 18.344L516.722 18.2287L516.933 18.1135L517.164 18.0174L517.375 17.9022L517.606 17.7869L517.817 17.6909L518.048 17.5949L518.163 17.5372L515.954 12.7351L515.839 12.7735Z" fill="white"/>
<path d="M534.893 488.016L532.511 483.502L530.206 478.988C531.858 475.818 533.318 473.071 534.951 469.96L539.695 478.988L537.256 483.502L534.893 488.016Z" fill="white"/>
<path d="M558.808 472.629L558.577 472.764L558.347 472.918L558.097 473.052L557.867 473.206L557.617 473.34L557.387 473.475L557.156 473.609L556.906 473.744L556.657 473.878L556.426 473.993L556.176 474.128L555.927 474.262L555.696 474.397L555.446 474.512L555.197 474.646L554.947 474.762L554.697 474.877L554.448 474.992L554.198 475.127L554.063 475.184L551.854 470.363L551.951 470.324L552.181 470.228L552.392 470.113L552.623 469.998L552.834 469.902L553.045 469.787L553.276 469.671L553.487 469.556L553.699 469.46L553.91 469.345L554.14 469.21L554.352 469.095L554.563 468.98L554.774 468.865L554.985 468.749L555.197 468.615L555.408 468.5L555.619 468.384L555.831 468.25L556.042 468.115L556.234 468L559 472.514L558.808 472.629Z" fill="white"/>
<path d="M548.475 477.336L548.206 477.413L547.937 477.489L547.668 477.585L547.399 477.662L547.13 477.72L546.842 477.797L546.573 477.874L546.304 477.95L546.035 478.008L545.747 478.085L545.478 478.162L545.209 478.219L544.921 478.277L544.652 478.335L544.364 478.411L544.095 478.469L543.807 478.507L543.538 478.565L543.384 478.604L542.424 473.398L542.539 473.379L542.789 473.321L543.039 473.283L543.269 473.225L543.519 473.168L543.768 473.11L544.018 473.052L544.249 472.995L544.498 472.956L544.748 472.879L544.979 472.822L545.228 472.764L545.478 472.687L545.708 472.63L545.939 472.572L546.189 472.495L546.419 472.418L546.669 472.361L546.899 472.284L547.149 472.207L547.245 472.169L548.839 477.221L548.743 477.24L548.475 477.336Z" fill="white"/>
<path d="M526.538 478.623L526.25 478.565L525.961 478.508L525.693 478.469L525.404 478.411L525.136 478.335L524.847 478.277L524.578 478.219L524.29 478.162L524.021 478.085L523.752 478.008L523.484 477.95L523.195 477.874L522.927 477.797L522.658 477.72L522.389 477.662L522.12 477.585L521.851 477.489L521.563 477.413L521.313 477.336L521.198 477.297L522.792 472.246L522.869 472.284L523.119 472.361L523.349 472.418L523.58 472.495L523.829 472.572L524.079 472.63L524.31 472.687L524.559 472.764L524.79 472.822L525.039 472.879L525.27 472.956L525.52 472.995L525.769 473.052L526.019 473.11L526.25 473.168L526.499 473.225L526.749 473.283L526.999 473.321L527.248 473.379L527.479 473.417L527.613 473.436L526.653 478.642L526.538 478.623Z" fill="white"/>
<path d="M515.839 475.242L515.589 475.127L515.339 474.992L515.089 474.877L514.84 474.762L514.59 474.647L514.34 474.512L514.091 474.397L513.841 474.262L513.61 474.128L513.361 473.993L513.111 473.878L512.88 473.744L512.631 473.609L512.4 473.475L512.151 473.34L511.92 473.206L511.67 473.052L511.44 472.918L511.209 472.764L510.998 472.649L513.783 468.135L513.956 468.25L514.167 468.385L514.36 468.5L514.571 468.615L514.782 468.749L514.993 468.865L515.224 468.98L515.435 469.095L515.647 469.211L515.858 469.345L516.069 469.46L516.28 469.556L516.511 469.672L516.722 469.787L516.933 469.902L517.164 469.998L517.375 470.113L517.606 470.229L517.817 470.325L518.048 470.421L518.163 470.478L515.954 475.28L515.839 475.242Z" fill="white"/>
<path fill-rule="evenodd" clip-rule="evenodd" d="M501 20H10C4.47715 20 0 24.4772 0 30V611C0 616.523 4.47713 621 9.99997 621H1060C1065.52 621 1070 616.523 1070 611V30C1070 24.4772 1065.52 20 1060 20H570V21H1060C1064.97 21 1069 25.0294 1069 30V611C1069 615.971 1064.97 620 1060 620H9.99997C5.02941 620 1 615.971 1 611V30C1 25.0294 5.02944 21 10 21H501V20Z" fill="white"/>
</svg>
