<svg width="36" height="16" viewBox="0 0 36 16" fill="none" xmlns="http://www.w3.org/2000/svg">
<path d="M17.9214 15.7568L16.1641 12.4263L14.4634 9.09582C15.6822 6.75737 16.7593 4.73072 17.964 2.4348L21.4645 9.09582L19.6646 12.4263L17.9214 15.7568Z" fill="white"/>
<path d="M35.5655 4.40462L35.3954 4.50383L35.2253 4.61721L35.0411 4.71642L34.871 4.8298L34.6868 4.929L34.5167 5.02821L34.3466 5.12742L34.1624 5.22662L33.9782 5.32583L33.8081 5.41086L33.6238 5.51007L33.4396 5.60928L33.2695 5.70848L33.0853 5.79352L32.9011 5.89272L32.7168 5.97776L32.5326 6.06279L32.3483 6.14783L32.1641 6.24703L32.0649 6.28955L30.4351 2.73228L30.5059 2.70394L30.676 2.63308L30.8319 2.54804L31.002 2.46301L31.1579 2.39214L31.3137 2.30711L31.4838 2.22208L31.6397 2.13704L31.7956 2.06618L31.9515 1.98115L32.1216 1.88194L32.2775 1.7969L32.4334 1.71187L32.5893 1.62684L32.7452 1.5418L32.9011 1.4426L33.057 1.35756L33.2128 1.27253L33.3687 1.17332L33.5246 1.07411L33.6664 0.989079L35.7072 4.31959L35.5655 4.40462Z" fill="white"/>
<path d="M27.9418 7.87712L27.7434 7.93381L27.545 7.9905L27.3466 8.06136L27.1482 8.11805L26.9498 8.16057L26.7372 8.21726L26.5388 8.27395L26.3404 8.33064L26.1419 8.37316L25.9294 8.42985L25.7309 8.48654L25.5325 8.52905L25.3199 8.57157L25.1215 8.61409L24.909 8.67078L24.7105 8.71329L24.4979 8.74164L24.2995 8.78416L24.1862 8.8125L23.4775 4.97178L23.5626 4.95761L23.7468 4.91509L23.9311 4.88675L24.1011 4.84423L24.2854 4.80172L24.4696 4.7592L24.6538 4.71668L24.8239 4.67416L25.0082 4.64582L25.1924 4.58913L25.3625 4.54661L25.5467 4.5041L25.7309 4.44741L25.901 4.40489L26.0711 4.36237L26.2553 4.30568L26.4254 4.24899L26.6096 4.20648L26.7797 4.14979L26.9639 4.0931L27.0348 4.06475L28.2111 7.79209L28.1403 7.80626L27.9418 7.87712Z" fill="white"/>
<path d="M11.7563 8.82653L11.5437 8.78401L11.3312 8.74149L11.1327 8.71315L10.9202 8.67063L10.7217 8.61394L10.5092 8.57142L10.3107 8.52891L10.0982 8.48639L9.89975 8.4297L9.70133 8.37301L9.50292 8.33049L9.29033 8.2738L9.09192 8.21711L8.89351 8.16042L8.69509 8.11791L8.49668 8.06122L8.29827 7.99036L8.08568 7.93367L7.90144 7.87698L7.81641 7.84863L8.99271 4.12129L9.0494 4.14964L9.23364 4.20633L9.40371 4.24885L9.57378 4.30554L9.75802 4.36223L9.94226 4.40474L10.1123 4.44726L10.2966 4.50395L10.4666 4.54647L10.6509 4.58898L10.821 4.64567L11.0052 4.67402L11.1894 4.71654L11.3737 4.75905L11.5437 4.80157L11.728 4.84409L11.9122 4.8866L12.0965 4.91495L12.2807 4.95747L12.4508 4.98581L12.55 4.99998L11.8414 8.8407L11.7563 8.82653Z" fill="white"/>
<path d="M3.86246 6.33225L3.67822 6.24722L3.49397 6.14801L3.30973 6.06298L3.12549 5.97794L2.94125 5.89291L2.75701 5.7937L2.57277 5.70867L2.38853 5.60946L2.21846 5.51025L2.03422 5.41105L1.84998 5.32601L1.67991 5.22681L1.49567 5.1276L1.3256 5.02839L1.14136 4.92919L0.97129 4.82998L0.787049 4.7166L0.61698 4.61739L0.446912 4.50401L0.291016 4.41898L2.34601 1.08847L2.47356 1.1735L2.62946 1.27271L2.77118 1.35775L2.92708 1.44278L3.08297 1.54199L3.23887 1.62702L3.40894 1.71205L3.56484 1.79709L3.72073 1.88212L3.87663 1.98133L4.03252 2.06636L4.18842 2.13723L4.35849 2.22226L4.51439 2.30729L4.67028 2.39233L4.84035 2.46319L4.99625 2.54823L5.16632 2.63326L5.32221 2.70412L5.49228 2.77498L5.57731 2.8175L3.94749 6.3606L3.86246 6.33225Z" fill="white"/>
</svg>
