<svg width="18" height="120" viewBox="0 0 18 120" fill="none" xmlns="http://www.w3.org/2000/svg">
<path d="M3.552 6.84509C4.08 6.84509 4.556 6.96909 4.98 7.21709C5.412 7.46509 5.752 7.80909 6 8.24909C6.248 8.68109 6.372 9.16109 6.372 9.68909C6.372 10.2091 6.236 10.6931 5.964 11.1411C5.692 11.5891 5.328 11.9451 4.872 12.2091C4.416 12.4651 3.924 12.5931 3.396 12.5931C2.732 12.5931 2.144 12.3931 1.632 11.9931C1.12 11.5931 0.776 11.0771 0.6 10.4451L1.632 10.1691C1.736 10.5851 1.956 10.9211 2.292 11.1771C2.636 11.4251 3.016 11.5491 3.432 11.5491C3.776 11.5491 4.088 11.4651 4.368 11.2971C4.656 11.1291 4.88 10.9051 5.04 10.6251C5.208 10.3371 5.292 10.0251 5.292 9.68909C5.292 9.34509 5.208 9.03309 5.04 8.75309C4.872 8.46509 4.644 8.24109 4.356 8.08109C4.076 7.91309 3.768 7.82909 3.432 7.82909C3.072 7.82909 2.752 7.90509 2.472 8.05709C2.2 8.20909 1.98 8.40509 1.812 8.64509L0.864 8.28509L1.128 3.77309H5.772V4.78109H2.1L1.932 7.40909C2.156 7.23309 2.408 7.09709 2.688 7.00109C2.968 6.89709 3.256 6.84509 3.552 6.84509ZM8.00466 11.2371H9.18066V12.4131H8.00466V11.2371ZM13.963 12.5931C13.411 12.5931 12.911 12.4691 12.463 12.2211C12.023 11.9651 11.675 11.6171 11.419 11.1771C11.171 10.7291 11.047 10.2291 11.047 9.67709V6.50909C11.047 5.95709 11.171 5.46109 11.419 5.02109C11.675 4.57309 12.023 4.22509 12.463 3.97709C12.911 3.72109 13.411 3.59309 13.963 3.59309C14.515 3.59309 15.011 3.72109 15.451 3.97709C15.899 4.22509 16.247 4.57309 16.495 5.02109C16.751 5.46109 16.879 5.95709 16.879 6.50909V9.67709C16.879 10.2291 16.751 10.7291 16.495 11.1771C16.247 11.6171 15.899 11.9651 15.451 12.2211C15.011 12.4691 14.515 12.5931 13.963 12.5931ZM13.963 11.5611C14.299 11.5611 14.607 11.4811 14.887 11.3211C15.167 11.1531 15.387 10.9291 15.547 10.6491C15.715 10.3691 15.799 10.0651 15.799 9.73709V6.43709C15.799 6.10909 15.715 5.80509 15.547 5.52509C15.387 5.24509 15.167 5.02509 14.887 4.86509C14.607 4.69709 14.299 4.61309 13.963 4.61309C13.635 4.61309 13.331 4.69709 13.051 4.86509C12.771 5.02509 12.547 5.24509 12.379 5.52509C12.219 5.80509 12.139 6.10909 12.139 6.43709V9.73709C12.139 10.0651 12.219 10.3691 12.379 10.6491C12.547 10.9291 12.771 11.1531 13.051 11.3211C13.331 11.4811 13.635 11.5611 13.963 11.5611Z" fill="white"/>
<g filter="url(#filter0_b_589_6216)">
<path d="M8 101.413C6.1579 104.726 4.88259 107.005 3 110.413L5.51012 114.913L8 119.413L10.5101 114.913L13 110.413L8 101.413Z" fill="white"/>
</g>
<g filter="url(#filter1_b_589_6216)">
<path d="M8 81.4131C6.1579 84.7259 4.88259 87.0046 3 90.4131L5.51012 94.9131L8 99.4131L10.5101 94.9131L13 90.4131L8 81.4131Z" fill="white"/>
</g>
<g filter="url(#filter2_b_589_6216)">
<path d="M8 61.4131C6.1579 64.7259 4.88259 67.0046 3 70.4131L5.51012 74.9131L8 79.4131L10.5101 74.9131L13 70.4131L8 61.4131Z" fill="white"/>
</g>
<g filter="url(#filter3_b_589_6216)">
<path d="M8 41.4131C6.1579 44.7259 4.88259 47.0046 3 50.4131L5.51012 54.9131L8 59.4131L10.5101 54.9131L13 50.4131L8 41.4131Z" fill="white"/>
</g>
<g filter="url(#filter4_b_589_6216)">
<path d="M8 21.4131C6.1579 24.7259 4.88259 27.0046 3 30.4131L5.51012 34.9131L8 39.4131L10.5101 34.9131L13 30.4131L8 21.4131Z" fill="white"/>
</g>
<defs>
<filter id="filter0_b_589_6216" x="-7" y="91.4131" width="30" height="38" filterUnits="userSpaceOnUse" color-interpolation-filters="sRGB">
<feFlood flood-opacity="0" result="BackgroundImageFix"/>
<feGaussianBlur in="BackgroundImageFix" stdDeviation="5"/>
<feComposite in2="SourceAlpha" operator="in" result="effect1_backgroundBlur_589_6216"/>
<feBlend mode="normal" in="SourceGraphic" in2="effect1_backgroundBlur_589_6216" result="shape"/>
</filter>
<filter id="filter1_b_589_6216" x="-7" y="71.4131" width="30" height="38" filterUnits="userSpaceOnUse" color-interpolation-filters="sRGB">
<feFlood flood-opacity="0" result="BackgroundImageFix"/>
<feGaussianBlur in="BackgroundImageFix" stdDeviation="5"/>
<feComposite in2="SourceAlpha" operator="in" result="effect1_backgroundBlur_589_6216"/>
<feBlend mode="normal" in="SourceGraphic" in2="effect1_backgroundBlur_589_6216" result="shape"/>
</filter>
<filter id="filter2_b_589_6216" x="-7" y="51.4131" width="30" height="38" filterUnits="userSpaceOnUse" color-interpolation-filters="sRGB">
<feFlood flood-opacity="0" result="BackgroundImageFix"/>
<feGaussianBlur in="BackgroundImageFix" stdDeviation="5"/>
<feComposite in2="SourceAlpha" operator="in" result="effect1_backgroundBlur_589_6216"/>
<feBlend mode="normal" in="SourceGraphic" in2="effect1_backgroundBlur_589_6216" result="shape"/>
</filter>
<filter id="filter3_b_589_6216" x="-7" y="31.4131" width="30" height="38" filterUnits="userSpaceOnUse" color-interpolation-filters="sRGB">
<feFlood flood-opacity="0" result="BackgroundImageFix"/>
<feGaussianBlur in="BackgroundImageFix" stdDeviation="5"/>
<feComposite in2="SourceAlpha" operator="in" result="effect1_backgroundBlur_589_6216"/>
<feBlend mode="normal" in="SourceGraphic" in2="effect1_backgroundBlur_589_6216" result="shape"/>
</filter>
<filter id="filter4_b_589_6216" x="-7" y="11.4131" width="30" height="38" filterUnits="userSpaceOnUse" color-interpolation-filters="sRGB">
<feFlood flood-opacity="0" result="BackgroundImageFix"/>
<feGaussianBlur in="BackgroundImageFix" stdDeviation="5"/>
<feComposite in2="SourceAlpha" operator="in" result="effect1_backgroundBlur_589_6216"/>
<feBlend mode="normal" in="SourceGraphic" in2="effect1_backgroundBlur_589_6216" result="shape"/>
</filter>
</defs>
</svg>
