<svg width="18" height="120" viewBox="0 0 18 120" fill="none" xmlns="http://www.w3.org/2000/svg">
<path d="M4.572 10.8171H0.6V9.80909L3.456 3.77309H4.668L1.812 9.80909H4.572V7.37309H5.652V9.80909H6.552V10.8171H5.652V12.4131H4.572V10.8171ZM7.94606 11.2371H9.12206V12.4131H7.94606V11.2371ZM13.9044 12.5931C13.3524 12.5931 12.8524 12.4691 12.4044 12.2211C11.9644 11.9651 11.6164 11.6171 11.3604 11.1771C11.1124 10.7291 10.9884 10.2291 10.9884 9.67709V6.50909C10.9884 5.95709 11.1124 5.46109 11.3604 5.02109C11.6164 4.57309 11.9644 4.22509 12.4044 3.97709C12.8524 3.72109 13.3524 3.59309 13.9044 3.59309C14.4564 3.59309 14.9524 3.72109 15.3924 3.97709C15.8404 4.22509 16.1884 4.57309 16.4364 5.02109C16.6924 5.46109 16.8204 5.95709 16.8204 6.50909V9.67709C16.8204 10.2291 16.6924 10.7291 16.4364 11.1771C16.1884 11.6171 15.8404 11.9651 15.3924 12.2211C14.9524 12.4691 14.4564 12.5931 13.9044 12.5931ZM13.9044 11.5611C14.2404 11.5611 14.5484 11.4811 14.8284 11.3211C15.1084 11.1531 15.3284 10.9291 15.4884 10.6491C15.6564 10.3691 15.7404 10.0651 15.7404 9.73709V6.43709C15.7404 6.10909 15.6564 5.80509 15.4884 5.52509C15.3284 5.24509 15.1084 5.02509 14.8284 4.86509C14.5484 4.69709 14.2404 4.61309 13.9044 4.61309C13.5764 4.61309 13.2724 4.69709 12.9924 4.86509C12.7124 5.02509 12.4884 5.24509 12.3204 5.52509C12.1604 5.80509 12.0804 6.10909 12.0804 6.43709V9.73709C12.0804 10.0651 12.1604 10.3691 12.3204 10.6491C12.4884 10.9291 12.7124 11.1531 12.9924 11.3211C13.2724 11.4811 13.5764 11.5611 13.9044 11.5611Z" fill="white"/>
<g filter="url(#filter0_b_589_6077)">
<path d="M8 101.413C6.1579 104.726 4.88259 107.005 3 110.413L5.51012 114.913L8 119.413L10.5101 114.913L13 110.413L8 101.413Z" fill="white"/>
</g>
<g filter="url(#filter1_b_589_6077)">
<path d="M8 81.4131C6.1579 84.7259 4.88259 87.0046 3 90.4131L5.51012 94.9131L8 99.4131L10.5101 94.9131L13 90.4131L8 81.4131Z" fill="white"/>
</g>
<g filter="url(#filter2_b_589_6077)">
<path d="M8 61.4131C6.1579 64.7259 4.88259 67.0046 3 70.4131L5.51012 74.9131L8 79.4131L10.5101 74.9131L13 70.4131L8 61.4131Z" fill="white"/>
</g>
<g filter="url(#filter3_b_589_6077)">
<path d="M8 41.4131C6.1579 44.7259 4.88259 47.0046 3 50.4131L5.51012 54.9131L8 59.4131L10.5101 54.9131L13 50.4131L8 41.4131Z" fill="white"/>
</g>
<g filter="url(#filter4_b_589_6077)">
<path d="M5.94678 34.6695L5.94762 34.671L8.00177 38.3835L10.0726 34.671L10.0735 34.6695L12.4283 30.4136L7.99973 22.4422C7.62835 23.1096 7.27806 23.7386 6.9378 24.3497C5.83612 26.3281 4.8395 28.1178 3.57187 30.4119L5.94678 34.6695Z" stroke="white"/>
</g>
<defs>
<filter id="filter0_b_589_6077" x="-7" y="91.4131" width="30" height="38" filterUnits="userSpaceOnUse" color-interpolation-filters="sRGB">
<feFlood flood-opacity="0" result="BackgroundImageFix"/>
<feGaussianBlur in="BackgroundImageFix" stdDeviation="5"/>
<feComposite in2="SourceAlpha" operator="in" result="effect1_backgroundBlur_589_6077"/>
<feBlend mode="normal" in="SourceGraphic" in2="effect1_backgroundBlur_589_6077" result="shape"/>
</filter>
<filter id="filter1_b_589_6077" x="-7" y="71.4131" width="30" height="38" filterUnits="userSpaceOnUse" color-interpolation-filters="sRGB">
<feFlood flood-opacity="0" result="BackgroundImageFix"/>
<feGaussianBlur in="BackgroundImageFix" stdDeviation="5"/>
<feComposite in2="SourceAlpha" operator="in" result="effect1_backgroundBlur_589_6077"/>
<feBlend mode="normal" in="SourceGraphic" in2="effect1_backgroundBlur_589_6077" result="shape"/>
</filter>
<filter id="filter2_b_589_6077" x="-7" y="51.4131" width="30" height="38" filterUnits="userSpaceOnUse" color-interpolation-filters="sRGB">
<feFlood flood-opacity="0" result="BackgroundImageFix"/>
<feGaussianBlur in="BackgroundImageFix" stdDeviation="5"/>
<feComposite in2="SourceAlpha" operator="in" result="effect1_backgroundBlur_589_6077"/>
<feBlend mode="normal" in="SourceGraphic" in2="effect1_backgroundBlur_589_6077" result="shape"/>
</filter>
<filter id="filter3_b_589_6077" x="-7" y="31.4131" width="30" height="38" filterUnits="userSpaceOnUse" color-interpolation-filters="sRGB">
<feFlood flood-opacity="0" result="BackgroundImageFix"/>
<feGaussianBlur in="BackgroundImageFix" stdDeviation="5"/>
<feComposite in2="SourceAlpha" operator="in" result="effect1_backgroundBlur_589_6077"/>
<feBlend mode="normal" in="SourceGraphic" in2="effect1_backgroundBlur_589_6077" result="shape"/>
</filter>
<filter id="filter4_b_589_6077" x="-7" y="11.4131" width="30" height="38" filterUnits="userSpaceOnUse" color-interpolation-filters="sRGB">
<feFlood flood-opacity="0" result="BackgroundImageFix"/>
<feGaussianBlur in="BackgroundImageFix" stdDeviation="5"/>
<feComposite in2="SourceAlpha" operator="in" result="effect1_backgroundBlur_589_6077"/>
<feBlend mode="normal" in="SourceGraphic" in2="effect1_backgroundBlur_589_6077" result="shape"/>
</filter>
</defs>
</svg>
