<svg width="16" height="16" viewBox="0 0 16 16" fill="none" xmlns="http://www.w3.org/2000/svg">
<path d="M4.78585 9.09418C5.22637 9.09418 5.58349 8.74171 5.58349 8.3069C5.58349 7.8721 5.22637 7.51962 4.78585 7.51962C4.34532 7.51962 3.98821 7.8721 3.98821 8.3069C3.98821 8.74171 4.34532 9.09418 4.78585 9.09418Z" fill="#79655E"/>
<path d="M8.77405 8.3069C8.77405 8.74171 8.41694 9.09418 7.97641 9.09418C7.53589 9.09418 7.17877 8.74171 7.17877 8.3069C7.17877 7.8721 7.53589 7.51962 7.97641 7.51962C8.41694 7.51962 8.77405 7.8721 8.77405 8.3069Z" fill="#79655E"/>
<path d="M11.167 9.09418C11.6075 9.09418 11.9646 8.74171 11.9646 8.3069C11.9646 7.8721 11.6075 7.51962 11.167 7.51962C10.7264 7.51962 10.3693 7.8721 10.3693 8.3069C10.3693 8.74171 10.7264 9.09418 11.167 9.09418Z" fill="#79655E"/>
<path d="M5.58349 11.456C5.58349 11.8908 5.22637 12.2433 4.78585 12.2433C4.34532 12.2433 3.98821 11.8908 3.98821 11.456C3.98821 11.0212 4.34532 10.6687 4.78585 10.6687C5.22637 10.6687 5.58349 11.0212 5.58349 11.456Z" fill="#79655E"/>
<path d="M7.97641 12.2433C8.41694 12.2433 8.77405 11.8908 8.77405 11.456C8.77405 11.0212 8.41694 10.6687 7.97641 10.6687C7.53589 10.6687 7.17877 11.0212 7.17877 11.456C7.17877 11.8908 7.53589 12.2433 7.97641 12.2433Z" fill="#79655E"/>
<path fill-rule="evenodd" clip-rule="evenodd" d="M4.78585 1.22136C4.78585 0.78656 4.42873 0.434082 3.98821 0.434082C3.54768 0.434082 3.19056 0.78656 3.19056 1.22136H1.59528C0.714232 1.22136 0 1.92632 0 2.79593V13.8179C0 14.6875 0.714233 15.3924 1.59528 15.3924H14.3575C15.2386 15.3924 15.9528 14.6875 15.9528 13.8179V2.79593C15.9528 1.92632 15.2386 1.22136 14.3575 1.22136H12.7623C12.7623 0.78656 12.4051 0.434082 11.9646 0.434082C11.5241 0.434082 11.167 0.78656 11.167 1.22136H4.78585ZM1.59528 4.37049V2.79593H14.3575V4.37049H1.59528ZM1.59528 5.94506V13.8179H9.70857L14.3575 9.22928V5.94506H1.59528ZM14.3575 11.4561L11.9646 13.8179H14.3575V11.4561Z" fill="#79655E"/>
</svg>
