<svg width="15" height="17" viewBox="0 0 15 17" fill="none" xmlns="http://www.w3.org/2000/svg">
<path d="M1.66667 16.9131H0V16.071C0.00367386 12.8169 2.6132 10.18 5.83333 10.1762H9.16667C12.3868 10.18 14.9963 12.8169 15 16.071V16.9131H13.3333V16.071C13.3306 13.7467 11.4667 11.8632 9.16667 11.8605H5.83333C3.53329 11.8632 1.66942 13.7467 1.66667 16.071V16.9131ZM7.5 9.33414C5.19881 9.33414 3.33333 7.44902 3.33333 5.12361C3.33333 2.7982 5.19881 0.913086 7.5 0.913086C9.80119 0.913086 11.6667 2.7982 11.6667 5.12361C11.6639 7.44787 9.80004 9.33135 7.5 9.33414ZM7.5 2.5973C6.11929 2.5973 5 3.72837 5 5.12361C5 6.51886 6.11929 7.64993 7.5 7.64993C8.88071 7.64993 10 6.51886 10 5.12361C10 3.72837 8.88071 2.5973 7.5 2.5973Z" fill="#79655E"/>
</svg>
