<svg width="8" height="8" viewBox="0 0 8 8" fill="none" xmlns="http://www.w3.org/2000/svg">
<path d="M4.84055 0.186854L4.59084 0.302105L4.34113 0.436565L4.09141 0.551816L3.8417 0.667067L3.59199 0.782318L3.34228 0.916778L3.09257 1.03203L2.84286 1.16649L2.61236 1.30095L2.36265 1.43541L2.11294 1.55066L1.88243 1.68512L1.63272 1.81958L1.40222 1.95404L1.15251 2.0885L0.922009 2.22296L0.672298 2.37663L0.441796 2.51109L0.211294 2.66475L0 2.78L2.78524 7.29401L2.95811 7.17875L3.16941 7.0443L3.36149 6.92904L3.57278 6.81379L3.78408 6.67933L3.99537 6.56408L4.22587 6.44883L4.43717 6.33358L4.64846 6.21833L4.85976 6.08387L5.07105 5.96862L5.28234 5.87258L5.51284 5.75732L5.72414 5.64207L5.93543 5.52682L6.16593 5.43078L6.37723 5.31553L6.60773 5.20028L6.81902 5.10424L7.04953 5.00819L7.16478 4.95057L4.9558 0.148438L4.84055 0.186854Z" fill="white"/>
</svg>
