<svg width="16" height="15" viewBox="0 0 16 15" fill="none" xmlns="http://www.w3.org/2000/svg">
<path d="M4.78585 8.6601C5.22637 8.6601 5.58349 8.30763 5.58349 7.87282C5.58349 7.43802 5.22637 7.08554 4.78585 7.08554C4.34532 7.08554 3.98821 7.43802 3.98821 7.87282C3.98821 8.30763 4.34532 8.6601 4.78585 8.6601Z" fill="#79655E"/>
<path d="M8.77405 7.87282C8.77405 8.30763 8.41694 8.6601 7.97641 8.6601C7.53589 8.6601 7.17877 8.30763 7.17877 7.87282C7.17877 7.43802 7.53589 7.08554 7.97641 7.08554C8.41694 7.08554 8.77405 7.43802 8.77405 7.87282Z" fill="#79655E"/>
<path d="M11.167 8.6601C11.6075 8.6601 11.9646 8.30763 11.9646 7.87282C11.9646 7.43802 11.6075 7.08554 11.167 7.08554C10.7264 7.08554 10.3693 7.43802 10.3693 7.87282C10.3693 8.30763 10.7264 8.6601 11.167 8.6601Z" fill="#79655E"/>
<path d="M5.58349 11.0219C5.58349 11.4568 5.22637 11.8092 4.78585 11.8092C4.34532 11.8092 3.98821 11.4568 3.98821 11.0219C3.98821 10.5871 4.34532 10.2347 4.78585 10.2347C5.22637 10.2347 5.58349 10.5871 5.58349 11.0219Z" fill="#79655E"/>
<path d="M7.97641 11.8092C8.41694 11.8092 8.77405 11.4568 8.77405 11.0219C8.77405 10.5871 8.41694 10.2347 7.97641 10.2347C7.53589 10.2347 7.17877 10.5871 7.17877 11.0219C7.17877 11.4568 7.53589 11.8092 7.97641 11.8092Z" fill="#79655E"/>
<path fill-rule="evenodd" clip-rule="evenodd" d="M4.78585 0.787282C4.78585 0.352478 4.42873 0 3.98821 0C3.54768 0 3.19056 0.352478 3.19056 0.787282H1.59528C0.714232 0.787282 0 1.49224 0 2.36185V13.3838C0 14.2534 0.714233 14.9584 1.59528 14.9584H14.3575C15.2386 14.9584 15.9528 14.2534 15.9528 13.3838V2.36185C15.9528 1.49224 15.2386 0.787282 14.3575 0.787282H12.7623C12.7623 0.352478 12.4051 0 11.9646 0C11.5241 0 11.167 0.352478 11.167 0.787282H4.78585ZM1.59528 3.93641V2.36185H14.3575V3.93641H1.59528ZM1.59528 5.51097V13.3838H9.70857L14.3575 8.7952V5.51097H1.59528ZM14.3575 11.022L11.9646 13.3838H14.3575V11.022Z" fill="#79655E"/>
</svg>
