<svg width="59" height="44" viewBox="0 0 59 44" fill="none" xmlns="http://www.w3.org/2000/svg">
<path d="M6.70808 38.8565C3.21332 38.5053 1.5016 36.0473 1.14499 32.6762C0.57442 26.9876 1.57292 29.0945 6.20883 27.3387C14.2682 24.3188 19.2607 20.3157 28.5325 21.931C35.0228 23.0547 40.4432 26.8471 46.5056 28.7433C49.4298 29.6563 55.4208 29.6563 57.2038 32.6762C59.5575 36.6793 56.2767 38.3649 52.7819 38.7863" stroke="#79655E" stroke-width="2" stroke-miterlimit="10" stroke-linecap="round" stroke-linejoin="round"/>
<path d="M21.3281 39.3477H38.16" stroke="#79655E" stroke-width="2" stroke-miterlimit="10" stroke-linecap="round" stroke-linejoin="round"/>
<path d="M54.5643 33.9403C54.3503 33.9403 54.065 33.9403 53.7797 33.8701C51.7114 33.6594 51.2835 33.238 50.7129 32.1846" stroke="#79655E" stroke-width="2" stroke-miterlimit="10" stroke-linecap="round" stroke-linejoin="round"/>
<path d="M18.3341 38.2245C18.3341 35.8366 16.4084 33.9404 13.9834 33.9404C11.5585 33.9404 9.63281 35.8366 9.63281 38.2245C9.63281 40.6123 11.5585 42.5085 13.9834 42.5085C16.337 42.4383 18.3341 40.5421 18.3341 38.2245Z" stroke="#79655E" stroke-width="2" stroke-miterlimit="10" stroke-linecap="round" stroke-linejoin="round"/>
<path d="M49.7149 38.2245C49.7149 35.8366 47.7892 33.9404 45.3643 33.9404C42.9394 33.9404 41.0137 35.8366 41.0137 38.2245C41.0137 40.6123 42.9394 42.5085 45.3643 42.5085C47.7892 42.4383 49.7149 40.5421 49.7149 38.2245Z" stroke="#79655E" stroke-width="2" stroke-miterlimit="10" stroke-linecap="round" stroke-linejoin="round"/>
<path d="M5.71027 32.9568C4.14119 33.5889 3.4993 32.6759 3.78459 30.9202C3.85591 30.7797 3.99855 30.7095 4.14119 30.7095H7.1367C7.35067 30.7095 7.49331 30.8499 7.42199 31.0606C7.42199 31.1309 7.42199 31.2011 7.35067 31.2713C7.1367 31.9034 6.42349 32.6759 5.71027 32.9568Z" stroke="#79655E" stroke-width="2" stroke-miterlimit="10" stroke-linecap="round" stroke-linejoin="round"/>
<path d="M25.4652 28.7434L39.0164 29.6564C39.4443 29.6564 39.5869 29.0945 39.159 28.8838C38.3745 28.5327 37.5186 28.1113 36.8767 27.8304C34.0238 26.4258 31.8129 25.5128 28.3894 24.7402C27.2483 24.4593 24.8233 24.3188 24.6094 24.3188L25.4652 28.7434Z" stroke="#79655E" stroke-width="2" stroke-miterlimit="10" stroke-linecap="round" stroke-linejoin="round"/>
<path d="M21.7571 24.5298C19.9028 24.8107 18.1197 25.3725 16.3367 26.0749C16.1227 26.1451 15.2669 26.5665 14.411 26.9176C13.7691 27.1985 13.9831 28.1115 14.625 28.1818L22.3277 28.6734L21.7571 24.5298Z" stroke="#79655E" stroke-width="2" stroke-miterlimit="10" stroke-linecap="round" stroke-linejoin="round"/>
<path d="M3.42773 43H54.7793" stroke="#79655E" stroke-width="2" stroke-miterlimit="10" stroke-linecap="round" stroke-linejoin="round"/>
<path d="M2.71484 21.9307H8.42058" stroke="#79655E" stroke-width="2" stroke-miterlimit="10" stroke-linecap="round" stroke-linejoin="round"/>
<path d="M9.13281 17.7173H13.4121" stroke="#79655E" stroke-width="2" stroke-miterlimit="10" stroke-linecap="round" stroke-linejoin="round"/>
<path d="M29.5 7.45079L37.6666 17.8553L50.8965 1" stroke="#79655E" stroke-width="2" stroke-miterlimit="10" stroke-linecap="round" stroke-linejoin="round"/>
</svg>
