<svg width="60" height="48" viewBox="0 0 60 48" fill="none" xmlns="http://www.w3.org/2000/svg">
<path d="M26.4916 25.5941C25.354 26.541 24.1027 27.5825 23.6477 27.9613C23.0088 28.5123 21.7489 29.4064 20.796 29.1749C20.2802 29.0243 21.0142 29.5926 12.9811 26.3422C12.9811 26.3422 15.0987 24.5603 15.6233 24.6069C16.1479 24.6535 19.6369 24.6493 19.6369 24.6493L28.1861 17.5914C30.8025 15.4136 34.5192 14.9685 35.384 15.9886C36.1702 16.9388 34.5157 18.9925 32.1704 21.2153L30.2057 28.167L27.9305 30.0608L26.4916 25.5941Z" stroke="#79655E" stroke-width="2" stroke-miterlimit="10" stroke-linecap="round" stroke-linejoin="round"/>
<path d="M23.0623 21.5741L21.0077 20.8672L22.9419 19.257L26.0642 19.0943" stroke="#79655E" stroke-width="2" stroke-miterlimit="10" stroke-linecap="round" stroke-linejoin="round"/>
<path d="M57.8291 19.7303C58.4532 21.2897 57.6859 23.0432 56.1094 23.6605L15.9517 39.3841C14.3752 40.0014 12.6025 39.2424 11.9785 37.683L6.27522 23.4318C5.65115 21.8724 6.41842 20.119 7.99495 19.5017L48.1964 3.7609C49.7729 3.14362 51.5456 3.90255 52.1697 5.46195L57.8729 19.7132L57.8291 19.7303Z" stroke="#79655E" stroke-width="2" stroke-miterlimit="10" stroke-linecap="round" stroke-linejoin="round"/>
<path d="M46.9798 14.0081L48.1612 11.391L50.8482 18.1052" stroke="#79655E" stroke-width="2" stroke-miterlimit="10" stroke-linecap="round" stroke-linejoin="round"/>
<path d="M39.1328 7.56079L39.6009 8.73035" stroke="#79655E" stroke-width="2" stroke-miterlimit="10" stroke-linecap="round" stroke-linejoin="round"/>
<path d="M40.9688 12.1533L41.4195 13.2796" stroke="#79655E" stroke-width="2" stroke-miterlimit="10" stroke-linecap="round" stroke-linejoin="round"/>
<path d="M42.7891 16.7012L43.2571 17.8707" stroke="#79655E" stroke-width="2" stroke-miterlimit="10" stroke-linecap="round" stroke-linejoin="round"/>
<path d="M44.6094 21.2493L45.0774 22.4188" stroke="#79655E" stroke-width="2" stroke-miterlimit="10" stroke-linecap="round" stroke-linejoin="round"/>
<path d="M46.4453 25.8411L46.9134 27.0106" stroke="#79655E" stroke-width="2" stroke-miterlimit="10" stroke-linecap="round" stroke-linejoin="round"/>
<path d="M19.6877 14.9238L36.7548 1.87793C38.0704 0.861771 39.9936 1.11082 41.0209 2.41213L43.4323 5.52642" stroke="#79655E" stroke-width="2" stroke-miterlimit="10" stroke-linecap="round" stroke-linejoin="round"/>
<path d="M30.4039 33.726L15.7836 44.9118C14.468 45.928 12.5448 45.6789 11.5175 44.3776L2.03716 32.2066C1.00984 30.9053 1.26163 29.0029 2.57722 27.9868L6.72562 24.8092" stroke="#79655E" stroke-width="2" stroke-miterlimit="10" stroke-linecap="round" stroke-linejoin="round"/>
</svg>
