<svg width="36" height="16" viewBox="0 0 36 16" fill="none" xmlns="http://www.w3.org/2000/svg">
<path d="M17.921 15.7568L16.1636 12.4263L14.4629 9.09582C15.6817 6.75737 16.7588 4.73072 17.9635 2.4348L21.464 9.09582L19.6642 12.4263L17.921 15.7568Z" fill="#0C0B10"/>
<path d="M35.5659 4.40462L35.3959 4.50383L35.2258 4.61721L35.0416 4.71642L34.8715 4.8298L34.6873 4.929L34.5172 5.02821L34.3471 5.12742L34.1629 5.22662L33.9786 5.32583L33.8086 5.41086L33.6243 5.51007L33.4401 5.60928L33.27 5.70848L33.0858 5.79352L32.9015 5.89272L32.7173 5.97776L32.5331 6.06279L32.3488 6.14783L32.1646 6.24703L32.0654 6.28955L30.4355 2.73228L30.5064 2.70394L30.6765 2.63308L30.8324 2.54804L31.0024 2.46301L31.1583 2.39214L31.3142 2.30711L31.4843 2.22208L31.6402 2.13704L31.7961 2.06618L31.952 1.98115L32.1221 1.88194L32.278 1.7969L32.4339 1.71187L32.5897 1.62684L32.7456 1.5418L32.9015 1.4426L33.0574 1.35756L33.2133 1.27253L33.3692 1.17332L33.5251 1.07411L33.6668 0.989079L35.7077 4.31959L35.5659 4.40462Z" fill="#0C0B10"/>
<path d="M27.9409 7.87712L27.7425 7.93381L27.544 7.9905L27.3456 8.06136L27.1472 8.11805L26.9488 8.16057L26.7362 8.21726L26.5378 8.27395L26.3394 8.33064L26.141 8.37316L25.9284 8.42985L25.73 8.48654L25.5316 8.52905L25.319 8.57157L25.1206 8.61409L24.908 8.67078L24.7096 8.71329L24.497 8.74164L24.2986 8.78416L24.1852 8.8125L23.4766 4.97178L23.5616 4.95761L23.7458 4.91509L23.9301 4.88675L24.1001 4.84423L24.2844 4.80172L24.4686 4.7592L24.6529 4.71668L24.8229 4.67416L25.0072 4.64582L25.1914 4.58913L25.3615 4.54661L25.5457 4.5041L25.73 4.44741L25.9 4.40489L26.0701 4.36237L26.2543 4.30568L26.4244 4.24899L26.6087 4.20648L26.7787 4.14979L26.963 4.0931L27.0338 4.06475L28.2101 7.79209L28.1393 7.80626L27.9409 7.87712Z" fill="#0C0B10"/>
<path d="M11.7563 8.82665L11.5437 8.78413L11.3312 8.74161L11.1327 8.71327L10.9202 8.67075L10.7217 8.61406L10.5092 8.57154L10.3107 8.52903L10.0982 8.48651L9.89975 8.42982L9.70133 8.37313L9.50292 8.33062L9.29033 8.27392L9.09192 8.21724L8.89351 8.16055L8.69509 8.11803L8.49668 8.06134L8.29827 7.99048L8.08568 7.93379L7.90144 7.8771L7.81641 7.84875L8.99271 4.12142L9.0494 4.14976L9.23364 4.20645L9.40371 4.24897L9.57378 4.30566L9.75802 4.36235L9.94226 4.40486L10.1123 4.44738L10.2966 4.50407L10.4666 4.54659L10.6509 4.58911L10.821 4.64579L11.0052 4.67414L11.1894 4.71666L11.3737 4.75917L11.5437 4.80169L11.728 4.84421L11.9122 4.88673L12.0965 4.91507L12.2807 4.95759L12.4508 4.98593L12.55 5.0001L11.8414 8.84082L11.7563 8.82665Z" fill="#0C0B10"/>
<path d="M3.86246 6.33225L3.67822 6.24722L3.49397 6.14801L3.30973 6.06298L3.12549 5.97794L2.94125 5.89291L2.75701 5.7937L2.57277 5.70867L2.38853 5.60946L2.21846 5.51025L2.03422 5.41105L1.84998 5.32601L1.67991 5.22681L1.49567 5.1276L1.3256 5.02839L1.14136 4.92919L0.97129 4.82998L0.787049 4.7166L0.61698 4.61739L0.446912 4.50401L0.291016 4.41898L2.34601 1.08847L2.47356 1.1735L2.62946 1.27271L2.77118 1.35775L2.92708 1.44278L3.08297 1.54199L3.23887 1.62702L3.40894 1.71205L3.56484 1.79709L3.72073 1.88212L3.87663 1.98133L4.03252 2.06636L4.18842 2.13723L4.35849 2.22226L4.51439 2.30729L4.67028 2.39233L4.84035 2.46319L4.99625 2.54823L5.16632 2.63326L5.32221 2.70412L5.49228 2.77498L5.57731 2.8175L3.94749 6.3606L3.86246 6.33225Z" fill="#0C0B10"/>
</svg>
