<svg width="445" height="100" viewBox="0 0 445 100" fill="none" xmlns="http://www.w3.org/2000/svg">
<path fill-rule="evenodd" clip-rule="evenodd" d="M180.457 17.6038H135.875C119.03 17.6038 105.375 31.2591 105.375 48.1038C105.375 64.9484 119.03 78.6038 135.875 78.6038H180.457V77.6038H135.875C119.583 77.6038 106.375 64.3962 106.375 48.1038C106.375 31.8114 119.583 18.6038 135.875 18.6038H180.457V17.6038ZM265.906 77.6038H308.875C325.167 77.6038 338.375 64.3962 338.375 48.1038C338.375 31.8114 325.167 18.6038 308.875 18.6038H265.906V17.6038H308.875C325.72 17.6038 339.375 31.2591 339.375 48.1038C339.375 64.9484 325.72 78.6038 308.875 78.6038H265.906V77.6038Z" fill="#0C0B10"/>
<rect x="0.375" y="26.6038" width="444" height="55" rx="27.5" fill="#0C0B10"/>
<path d="M221.642 0.60376L219.26 5.11776L216.955 9.63176C218.607 12.8012 220.067 15.548 221.7 18.6598L226.444 9.63176L224.005 5.11776L221.642 0.60376Z" fill="#0C0B10"/>
<path d="M245.813 15.9898L245.582 15.8553L245.352 15.7017L245.102 15.5672L244.872 15.4135L244.622 15.2791L244.391 15.1446L244.161 15.0102L243.911 14.8757L243.662 14.7412L243.431 14.626L243.181 14.4915L242.932 14.3571L242.701 14.2226L242.451 14.1074L242.202 13.9729L241.952 13.8576L241.702 13.7424L241.453 13.6271L241.203 13.4927L241.068 13.4351L238.859 18.2564L238.955 18.2948L239.186 18.3909L239.397 18.5061L239.628 18.6214L239.839 18.7174L240.05 18.8327L240.281 18.9479L240.492 19.0632L240.703 19.1592L240.915 19.2744L241.145 19.4089L241.356 19.5242L241.568 19.6394L241.779 19.7547L241.99 19.8699L242.202 20.0044L242.413 20.1196L242.624 20.2349L242.836 20.3693L243.047 20.5038L243.239 20.619L246.005 16.105L245.813 15.9898Z" fill="#0C0B10"/>
<path d="M235.494 11.2836L235.225 11.2068L234.956 11.13L234.687 11.0339L234.418 10.9571L234.149 10.8995L233.861 10.8226L233.592 10.7458L233.323 10.669L233.055 10.6113L232.766 10.5345L232.498 10.4577L232.229 10.4L231.94 10.3424L231.672 10.2848L231.383 10.208L231.114 10.1503L230.826 10.1119L230.557 10.0543L230.404 10.0159L229.443 15.2214L229.559 15.2406L229.808 15.2982L230.058 15.3366L230.289 15.3943L230.538 15.4519L230.788 15.5095L231.038 15.5671L231.268 15.6248L231.518 15.6632L231.768 15.74L231.998 15.7976L232.248 15.8553L232.498 15.9321L232.728 15.9897L232.959 16.0473L233.208 16.1242L233.439 16.201L233.688 16.2586L233.919 16.3355L234.169 16.4123L234.265 16.4507L235.859 11.3989L235.763 11.3797L235.494 11.2836Z" fill="#0C0B10"/>
<path d="M212.879 9.99675L212.591 10.0544L212.303 10.112L212.034 10.1504L211.746 10.208L211.477 10.2849L211.189 10.3425L210.92 10.4001L210.632 10.4578L210.363 10.5346L210.094 10.6114L209.825 10.669L209.537 10.7459L209.268 10.8227L208.999 10.8995L208.73 10.9572L208.461 11.034L208.192 11.13L207.904 11.2069L207.654 11.2837L207.539 11.3221L209.133 16.374L209.21 16.3356L209.46 16.2587L209.69 16.2011L209.921 16.1243L210.171 16.0474L210.42 15.9898L210.651 15.9322L210.901 15.8553L211.131 15.7977L211.381 15.7401L211.611 15.6633L211.861 15.6248L212.111 15.5672L212.36 15.5096L212.591 15.452L212.841 15.3943L213.09 15.3367L213.34 15.2983L213.59 15.2407L213.82 15.2023L213.955 15.183L212.994 9.97754L212.879 9.99675Z" fill="#0C0B10"/>
<path d="M202.216 13.3773L201.966 13.4925L201.716 13.627L201.466 13.7422L201.217 13.8575L200.967 13.9727L200.717 14.1072L200.468 14.2225L200.218 14.3569L199.987 14.4914L199.738 14.6258L199.488 14.7411L199.257 14.8755L199.008 15.01L198.777 15.1445L198.528 15.2789L198.297 15.4134L198.047 15.5671L197.817 15.7015L197.586 15.8552L197.375 15.9704L200.16 20.4844L200.333 20.3692L200.544 20.2347L200.736 20.1195L200.948 20.0042L201.159 19.8698L201.37 19.7545L201.601 19.6393L201.812 19.524L202.023 19.4088L202.235 19.2743L202.446 19.159L202.657 19.063L202.888 18.9478L203.099 18.8325L203.31 18.7173L203.541 18.6212L203.752 18.506L203.983 18.3907L204.194 18.2947L204.425 18.1986L204.54 18.141L202.331 13.3389L202.216 13.3773Z" fill="#0C0B10"/>
<path d="M222.296 99.3606L220.539 96.0301L218.838 92.6996C220.057 90.3611 221.134 88.3345 222.338 86.0386L225.839 92.6996L224.039 96.0301L222.296 99.3606Z" fill="#0C0B10"/>
<path d="M239.941 88.0084L239.771 88.1076L239.601 88.221L239.417 88.3202L239.247 88.4336L239.062 88.5328L238.892 88.632L238.722 88.7312L238.538 88.8304L238.354 88.9296L238.184 89.0146L237.999 89.1138L237.815 89.213L237.645 89.3122L237.461 89.3973L237.277 89.4965L237.092 89.5815L236.908 89.6666L236.724 89.7516L236.54 89.8508L236.44 89.8933L234.811 86.336L234.881 86.3077L235.051 86.2368L235.207 86.1518L235.377 86.0668L235.533 85.9959L235.689 85.9109L235.859 85.8258L236.015 85.7408L236.171 85.6699L236.327 85.5849L236.497 85.4857L236.653 85.4007L236.809 85.3156L236.965 85.2306L237.121 85.1456L237.277 85.0464L237.432 84.9613L237.588 84.8763L237.744 84.7771L237.9 84.6779L238.042 84.5928L240.083 87.9233L239.941 88.0084Z" fill="#0C0B10"/>
<path d="M232.316 91.4809L232.117 91.5376L231.919 91.5943L231.721 91.6651L231.522 91.7218L231.324 91.7643L231.111 91.821L230.913 91.8777L230.714 91.9344L230.516 91.9769L230.303 92.0336L230.105 92.0903L229.907 92.1328L229.694 92.1753L229.496 92.2178L229.283 92.2745L229.085 92.3171L228.872 92.3454L228.674 92.3879L228.56 92.4163L227.852 88.5755L227.937 88.5614L228.121 88.5189L228.305 88.4905L228.475 88.448L228.659 88.4055L228.844 88.363L229.028 88.3204L229.198 88.2779L229.382 88.2496L229.566 88.1929L229.736 88.1504L229.921 88.1079L230.105 88.0512L230.275 88.0086L230.445 87.9661L230.629 87.9094L230.799 87.8528L230.984 87.8102L231.154 87.7535L231.338 87.6969L231.409 87.6685L232.585 91.3958L232.514 91.41L232.316 91.4809Z" fill="#0C0B10"/>
<path d="M216.131 92.4304L215.919 92.3879L215.706 92.3454L215.508 92.317L215.295 92.2745L215.097 92.2178L214.884 92.1753L214.686 92.1328L214.473 92.0903L214.275 92.0336L214.076 91.9769L213.878 91.9344L213.665 91.8777L213.467 91.821L213.269 91.7643L213.07 91.7218L212.872 91.6651L212.673 91.5942L212.461 91.5375L212.276 91.4809L212.191 91.4525L213.368 87.7252L213.424 87.7535L213.609 87.8102L213.779 87.8527L213.949 87.9094L214.133 87.9661L214.317 88.0086L214.487 88.0511L214.672 88.1078L214.842 88.1503L215.026 88.1929L215.196 88.2496L215.38 88.2779L215.564 88.3204L215.749 88.3629L215.919 88.4055L216.103 88.448L216.287 88.4905L216.471 88.5188L216.656 88.5613L216.826 88.5897L216.925 88.6039L216.216 92.4446L216.131 92.4304Z" fill="#0C0B10"/>
<path d="M208.237 89.936L208.053 89.851L207.869 89.7518L207.685 89.6667L207.5 89.5817L207.316 89.4967L207.132 89.3975L206.948 89.3124L206.764 89.2132L206.593 89.114L206.409 89.0148L206.225 88.9298L206.055 88.8306L205.871 88.7314L205.701 88.6322L205.516 88.5329L205.346 88.4337L205.162 88.3204L204.992 88.2212L204.822 88.1078L204.666 88.0227L206.721 84.6922L206.849 84.7773L207.004 84.8765L207.146 84.9615L207.302 85.0465L207.458 85.1457L207.614 85.2308L207.784 85.3158L207.94 85.4008L208.096 85.4859L208.252 85.5851L208.408 85.6701L208.563 85.741L208.733 85.826L208.889 85.9111L209.045 85.9961L209.215 86.067L209.371 86.152L209.541 86.237L209.697 86.3079L209.867 86.3787L209.952 86.4213L208.322 89.9644L208.237 89.936Z" fill="#0C0B10"/>
</svg>
