<svg width="52" height="43" viewBox="0 0 52 43" fill="none" xmlns="http://www.w3.org/2000/svg">
<path d="M4.875 12.0625C5.5 5.87499 10.75 1 17.125 1C21.6875 1 25.8124 3.56249 27.9374 7.43748C30.0624 3.56249 34.1249 1 38.6874 1C45.4374 1 50.9999 6.49999 50.9999 13.3125C50.9999 27.3749 29.4374 40.6249 28.4999 41.1874L27.9374 41.5624L27.3749 41.1874C27.0624 40.9999 24.625 39.4999 21.4375 37.0624" stroke="#79655E" stroke-width="2" stroke-miterlimit="10" stroke-linecap="round" stroke-linejoin="round"/>
<path d="M38.6875 8.5625C41.3125 8.5625 43.4375 10.6875 43.4375 13.3125" stroke="#79655E" stroke-width="2" stroke-miterlimit="10" stroke-linecap="round" stroke-linejoin="round"/>
<path d="M7.0625 25L10.875 28.8125L17.0625 22.5625" stroke="#79655E" stroke-width="2" stroke-miterlimit="10" stroke-linecap="round" stroke-linejoin="round"/>
<path d="M11.75 12C11.75 12 5.87499 16.5625 1 16.5625V28.0625C1 30.4375 2 32.6249 3.62499 33.8124C5.31249 35.0624 10.4375 38.4374 10.6875 38.5624L11.75 39.2499L12.8125 38.5624C13 38.4374 18.125 35.0624 19.875 33.8124C21.4999 32.6249 22.4999 30.4375 22.4999 28.0625V16.5C17.5625 16.5 11.75 12 11.75 12Z" stroke="#79655E" stroke-width="2" stroke-miterlimit="10" stroke-linecap="round" stroke-linejoin="round"/>
</svg>
