<svg width="52" height="59" viewBox="0 0 52 59" fill="none" xmlns="http://www.w3.org/2000/svg">
<path d="M1.28397 46.3439C1.57329 46.5182 1.92047 46.402 2.06513 46.1406C2.12299 46.0534 2.18086 45.9372 2.23872 45.8501C3.77212 43.352 6.40493 41.4057 10.0504 40.0405C10.6869 39.8081 11.2655 39.6048 11.8441 39.4014L18.701 45.8791L19.3375 46.4891C19.4533 46.6053 19.5979 46.6344 19.7426 46.6344C19.8294 46.6344 19.9162 46.6053 20.003 46.5763L21.3338 45.8791L22.6358 45.182C22.9251 45.0367 23.0408 44.6882 22.8672 44.3977C22.7226 44.1072 22.3754 43.991 22.0861 44.1653L19.8294 45.3563L13.0882 38.9948C15.4606 38.2395 17.3412 37.8038 18.4985 37.5714L25.6158 44.2815C25.7315 44.3977 25.8762 44.4267 26.0208 44.4267C26.1655 44.4267 26.3102 44.3686 26.4259 44.2815L33.4853 37.5424C34.6426 37.7747 36.4653 38.2105 38.7509 38.9367L31.9519 45.3272L29.6952 44.1363C29.4059 43.991 29.0587 44.1072 28.914 44.3686C28.7694 44.6591 28.8851 45.0077 29.1455 45.1529L30.4764 45.8501L31.7783 46.5472C31.8651 46.6053 31.9519 46.6053 32.0387 46.6053C32.1833 46.6053 32.328 46.5472 32.4437 46.4601L33.0802 45.8791L39.9082 39.4305C39.9371 39.4014 39.9661 39.3724 39.995 39.3433C40.6026 39.5467 41.2391 39.7791 41.9045 40.0114C45.5789 41.3767 48.2117 43.352 49.7451 45.8791C49.8029 45.9663 49.8608 46.0825 49.9187 46.1696C50.0344 46.373 50.208 46.4601 50.4105 46.4601C50.4973 46.4601 50.613 46.431 50.6998 46.373C50.9891 46.2277 51.0759 45.8501 50.9313 45.5887C49.2822 42.6839 46.389 40.4472 42.3095 38.9076C38.5484 37.5133 35.5395 36.7581 33.8325 36.4095V30.1932C34.4111 29.1765 34.8162 27.9565 34.9319 26.5622C34.9897 26.0394 35.0765 24.8774 35.1344 24.4417C35.4237 24.0931 36.0313 23.1636 36.2049 21.7403C36.2917 21.0141 36.2049 20.4912 35.8866 20.1426C35.7998 20.0555 35.7131 19.9683 35.5973 19.9102C36.4363 17.3831 38.9245 8.63962 34.44 5.50244C32.4437 2.59764 29.4348 1.0581 25.8183 1C20.842 1.0581 18.701 3.99194 17.6595 5.50244C13.204 8.63962 15.316 17.3831 16.0682 19.9102C15.9525 19.9683 15.8368 20.0555 15.75 20.1717C15.4606 20.5202 15.3449 21.0431 15.4317 21.7693C15.6053 23.1927 16.2418 24.1222 16.5311 24.4708C16.5601 24.9065 16.6758 26.0684 16.7337 26.5913C16.8783 28.247 17.3991 29.6123 18.1803 30.7451V36.4385C16.4733 36.7871 13.4643 37.5424 9.70318 38.9367C5.6527 40.4472 2.7595 42.6839 1.11037 45.5596C0.907851 45.8501 0.994647 46.1987 1.28397 46.3439ZM18.3828 6.40293C18.4406 6.37388 18.4985 6.31578 18.5274 6.25769C19.5111 4.83433 21.3338 2.22002 25.8183 2.16192C29.1166 2.22002 31.7494 3.58527 33.601 6.25769C33.6299 6.31578 33.6878 6.37388 33.7457 6.40293C36.6099 8.32009 36.0892 13.2582 35.308 16.6859C35.0765 14.4202 34.469 11.7187 32.8777 10.4696C32.4148 10.1211 31.8362 9.94678 31.0261 9.94678C30.216 9.94678 29.2901 10.1211 28.3933 10.2954C27.4964 10.4696 26.5995 10.6439 25.8183 10.6439C25.0082 10.6439 24.1692 10.4406 23.3302 10.2663C22.4911 10.092 21.71 9.91773 20.9867 9.91773C20.2634 9.91773 19.6847 10.092 19.2507 10.4406C17.6305 11.7187 16.8783 14.5654 16.5311 16.8602C15.8657 13.4616 15.4606 8.34914 18.3828 6.40293ZM17.862 26.4751C17.8041 25.836 17.6595 24.1803 17.6595 24.1803C17.6595 24.0641 17.6016 23.9189 17.5148 23.8317C17.5148 23.8317 16.7915 23.0184 16.589 21.595C16.5311 21.1593 16.589 20.985 16.6179 20.9269H16.6469C16.6469 20.9269 16.6469 20.9269 16.6758 20.9269C16.7047 20.9269 16.7337 20.956 16.7915 20.956H16.8205C16.8494 20.956 16.8783 20.956 16.9362 20.956C16.9362 20.956 16.9362 20.956 16.9651 20.956C16.994 20.956 17.0519 20.9269 17.0808 20.9269H17.1098C17.1387 20.8979 17.1676 20.8979 17.1966 20.8688C17.1966 20.8688 17.1966 20.8688 17.2255 20.8688C17.2544 20.8398 17.2834 20.8107 17.3123 20.7817C17.3123 20.7817 17.3123 20.7817 17.3412 20.7526C17.3702 20.7236 17.3702 20.6945 17.3991 20.6655V20.6364C17.428 20.6074 17.428 20.5493 17.428 20.5202C17.428 20.4912 17.428 20.4622 17.428 20.4331C17.457 18.4578 17.9488 13.0259 20.003 11.3992C20.2634 11.1958 20.5816 11.1087 21.0445 11.1087C21.6521 11.1087 22.3754 11.2539 23.1566 11.4282C24.0535 11.6316 24.9793 11.8349 25.9051 11.8349C26.802 11.8349 27.7568 11.6316 28.7115 11.4573C29.6084 11.283 30.4185 11.1087 31.1129 11.1087C31.6336 11.1087 32.0098 11.1958 32.2412 11.3992C33.1092 12.0673 33.6299 13.4325 33.9482 14.914C34.3822 17.1797 34.3822 19.2131 34.3532 19.9974C34.3532 20.1426 34.3532 20.2588 34.3243 20.375C34.3243 20.4041 34.3243 20.4621 34.3243 20.4912C34.3243 20.5202 34.3243 20.5202 34.3243 20.5493C34.3243 20.5783 34.3243 20.5783 34.3243 20.5783C34.3532 20.6945 34.4111 20.7817 34.5268 20.8688C34.6426 20.956 34.7583 20.985 34.874 20.985C34.9319 20.985 34.9897 20.985 35.0187 20.956H35.0476H35.0765C35.1055 21.0141 35.1633 21.1883 35.1055 21.6241C34.9319 23.0474 34.2086 23.8608 34.1797 23.8608C34.0929 23.9479 34.035 24.0931 34.0061 24.2093C34.0061 24.2093 33.8614 25.8651 33.8035 26.5041C33.5142 29.9027 31.4311 32.3137 27.0334 34.318C26.9177 34.3761 26.3391 34.4342 25.8183 34.4633C25.3554 34.4342 24.7478 34.3761 24.6321 34.318C20.2344 32.2847 18.1513 29.8737 17.862 26.4751ZM24.1402 35.3638C24.4296 35.509 25.1818 35.5671 25.7894 35.6252H25.8183H25.8472C26.4259 35.5961 27.207 35.509 27.4964 35.3928C29.1744 34.6085 31.1707 33.5337 32.6752 31.849V36.729L25.9919 43.0905L19.2797 36.7V32.1975C20.7552 33.6499 22.6069 34.6666 24.1402 35.3638Z" fill="#79655E" stroke="#79655E"/>
<path d="M39.6768 52.2117C39.995 52.2117 40.2554 51.9503 40.2554 51.6308C40.2554 51.3112 39.995 51.0498 39.6768 51.0498H34.2954C33.9772 51.0498 33.7168 51.3112 33.7168 51.6308C33.7168 51.9503 33.9772 52.2117 34.2954 52.2117H39.6768Z" fill="#79655E" stroke="#79655E"/>
<path d="M23.1857 57.8758C23.2146 57.8758 23.2725 57.8758 23.3014 57.8758C23.5618 57.8758 23.7932 57.7015 23.88 57.411L25.3266 50.8171C25.3556 50.6719 25.3266 50.4976 25.2398 50.3814L24.4587 49.2195L26.0499 46.518L27.6123 49.2195L26.8022 50.4395C26.7154 50.5847 26.6864 50.73 26.7154 50.8752L28.133 57.411C28.1909 57.7306 28.5091 57.9339 28.8274 57.8467C29.1456 57.7887 29.3482 57.4691 29.2614 57.1496L27.9016 50.8752L28.7695 49.5681C28.8853 49.3938 28.9142 49.1324 28.7985 48.9581L27.0047 45.908L26.5128 45.0947C26.3971 44.9204 26.2235 44.8042 26.021 44.8042C25.8185 44.8042 25.6159 44.9204 25.5291 45.0947L25.0662 45.908L23.2435 48.929C23.1278 49.1323 23.1278 49.3647 23.2725 49.539L24.1115 50.8171L22.7227 57.1786C22.6649 57.4982 22.8674 57.7887 23.1857 57.8758Z" fill="#79655E" stroke="#79655E"/>
<path d="M28.5669 20.7234H30.8526C31.1708 20.7234 31.4312 20.462 31.4312 20.1425C31.4312 19.823 31.1708 19.5615 30.8526 19.5615H28.5669C28.2487 19.5615 27.9883 19.823 27.9883 20.1425C27.9883 20.462 28.2487 20.7234 28.5669 20.7234Z" fill="#79655E" stroke="#79655E"/>
<path d="M21.0728 20.7234H23.3584C23.6767 20.7234 23.937 20.462 23.937 20.1425C23.937 19.823 23.6767 19.5615 23.3584 19.5615H21.0728C20.7545 19.5615 20.4941 19.823 20.4941 20.1425C20.4941 20.462 20.7545 20.7234 21.0728 20.7234Z" fill="#79655E" stroke="#79655E"/>
</svg>
