<svg width="52" height="53" viewBox="0 0 52 53" fill="none" xmlns="http://www.w3.org/2000/svg">
<path d="M13.0308 4.59407C22.6153 -1.23703 35.3499 0.0364316 43.6609 8.34742C53.4464 18.1329 53.4464 33.9506 43.6609 43.6691C33.8753 53.4547 18.0576 53.4547 8.33914 43.6691C-1.44638 33.8836 -1.44638 18.0659 8.33914 8.34742" stroke="#79655E" stroke-width="2" stroke-miterlimit="10" stroke-linecap="round" stroke-linejoin="round"/>
<path d="M25.6973 10.894V25.9745L38.968 39.2452" stroke="#79655E" stroke-width="2" stroke-miterlimit="10" stroke-linecap="round" stroke-linejoin="round"/>
<path d="M9.85996 24.1824H13.4734V25.761H7.25781V24.3058L10.9822 21.0007C11.492 20.5485 11.7468 20.1127 11.7468 19.6934C11.7468 19.2824 11.6235 18.9453 11.3768 18.6822C11.1302 18.4191 10.8054 18.2875 10.4026 18.2875C9.98328 18.2875 9.63797 18.4273 9.36666 18.7068C9.09535 18.9782 8.96791 19.3029 8.98435 19.6811H7.25781C7.25781 19.0809 7.38936 18.5589 7.65245 18.1149C7.92376 17.6627 8.29785 17.3174 8.7747 17.079C9.25156 16.8323 9.80652 16.709 10.4396 16.709C11.0151 16.709 11.5331 16.8364 11.9935 17.0913C12.4539 17.3462 12.8156 17.7038 13.0787 18.1642C13.3418 18.6164 13.4734 19.1344 13.4734 19.7181C13.4734 20.1374 13.4117 20.4909 13.2884 20.7787C13.1733 21.0664 13.013 21.3213 12.8074 21.5433C12.6101 21.7571 12.2894 22.0572 11.8455 22.4436L9.85996 24.1824Z" fill="#79655E"/>
<path d="M18.3198 24.3921H14.4598V22.8259L17.2592 16.894H19.1831L16.3836 22.8259H18.3198V20.606H20.0217V22.8259H20.811V24.3921H20.0217V25.7733H18.3198V24.3921Z" fill="#79655E"/>
<path d="M18.6578 31.5756H14.8594V29.9971H20.4583V31.5756L17.4862 38.8764H15.6733L18.6578 31.5756Z" fill="#79655E"/>
</svg>
