<svg width="52" height="60" viewBox="0 0 52 60" fill="none" xmlns="http://www.w3.org/2000/svg">
<path d="M33.619 41.5466C35.2759 41.9018 38.4123 42.6417 42.2883 44.0623C45.6022 45.3053 48.1172 46.9923 49.715 49.1528C49.8038 49.2712 49.8925 49.3896 49.9517 49.4784C50.07 49.656 50.2476 49.7447 50.4251 49.7447C50.5435 49.7447 50.6618 49.7152 50.7506 49.6264C51.0169 49.4488 51.076 49.064 50.8985 48.7977C49.1528 46.282 46.4011 44.2991 42.673 42.9376C38.8561 41.517 35.7493 40.7475 34.0036 40.3924V34.1476C34.625 33.0822 35.0392 31.8391 35.1576 30.3889C35.2167 29.8562 35.3055 28.6723 35.3647 28.2284C35.6606 27.8732 36.2819 26.9262 36.4594 25.476C36.5482 24.7361 36.4594 24.2033 36.134 23.8482C36.0156 23.7002 35.8381 23.5818 35.6606 23.5226C35.6606 23.0787 35.6606 22.4572 35.631 21.6877C35.7493 21.6877 35.8677 21.6581 35.9564 21.5989C36.134 21.4805 36.2227 21.3029 36.2227 21.0957V17.5442C36.4594 17.5442 36.637 17.5442 36.7257 17.5442C39.1224 17.5442 41.0752 15.5909 41.0752 13.1936C41.0752 11.3586 39.9213 9.73084 38.2347 9.10933C38.0868 5.4986 35.0984 2.59819 31.4294 2.59819C30.0092 2.59819 27.4942 3.07173 26.0444 3.93001C24.5354 1.91748 22.7897 1 20.6001 1C16.7833 1 14.0315 3.84122 13.6469 8.10306C11.9604 8.99094 10.8952 10.7371 10.8952 12.6609C10.8952 15.4133 13.0551 17.6626 15.7773 17.8106V21.0661C15.7773 21.2733 15.866 21.4509 16.0435 21.5693C16.0435 21.5693 16.0435 21.5693 16.0731 21.5693C16.0435 22.3684 16.0435 23.0491 16.0435 23.493C15.866 23.5522 15.6885 23.6706 15.5701 23.8186C15.2743 24.1737 15.1559 24.7065 15.2447 25.4464C15.4222 26.8966 16.0731 27.8436 16.3394 28.1988C16.369 28.6723 16.4874 29.8266 16.5465 30.3593C16.6945 32.0167 17.2271 33.4077 17.9964 34.562V40.422C16.2507 40.7771 13.1439 41.5466 9.32701 42.9672C5.59889 44.3583 2.8176 46.3116 1.10148 48.8273C0.923949 49.0936 0.983125 49.4784 1.24942 49.656C1.51571 49.8335 1.90036 49.7743 2.07789 49.508C2.16666 49.3896 2.22583 49.2712 2.3146 49.1824C3.91236 47.0219 6.42736 45.3349 9.74125 44.0919C13.6469 42.6417 16.7833 41.9018 18.4402 41.5466C18.8544 41.8722 19.7421 42.4937 20.9848 43.0856C21.044 43.1744 21.1327 43.2336 21.2215 43.2632C21.2511 43.2632 21.5766 43.4112 22.1387 43.648C21.6061 43.7367 21.1031 43.8847 20.6593 44.0919C18.7065 44.9798 17.7301 46.8739 17.6709 46.9627C17.5821 47.1107 17.5821 47.3179 17.6709 47.4658C17.7597 47.6434 17.878 47.7618 18.0555 47.7914C18.0851 47.7914 18.7065 47.9394 19.5941 47.9394C20.541 47.9394 21.4286 47.7618 22.1979 47.4067H22.2275V47.4362C21.9612 48.0282 21.8428 48.6201 21.7837 49.1528C21.6357 50.4551 21.902 51.4909 21.902 51.5501C21.9612 51.7277 22.0796 51.8757 22.2275 51.9349C22.3163 51.9645 22.3754 51.994 22.4642 51.994C22.553 51.994 22.6417 51.9645 22.7305 51.9349C22.8193 51.9053 24.5354 50.9582 25.4526 49.1528C25.4822 49.064 25.5414 49.0048 25.571 48.9161C26.0148 47.9098 26.1036 46.8739 26.0444 46.0748C26.3107 46.0452 26.577 45.986 26.8137 45.8973C28.6186 46.8443 30.5418 47.969 32.0804 49.1528C33.1456 49.9519 34.0332 50.7806 34.5954 51.5797C35.631 53.1187 36.5186 55.3976 37.14 58.1796C37.1992 58.446 37.4359 58.6532 37.7022 58.6532C37.7317 58.6532 37.7909 58.6532 37.8205 58.6532C38.146 58.594 38.3531 58.2684 38.2643 57.9429C37.6134 54.9832 36.6962 52.6156 35.5422 50.9286C35.1576 50.3367 34.5954 49.7447 33.9149 49.1528C32.2579 47.673 29.8909 46.2228 27.7013 45.039C27.8789 44.743 27.9676 44.3879 27.9676 44.0327C30.8377 43.5592 32.9384 42.0794 33.619 41.5466ZM35.0688 20.2079C33.5598 19.6751 30.1276 18.6985 25.9556 18.6985C21.8133 18.6985 18.4402 19.6751 16.9312 20.2079V14.703C18.0555 14.2886 21.6061 13.1344 25.9556 13.1344C30.3051 13.1344 33.9149 14.3182 35.0688 14.7326V20.2079ZM15.7773 14.2886V16.5971C13.7061 16.4492 12.0787 14.7326 12.0787 12.6313C12.0787 11.0627 12.996 9.64206 14.4458 8.99094C14.6529 8.90215 14.7713 8.69498 14.8008 8.48781C15.0375 4.66991 17.3158 2.18384 20.6001 2.18384C22.553 2.18384 24.062 3.07173 25.4822 5.02507C25.571 5.17305 25.7189 5.26184 25.8964 5.26184C26.074 5.29143 26.2219 5.23224 26.3403 5.11386C27.2279 4.34436 29.8613 3.72284 31.459 3.72284C34.5658 3.72284 37.0808 6.23851 37.0808 9.3461V9.46448C37.0808 9.73084 37.2583 9.99721 37.5246 10.0564C38.9449 10.4116 39.9213 11.6842 39.9213 13.1344C39.9213 14.8806 38.501 16.3012 36.7553 16.3012C36.6666 16.3012 36.489 16.3012 36.2523 16.3012V14.259C36.2523 14.0223 36.1044 13.8151 35.8973 13.7263C35.7197 13.6671 31.459 11.921 25.9852 11.921C20.5114 11.921 16.3098 13.6671 16.1323 13.7263C15.9252 13.8447 15.7773 14.0519 15.7773 14.2886ZM17.7005 30.2705C17.6413 29.6194 17.4934 27.962 17.4934 27.9324C17.4934 27.8141 17.4342 27.6661 17.3454 27.5773C17.3454 27.5773 16.6057 26.7782 16.3986 25.2984C16.3394 24.8544 16.3986 24.6769 16.4282 24.6177C16.4578 24.6177 16.4578 24.6177 16.4578 24.6177C16.6353 24.6769 16.8424 24.6473 17.02 24.5289C17.1679 24.4105 17.2567 24.2033 17.2567 24.0258C17.2567 23.9962 17.1975 22.9307 17.2863 21.3621C18.6473 20.8886 21.9612 19.8823 26.0148 19.8823C29.7725 19.8823 32.968 20.7406 34.5066 21.2437C34.625 22.8419 34.5362 23.9666 34.5362 23.9962C34.5362 24.2033 34.5954 24.3809 34.7729 24.4993C34.9209 24.6177 35.128 24.6473 35.3351 24.5881H35.3647C35.3943 24.6473 35.4534 24.8248 35.3943 25.2688C35.2167 26.719 34.477 27.5181 34.4474 27.5477C34.3587 27.6365 34.2995 27.7845 34.2699 27.9028C34.2699 27.9324 34.122 29.5898 34.0628 30.2409C33.7669 33.7037 31.6366 36.1601 27.1391 38.2023C26.9912 38.2615 26.3994 38.3207 25.8964 38.3503C25.3934 38.3207 24.8017 38.2615 24.6833 38.2023C20.1267 36.1897 17.9964 33.7333 17.7005 30.2705ZM19.1503 36.0122C20.6593 37.5512 22.553 38.587 24.1507 39.2973C24.4466 39.4453 25.2159 39.5045 25.8373 39.5637H25.8668H25.8964C26.4882 39.5341 27.2575 39.4453 27.583 39.2973C29.2695 38.5278 31.3111 37.4032 32.8497 35.7162V40.6587C32.1987 41.1619 30.2755 42.4937 27.6421 42.9081C27.2575 42.3161 26.6361 41.9314 25.8964 41.9314C25.1863 41.9314 24.5354 42.2865 24.1803 42.8489C21.6357 42.3753 19.7717 41.0731 19.1799 40.5996V36.0122H19.1503ZM21.6357 46.3708C21.0144 46.6372 20.3043 46.7851 19.535 46.7851C19.4166 46.7851 19.2687 46.7851 19.1503 46.7851C19.5646 46.2524 20.2155 45.5717 21.0736 45.187C21.6949 44.9206 22.405 44.7726 23.1743 44.7726C23.2927 44.7726 23.4406 44.7726 23.559 44.7726C23.1743 45.2757 22.5234 45.9564 21.6357 46.3708ZM24.417 48.4425C24.0324 49.3304 23.3519 49.9815 22.8488 50.3959C22.7897 49.7447 22.8489 48.7977 23.2335 47.9098C23.6181 47.0219 24.2987 46.3708 24.8017 45.9564C24.8608 46.6372 24.8017 47.5842 24.417 48.4425ZM25.8668 44.9206C25.3638 44.9206 24.9792 44.5062 24.9792 44.0327C24.9792 43.5296 25.3934 43.1448 25.8668 43.1448C26.3699 43.1448 26.7545 43.5592 26.7545 44.0327C26.7841 44.5358 26.3699 44.9206 25.8668 44.9206Z" fill="#79655E" stroke="#79655E"/>
<path d="M30.127 55.3681C30.127 56.0784 30.6891 56.6704 31.4288 56.6704C32.139 56.6704 32.7307 56.0784 32.7307 55.3681C32.7307 54.6578 32.139 54.0659 31.4288 54.0659C30.6891 54.0659 30.127 54.6578 30.127 55.3681Z" fill="#79655E" stroke="#79655E"/>
<path d="M24.2687 54.0659C23.5586 54.0659 22.9668 54.6578 22.9668 55.3681C22.9668 56.0784 23.529 56.6704 24.2687 56.6704C24.9788 56.6704 25.5706 56.0784 25.5706 55.3681C25.5706 54.6578 24.9788 54.0659 24.2687 54.0659Z" fill="#79655E" stroke="#79655E"/>
<path d="M28.6484 24.3809H30.9859C31.3113 24.3809 31.5776 24.1145 31.5776 23.7889C31.5776 23.4634 31.3113 23.197 30.9859 23.197H28.6484C28.3229 23.197 28.0566 23.4634 28.0566 23.7889C28.0566 24.1145 28.3229 24.3809 28.6484 24.3809Z" fill="#79655E" stroke="#79655E"/>
<path d="M20.9843 24.3809H23.3218C23.6473 24.3809 23.9136 24.1145 23.9136 23.7889C23.9136 23.4634 23.6473 23.197 23.3218 23.197H20.9843C20.6589 23.197 20.3926 23.4634 20.3926 23.7889C20.3926 24.1145 20.6589 24.3809 20.9843 24.3809Z" fill="#79655E" stroke="#79655E"/>
<path d="M23.0857 31.3953C22.9081 31.3657 22.7602 31.2769 22.6419 31.1289C22.4347 30.8921 22.0501 30.8329 21.8134 31.0697C21.5767 31.2769 21.5175 31.6616 21.7542 31.8984C22.198 32.4311 22.7306 32.6087 23.3224 32.6087C24.2988 32.6087 25.364 32.0464 26.0149 31.5136C26.1037 31.4544 26.1629 31.3657 26.1924 31.2769C26.222 31.3657 26.2812 31.4544 26.37 31.5136C27.0209 32.0168 28.0565 32.6087 29.0625 32.6087C29.6247 32.6087 30.1869 32.4015 30.6307 31.8984C30.8378 31.6616 30.8082 31.2769 30.5715 31.0697C30.3348 30.8625 29.9501 30.8921 29.743 31.1289C29.6247 31.2769 29.4767 31.3657 29.2992 31.3953C29.0033 31.4544 28.6779 31.3953 28.3524 31.2769C27.731 31.0401 27.1393 30.5962 27.1393 30.5962C26.873 30.389 26.5179 30.4482 26.3108 30.685C26.2812 30.7145 26.2516 30.7737 26.222 30.8033C26.1924 30.7441 26.1924 30.7145 26.1628 30.685C25.9557 30.4186 25.6007 30.389 25.3344 30.5962C25.3344 30.5962 24.7426 31.0401 24.1213 31.2769C23.7366 31.3953 23.3816 31.4544 23.0857 31.3953Z" fill="#79655E" stroke="#79655E"/>
</svg>
