<svg width="52" height="49" viewBox="0 0 52 49" fill="none" xmlns="http://www.w3.org/2000/svg">
<path d="M32.4905 29.9853C32.4905 29.9853 17.3622 48.9911 14.756 47.6563C13.6119 47.0842 14.3746 45.8765 15.3281 43.8424C16.4723 41.5541 21.3667 33.5449 23.6551 29.6675" stroke="#79655E" stroke-width="2" stroke-miterlimit="10" stroke-linecap="round" stroke-linejoin="round"/>
<path d="M22.4473 20.832C19.7141 17.7809 16.2816 14.3484 14.756 15.1112C13.6119 15.6832 14.3746 16.891 15.3281 18.925C15.4552 19.2429 16.0909 20.2599 16.7265 21.4041" stroke="#79655E" stroke-width="2" stroke-miterlimit="10" stroke-linecap="round" stroke-linejoin="round"/>
<path d="M30.3918 32.5917C34.3964 32.5917 36.2398 32.5917 39.2273 32.5917C51.4317 32.5917 51.3046 30.3669 50.8596 29.0321C50.0333 26.6166 43.5497 23.5655 37.7653 23.5655C29.7562 23.5655 16.9161 24.519 11.2589 25.0275C9.47904 25.1546 7.7628 24.5825 6.42794 23.4384C4.39387 21.7221 2.3598 20.3873 1.34277 20.7687C0.198606 21.15 2.23267 24.7097 2.86832 25.7903L1.02495 26.4259V29.2227C1.02495 29.2227 9.09766 31.7018 21.747 32.5917" stroke="#79655E" stroke-width="2" stroke-miterlimit="10" stroke-linecap="round" stroke-linejoin="round"/>
<path d="M36.4297 23.7559C36.5568 24.9636 37.8917 30.0488 49.3333 27.379" stroke="#79655E" stroke-width="2" stroke-miterlimit="10" stroke-linecap="round" stroke-linejoin="round"/>
<path d="M5.47461 36.7866H11.7039" stroke="#79655E" stroke-width="2" stroke-miterlimit="10" stroke-linecap="round" stroke-linejoin="round"/>
<path d="M2.93164 41.1729H6.68195" stroke="#79655E" stroke-width="2" stroke-miterlimit="10" stroke-linecap="round" stroke-linejoin="round"/>
<path d="M7.31836 18.0352H9.86094" stroke="#79655E" stroke-width="2" stroke-miterlimit="10" stroke-linecap="round" stroke-linejoin="round"/>
<path d="M19.8398 28.3965H20.1577" stroke="#79655E" stroke-width="2" stroke-miterlimit="10" stroke-linecap="round" stroke-linejoin="round"/>
<path d="M16.7246 28.3965H17.0424" stroke="#79655E" stroke-width="2" stroke-miterlimit="10" stroke-linecap="round" stroke-linejoin="round"/>
<path d="M13.6113 28.3965H13.8656" stroke="#79655E" stroke-width="2" stroke-miterlimit="10" stroke-linecap="round" stroke-linejoin="round"/>
<path d="M11.7677 9.45429C11.5134 9.45429 11.2591 9.51786 11.0684 9.64499C11.0049 8.11944 9.73358 6.84814 8.20803 6.84814C6.80961 6.84814 5.60188 7.86518 5.34762 9.20004C5.09337 9.00934 4.71198 8.94578 4.39416 8.94578C3.37712 8.94578 2.55078 9.77212 2.55078 10.7892C2.55078 11.8062 3.37712 12.6325 4.39416 12.6325C5.09337 12.6325 11.132 12.6325 11.7677 12.6325C12.6576 12.6325 13.3568 11.9333 13.3568 11.0434C13.3568 10.1535 12.6576 9.45429 11.7677 9.45429Z" stroke="#79655E" stroke-width="2" stroke-miterlimit="10" stroke-linecap="round" stroke-linejoin="round"/>
<path d="M31.791 6.83853L39.0694 16.2555L50.8604 1" stroke="#79655E" stroke-width="2" stroke-miterlimit="10" stroke-linecap="round" stroke-linejoin="round"/>
</svg>
